<?xml version="1.0" standalone="no"?>
<!DOCTYPE svg PUBLIC "-//W3C//DTD SVG 1.1//EN" "http://www.w3.org/Graphics/SVG/1.1/DTD/svg11.dtd">
<svg xmlns="http://www.w3.org/2000/svg"><metadata>This SVG WebFont was generated by YouWorkForThem.
Copyright  2012 by Jonathan Hill. All rights reserved.</metadata><defs><font horiz-adv-x="1038" id="ywftsvg"><font-face ascent="1638" bbox="-147 -449 1960 2085" cap-height="1434" descent="-410" font-family="" font-stretch="normal" font-weight="400" panose-1="0 0 5 0 0 0 0 0 0 0" underline-position="0" underline-thickness="0" unicode-range="U+0020-FB02" units-per-em="2048" x-height="1024"/><missing-glyph horiz-adv-x="512"/><glyph glyph-name=".notdef" horiz-adv-x="512"/><glyph glyph-name="glyph1" horiz-adv-x="0"/><glyph glyph-name="glyph2" horiz-adv-x="681"/><glyph glyph-name="space" horiz-adv-x="614" unicode=" "/><glyph d="M117 147h143v-147h-143v147zM133 1434h111v-398l-19 -645h-73l-19 645v398z" glyph-name="exclam" horiz-adv-x="374" unicode="!"/><glyph d="M434 1518h111v-175l-17 -225h-77l-17 225v175zM109 1518h110v-175l-16 -225h-76l-18 225v175z" glyph-name="quotedbl" horiz-adv-x="653" unicode="&quot;"/><glyph d="M821 596l70 328h-361l-69 -328h360zM1231 1010v-86h-244l-69 -328h313v-86h-332l-108 -510h-97l109 510h-361l-108 -510h-96l108 510h-256v57l29 29h246l69 328h-344v59l29 27h334l90 424h96l-90 -424h358l90 424h99l-90 -424h225z" glyph-name="numbersign" horiz-adv-x="1320" unicode="#"/><glyph d="M899 313v133q0 27 -17 55t-48 42l-246 127v-574h82q61 0 98 37l90 90q41 41 41 90zM514 1337h-84q-61 0 -98 -37l-90 -92q-39 -41 -39 -90v-82q0 -67 65 -96l246 -125v522zM1001 313q0 -86 -69 -157l-90 -90q-66 -66 -172 -66h-82v-102h-74v102h-383l-31 29v67h414v611 l-350 178q-35 18 -49 44t-15 70v127q0 47 10 75t42 56l120 123q35 33 58 43t65 11h119v102h74v-102h317l31 -29v-68h-348v-559l293 -149q121 -61 120 -183v-133z" glyph-name="dollar" horiz-adv-x="1099" unicode="$"/><glyph d="M1178 561h-179q-6 0 -16 -10l-43 -41q-8 -8 -8 -25v-309q0 -18 8 -24l43 -43q10 -10 16 -11h179q8 0 18 11l43 43q6 8 6 24v309q0 17 -6 23l-43 43q-10 10 -18 10zM993 627h191q35 0 61 -27l49 -49q25 -25 25 -64v-315q0 -37 -25 -61l-49 -50q-27 -27 -61 -26h-191 q-35 0 -59 26l-49 50q-27 25 -27 61v315q0 39 27 64l49 49q24 27 59 27zM426 1331h-178q-6 0 -17 -8l-43 -43q-8 -8 -8 -25v-309q0 -16 8 -24l43 -43q10 -10 17 -11h178q8 0 18 11l43 43q6 8 7 24v309q-1 17 -7 25l-43 43q-10 8 -18 8zM242 1397h190q35 0 62 -27l49 -49 q25 -25 24 -64v-313q0 -39 -24 -63l-49 -50q-27 -27 -62 -26h-190q-35 0 -60 26l-49 50q-27 25 -27 63v313q0 39 27 64l49 49q25 27 60 27zM231 -35l863 1501h92l-860 -1501h-95z" glyph-name="percent" horiz-adv-x="1423" unicode="%"/><glyph d="M193 236q0 -35 26 -62l62 -61q25 -25 63 -25h315q39 0 64 25l176 174l-399 413l-281 -282q-27 -27 -26 -62v-120zM721 1092v104q0 35 -29 61l-59 60q-27 27 -66 26h-125q-39 0 -63 -26l-62 -60q-27 -27 -26 -61v-104q-1 -33 26 -60l185 -194l192 194q27 27 27 60zM688 -2 h-373q-33 0 -53 8t-45 33l-86 88q-41 39 -41 100v138q0 59 41 100l303 305l-205 213q-41 43 -41 102v119q0 59 41 101l86 86q25 27 45 35t54 8h184q33 0 52 -8t44 -35l88 -86q39 -41 39 -101v-119q0 -57 -39 -100l-215 -215l400 -416l186 187l41 -39v-56l-162 -161l162 -166 v-78l-31 -31l-198 207l-179 -178q-25 -25 -45 -33t-53 -8z" glyph-name="ampersand" horiz-adv-x="1280" unicode="&amp;"/><glyph d="M117 1518h110v-175l-16 -225h-76l-18 225v175z" glyph-name="quotesingle" horiz-adv-x="344" unicode="'"/><glyph d="M426 1620h63v-98h-22q-41 0 -66 -27l-155 -154q-27 -27 -27 -63v-1198q0 -35 27 -64l157 -155q27 -23 64 -23h22v-100h-63q-31 0 -50 9t-44 34l-174 170q-27 27 -36 49t-9 55v1248q0 59 39 98l180 178q25 25 43 33t51 8z" glyph-name="parenleft" horiz-adv-x="598" unicode="("/><glyph d="M113 1620h63q33 0 51 -8t43 -33l181 -178q39 -39 38 -98v-1248q0 -35 -9 -57t-36 -47l-174 -170q-25 -25 -44 -34t-50 -9h-63v100h20q45 0 70 29l151 149q29 29 29 64v1198q0 37 -29 63l-153 154q-27 27 -68 27h-20v98z" glyph-name="parenright" horiz-adv-x="598" unicode=")"/><glyph d="M432 1434h92v-162l-16 -191l162 111l137 78l49 -86l-141 -80l-172 -82l172 -82l141 -82l-49 -86l-137 78l-162 113l16 -191v-164h-92v164l14 193l-163 -115l-136 -78l-49 86l142 82l170 82l-170 82l-142 80l49 86l136 -78l163 -113l-14 193v162z" glyph-name="asterisk" horiz-adv-x="950" unicode="*"/><glyph d="M489 1049h105v-398h393v-104h-393v-397h-105v397h-393v104h393v398z" glyph-name="plus" horiz-adv-x="1083" unicode="+"/><glyph d="M129 139h141v-112q0 -55 -22 -105l-47 -102h-84l78 168h-66v151z" glyph-name="comma" horiz-adv-x="387" unicode=","/><glyph d="M104 653h619v-104h-619v104z" glyph-name="hyphen" horiz-adv-x="825" unicode="-"/><glyph d="M117 129h143v-147h-143v147z" glyph-name="period" horiz-adv-x="374" unicode="."/><glyph d="M119 0l471 1434h102l-471 -1434h-102z" glyph-name="slash" horiz-adv-x="800" unicode="/"/><glyph d="M350 1292q-41 0 -65 -24l-62 -62q-29 -27 -28 -63v-907q0 -35 28 -62l62 -61q25 -25 65 -25h301q41 0 66 25l61 61q27 27 27 62v907q0 36 -27 63l-61 62q-25 25 -66 24h-301zM322 1378h358q33 0 52 -8t44 -33l88 -86q39 -41 39 -100v-922q0 -59 -39 -100l-88 -86 q-25 -25 -44 -33t-52 -8h-358q-32 0 -52 8t-45 33l-88 86q-39 41 -39 100v922q0 59 39 100l88 86q25 25 45 33t52 8z" glyph-name="zero" horiz-adv-x="997" unicode="0"/><glyph d="M502 0h-99v1278l-337 -125l-21 55l27 56l307 114h82l41 -41v-1337z" glyph-name="one" horiz-adv-x="604" unicode="1"/><glyph d="M338 1378h287q45 0 69 -10t58 -45l108 -109q31 -32 41 -60t10 -73v-163q0 -102 -53 -130l-600 -303q-63 -35 -63 -96v-303h778v-55l-33 -31h-844v385q0 123 123 184l531 273q29 14 46 41t17 53v141q0 47 -37 86l-90 92q-37 37 -96 37h-217q-59 0 -94 -37l-78 -77l-68 67 l78 78q35 35 59 45t68 10z" glyph-name="two" horiz-adv-x="1044" unicode="2"/><glyph d="M215 1378h399q32 0 52 -8t45 -33l86 -86q39 -41 39 -100v-158q0 -59 -39 -100l-119 -121l129 -131q41 -39 41 -98v-316q0 -59 -41 -100l-86 -86q-25 -25 -44 -33t-52 -8h-420q-33 0 -52 8t-44 33l-48 47l66 66l41 -43q27 -25 65 -25h363q39 0 66 25l61 61q27 27 27 61 v302q0 35 -27 61l-117 117q-27 27 -65 26h-320v86h340q41 0 66 27l86 86q27 29 26 63v142q0 37 -28 63l-60 62q-27 25 -67 24h-340q-39 0 -66 -24l-41 -43l-65 65l47 47q25 25 44 33t52 8z" glyph-name="three" horiz-adv-x="942" unicode="3"/><glyph d="M682 416v876h-57l-455 -876h512zM780 416h193v-45l-41 -41h-152v-330h-98v330h-571l-41 41v67l485 940h184l41 -41v-921z" glyph-name="four" horiz-adv-x="1040" unicode="4"/><glyph d="M793 1292h-529l-74 -518h424q34 0 52 -8t45 -35l86 -86q39 -39 39 -100v-318q0 -59 -39 -100l-86 -86q-25 -25 -44 -33t-53 -8h-360q-33 0 -52 8t-44 33l-47 47l65 64l41 -41q25 -25 66 -25h301q41 0 65 25l62 61q29 27 28 61v306q0 35 -28 61l-60 62q-27 27 -67 26h-430 l-66 66l80 583l41 41h543l41 -41v-45z" glyph-name="five" horiz-adv-x="929" unicode="5"/><glyph d="M612 770h-82q-31 0 -53 -10l-280 -133v-398q0 -31 26 -57l62 -61q23 -23 65 -23h262q43 0 66 23l61 61q27 27 27 57v400q0 28 -27 57l-61 59q-25 25 -66 25zM322 1378h360q33 0 52 -8t44 -33l47 -47l-65 -65l-41 43q-27 25 -68 24h-301q-39 0 -65 -24l-62 -62 q-27 -27 -26 -61v-422l237 111q45 23 92 22h115q33 0 51 -9t45 -36l86 -86q41 -41 41 -107v-382q0 -66 -41 -107l-86 -86q-27 -27 -45 -35t-51 -8h-319q-34 0 -52 8t-45 35l-88 86q-39 41 -39 107v915q0 59 39 100l88 86q25 25 45 33t52 8z" glyph-name="six" horiz-adv-x="958" unicode="6"/><glyph d="M45 1288v47l41 41h623l41 -41v-43l-398 -1292h-94l385 1288h-598z" glyph-name="seven" horiz-adv-x="808" unicode="7"/><glyph d="M195 236q0 -35 28 -62l62 -61q25 -25 65 -25h301q41 0 66 25l61 61q27 27 27 62v301q0 34 -27 61l-61 61q-23 25 -62 27h-309q-39 -2 -61 -27l-62 -61q-29 -27 -28 -61v-301zM360 1292q-41 0 -65 -24l-62 -62q-27 -29 -26 -63v-223q0 -35 26 -62l62 -61q23 -23 61 -25 h289q39 2 62 25l61 61q27 27 27 62v223q0 36 -27 63l-61 62q-25 25 -66 24h-281zM332 1378h338q33 0 52 -8t44 -33l88 -86q39 -41 39 -100v-238q0 -61 -39 -100l-82 -80l92 -90q39 -39 39 -98v-316q0 -59 -39 -100l-88 -86q-25 -25 -44 -33t-52 -8h-358q-32 0 -52 8t-45 33 l-88 86q-39 41 -39 100v316q0 59 39 98l92 90l-82 80q-39 41 -38 100v238q0 59 38 100l89 86q25 25 44 33t52 8z" glyph-name="eight" horiz-adv-x="997" unicode="8"/><glyph d="M350 1290q-43 0 -65 -22l-62 -62q-27 -27 -26 -57v-361q0 -31 26 -57l62 -59q23 -25 65 -25h82q31 0 51 10l283 134v358q0 30 -27 57l-61 62q-23 23 -66 22h-262zM322 1378h319q33 0 51 -8t45 -35l86 -86q41 -41 41 -106v-916q0 -59 -41 -100l-86 -86q-25 -25 -44 -33 t-52 -8h-360q-33 0 -53 8t-44 33l-47 47l66 64l41 -41q27 -25 65 -25h303q39 0 66 25l61 61q27 27 27 61v461l-238 -110q-47 -23 -92 -23h-114q-34 0 -52 8t-45 35l-88 88q-39 39 -39 105v346q0 66 39 106l88 86q27 27 45 35t52 8z" glyph-name="nine" horiz-adv-x="958" unicode="9"/><glyph d="M117 141h143v-147h-143v147zM117 1030h143v-147h-143v147z" glyph-name="colon" horiz-adv-x="374" unicode=":"/><glyph d="M129 139h141v-112q0 -55 -22 -105l-47 -102h-84l78 168h-66v151zM129 1028h141v-147h-141v147z" glyph-name="semicolon" horiz-adv-x="387" unicode=";"/><glyph d="M98 627l879 426l37 -88l-803 -385v-84l803 -385l-37 -88l-879 423v181z" glyph-name="less" horiz-adv-x="1116" unicode="&lt;"/><glyph d="M98 457h891v-103h-891v103zM98 842h891v-103h-891v103z" glyph-name="equal" horiz-adv-x="1083" unicode="="/><glyph d="M104 965l37 88l879 -426v-181l-879 -423l-37 88l803 385v84z" glyph-name="greater" horiz-adv-x="1116" unicode=">"/><glyph d="M377 147h143v-147h-143v147zM319 1434h259q44 0 68 -10t59 -46l108 -110q31 -29 42 -58t11 -75v-166q0 -102 -55 -129l-250 -127q-29 -14 -46 -41t-17 -56v-225h-99v227q0 121 123 187l180 92q64 33 64 94v139q0 49 -37 87l-90 92q-37 37 -96 37h-189q-57 0 -94 -37 l-78 -78l-67 67l80 80q33 36 57 46t67 10z" glyph-name="question" horiz-adv-x="964" unicode="?"/><glyph d="M961 451h-291q-29 0 -47 -19l-54 -51q-18 -20 -18 -45v-76q0 -25 18 -43l45 -45q18 -16 48 -16h104q23 0 39 8l156 74v213zM403 1151h756q47 0 84 -37l168 -166q35 -35 35 -88v-493q2 -51 -33 -86l-170 -168q-37 -37 -84 -37h-188l-13 71l-110 -53q-39 -18 -82 -18h-127 q-45 0 -78 33l-65 65q-31 33 -31 80v90q0 47 31 80l73 74q35 33 78 32h316v125q0 25 -21 43l-51 52q-18 18 -47 18h-334v55l25 25h331q45 0 78 -35l72 -72q33 -31 33 -79v-504h79q39 0 64 24l141 146q27 27 25 61v451q0 33 -25 59l-147 145q-27 27 -66 27h-678 q-39 0 -65 -27l-148 -145q-25 -27 -24 -59v-762q0 -35 26 -60l148 -147q27 -25 61 -25h609v-79h-646q-49 0 -84 34l-167 168q-37 35 -37 88v803q0 53 37 88l167 166q37 37 84 37z" glyph-name="at" horiz-adv-x="1560" unicode="@"/><glyph d="M936 580l-238 759h-108l-238 -759h584zM520 1434h248l453 -1405l-64 -29h-37l-153 485h-645l-154 -485h-37l-63 29z" glyph-name="A" horiz-adv-x="1288" unicode="A"/><glyph d="M860 674h-565v-580h565q41 0 70 27l61 61q27 29 27 66v272q0 37 -27 66l-61 61q-29 27 -70 27zM295 1339v-571h496q41 0 67 27l62 61q29 29 28 66v264q1 36 -28 63l-62 62q-27 29 -67 28h-496zM831 1434q33 0 51 -8t44 -33l86 -86q39 -39 39 -97v-313q0 -55 -33 -90 l-43 -43q-4 -4 -4 -8t4 -6l108 -109q37 -39 37 -96v-322q0 -57 -37 -96l-88 -86q-25 -25 -43 -33t-51 -8h-711v1395l39 39h602z" glyph-name="B" horiz-adv-x="1228" unicode="B"/><glyph d="M463 1434h385q33 0 51 -8t43 -33l139 -138l-73 -73l-134 131q-27 27 -67 26h-303q-41 0 -68 -26l-153 -154q-29 -29 -29 -65v-754q0 -37 29 -66l153 -153q27 -27 68 -27h303q41 0 67 27l134 131l73 -74l-139 -137q-25 -25 -43 -33t-51 -8h-385q-33 0 -51 8t-43 33 l-179 178q-39 39 -38 96v803q0 57 38 96l179 179q25 25 43 33t51 8z" glyph-name="C" horiz-adv-x="1200" unicode="C"/><glyph d="M293 1339v-1245h502q41 0 67 27l156 153q29 29 29 66v754q0 36 -29 65l-156 154q-27 27 -67 26h-502zM836 1434q33 0 51 -8t43 -33l180 -179q39 -39 39 -96v-803q0 -57 -39 -96l-180 -178q-25 -25 -43 -33t-51 -8h-646v1395l39 39h607z" glyph-name="D" horiz-adv-x="1296" unicode="D"/><glyph d="M373 1434h557l39 -39v-56h-555q-43 0 -70 -26l-61 -64q-27 -27 -27 -63v-422h592v-94h-592v-422q0 -37 27 -64l61 -61q29 -29 70 -29h555v-55l-39 -39h-557q-33 0 -51 8t-43 33l-89 86q-39 39 -38 96v987q0 57 38 97l89 86q25 25 43 33t51 8z" glyph-name="E" horiz-adv-x="1075" unicode="E"/><glyph d="M414 1434h516l39 -39v-56h-514q-41 0 -68 -26l-61 -62q-29 -29 -29 -65v-461h553v-96h-553v-627h-102v1208q0 57 38 97l86 86q25 25 43 33t52 8z" glyph-name="F" horiz-adv-x="1079" unicode="F"/><glyph d="M844 1434q33 0 51 -8t43 -33l137 -138l-74 -73l-131 131q-29 29 -73 28h-295q-41 0 -68 -26l-153 -154q-29 -29 -29 -65v-756q0 -37 29 -66l153 -153q31 -29 74 -29h293q43 0 69 27l154 153q29 29 29 66v319h-344v58l39 39h407v-441q0 -57 -39 -96l-178 -178 q-39 -37 -74 -39h-403q-33 0 -51 8t-43 33l-179 178q-39 39 -38 96v805q0 57 38 97l179 178q38 37 71 39h406z" glyph-name="G" horiz-adv-x="1304" unicode="G"/><glyph d="M1200 1434v-1434h-102v694h-805v-694h-103v1395l39 39h64v-643h805v604l39 39h63z" glyph-name="H" horiz-adv-x="1388" unicode="H"/><glyph d="M309 1434v-1434h-104v1395l39 39h65z" glyph-name="I" horiz-adv-x="512" unicode="I"/><glyph d="M461 1430v-1467q0 -35 -8 -53t-31 -43l-88 -86q-25 -25 -43 -33t-49 -8h-164v94h123q45 0 69 29l62 59q25 29 24 66v1347h-278v56l39 39h344z" glyph-name="J" horiz-adv-x="659" unicode="J"/><glyph d="M295 1434v-770l680 770h37l45 -45l-551 -635l616 -709l-45 -45h-37l-600 678l-145 -168v-510h-102v1395l38 39h64z" glyph-name="K" horiz-adv-x="1200" unicode="K"/><glyph d="M297 1434v-1340h670v-94h-734l-38 39v1356l38 39h64z" glyph-name="L" unicode="L"/><glyph d="M1655 0h-103v1339h-116l-424 -1339h-203l-422 1339h-117v-1339h-104v1395l39 39h254l422 -1340h61l420 1340h254l39 -39v-1395z" glyph-name="M" horiz-adv-x="1826" unicode="M"/><glyph d="M1085 1434h103v-1395l-39 -39h-221l-555 1339h-90v-1339h-103v1395l39 39h217l561 -1340h88v1340z" glyph-name="N" horiz-adv-x="1363" unicode="N"/><glyph d="M502 1339q-41 0 -68 -26l-155 -154q-29 -29 -29 -65v-754q0 -37 29 -66l155 -153q27 -27 68 -27h356q41 0 68 27l155 153q29 29 29 66v754q0 36 -29 65l-155 154q-27 27 -68 26h-356zM461 1434h438q33 0 51 -8t43 -33l181 -179q39 -39 38 -96v-803q0 -57 -38 -96 l-181 -178q-25 -25 -43 -33t-51 -8h-438q-33 0 -51 8t-43 33l-181 178q-39 39 -39 96v803q0 57 39 96l181 179q25 25 43 33t51 8z" glyph-name="O" horiz-adv-x="1357" unicode="O"/><glyph d="M295 1339v-614h518q41 0 68 27l61 61q29 29 29 66v307q0 36 -29 63l-61 62q-27 29 -68 28h-518zM854 1434q33 0 51 -8t43 -33l86 -86q39 -39 39 -97v-356q0 -57 -39 -96l-86 -88q-25 -25 -43 -32t-51 -7h-559v-631h-102v1395l38 39h623z" glyph-name="P" horiz-adv-x="1202" unicode="P"/><glyph d="M500 1339q-41 0 -68 -26l-153 -154q-29 -29 -29 -65v-752q0 -37 29 -66l153 -153q27 -27 68 -27h358q41 0 68 27l153 153q29 29 29 66v752q0 36 -29 65l-153 154q-27 27 -68 26h-358zM459 1434h440q33 0 51 -8t43 -31l178 -181q39 -39 39 -96v-801q0 -57 -34 -94l-68 -65 l199 -201l-39 -37h-51l-173 174l-57 -57q-23 -23 -40 -29t-48 -6h-440q-33 0 -51 7t-43 32l-179 180q-39 37 -39 96v801q0 57 39 96l179 181q25 23 43 31t51 8z" glyph-name="Q" horiz-adv-x="1400" unicode="Q"/><glyph d="M295 1339v-575h516q43 0 70 27l61 61q29 27 29 63v271q0 36 -29 63l-61 62q-27 29 -70 28h-516zM854 1434q31 0 49 -8t43 -33l88 -86q39 -39 39 -97v-319q0 -57 -39 -96l-88 -86q-27 -27 -51 -33h-68l299 -627l-49 -49h-41l-317 670h-424v-670h-105v1395l39 39h625z" glyph-name="R" horiz-adv-x="1239" unicode="R"/><glyph d="M406 1434h509l31 -29v-66h-506q-61 0 -98 -39l-90 -92q-39 -41 -39 -90v-82q0 -67 66 -96l612 -311q121 -61 121 -183v-133q0 -86 -70 -157l-92 -90q-63 -66 -170 -66h-541l-28 29v67h569q61 0 98 37l90 90q41 41 41 90v133q0 27 -17 55t-48 42l-670 342q-35 18 -49 44 t-14 70v127q0 47 10 75t39 56l123 123q33 34 57 44t66 10z" glyph-name="S" horiz-adv-x="1120" unicode="S"/><glyph d="M1065 1339h-449v-1339h-102v1339h-446v56l38 39h920l39 -39v-56z" glyph-name="T" horiz-adv-x="1130" unicode="T"/><glyph d="M1163 1434v-1211q0 -57 -39 -96l-86 -86q-25 -25 -43 -33t-51 -8h-534q-34 0 -52 8t-43 33l-86 86q-39 39 -39 96v1172l39 39h64v-1186q0 -37 29 -64l61 -63q27 -27 68 -27h452q41 0 68 27l61 63q29 27 29 64v1147l39 39h63z" glyph-name="U" horiz-adv-x="1341" unicode="U"/><glyph d="M1081 1434h39l64 -31l-426 -1403h-262l-424 1403l63 31h37l397 -1340h117z" glyph-name="V" horiz-adv-x="1253" unicode="V"/><glyph d="M1858 1434h34l66 -31l-354 -1403h-240l-320 1339h-79l-322 -1339h-240l-354 1403l66 31h35l327 -1340h94l310 1340h245l310 -1340h94z" glyph-name="W" horiz-adv-x="2004" unicode="W"/><glyph d="M983 1434h41l47 -48l-436 -675l436 -664l-47 -47h-37l-416 637l-411 -637h-37l-47 47l436 674l-436 665l47 48h35l420 -637z" glyph-name="X" horiz-adv-x="1144" unicode="X"/><glyph d="M649 526v-526h-102v526h-90l-383 879l61 29h41l340 -811h164l340 811h41l61 -29l-383 -879h-90z" glyph-name="Y" horiz-adv-x="1193" unicode="Y"/><glyph d="M211 94h854v-55l-39 -39h-879l-38 39v201l821 981v118h-778v56l38 39h805l37 -39v-205l-821 -983v-113z" glyph-name="Z" horiz-adv-x="1173" unicode="Z"/><glyph d="M426 1554v-59l-39 -39h-166v-1624h164l41 -37v-61h-272l-41 39v1743l41 38h272z" glyph-name="bracketleft" horiz-adv-x="536" unicode="["/><glyph d="M119 1434h92l471 -1434h-92z" glyph-name="backslash" horiz-adv-x="798" unicode="\"/><glyph d="M113 1554h274l39 -38v-1743l-41 -39h-272v61l41 37h165v1624h-165l-41 39v59z" glyph-name="bracketright" horiz-adv-x="536" unicode="]"/><glyph d="M528 1442h185l422 -877l-88 -37l-383 795h-86l-383 -795l-91 37z" glyph-name="asciicircum" horiz-adv-x="1236" unicode="^"/><glyph d="M94 -213h975v-82h-975v82z" glyph-name="underscore" horiz-adv-x="1163" unicode="_"/><glyph d="M111 1475l69 65l213 -254l-49 -45z" glyph-name="grave" horiz-adv-x="501" unicode="`"/><glyph d="M778 508h-407q-41 0 -68 -25l-76 -75q-27 -27 -26 -64v-106q0 -35 26 -64l64 -63q27 -27 67 -27h146q31 0 55 12l219 105v307zM639 1024q33 0 52 -8t44 -33l99 -98q41 -41 40 -101v-784h-86l-18 100l-162 -75q-51 -25 -104 -25h-174q-34 0 -54 8t-45 33l-88 90 q-39 39 -39 98v123q0 59 39 101l101 98q25 27 44 35t54 8h436v182q0 37 -28 64l-72 73q-27 27 -68 27h-446v57l29 27h446z" glyph-name="a" horiz-adv-x="987" unicode="a"/><glyph d="M655 938h-82q-31 0 -55 -12l-287 -135v-553q0 -37 27 -66l64 -61q27 -27 67 -27h266q41 0 68 27l63 61q27 29 27 66v548q0 35 -27 64l-63 61q-27 27 -68 27zM231 1468v-579l244 112q45 20 92 21h117q35 0 54 -8t44 -33l88 -88q39 -41 39 -100v-564q0 -59 -39 -100 l-88 -88q-27 -25 -45 -33t-53 -8h-326q-33 0 -51 8t-45 33l-88 88q-41 41 -41 100v1213l29 26h69z" glyph-name="b" horiz-adv-x="1011" unicode="b"/><glyph d="M332 1024h342q33 0 52 -8t44 -33l47 -47l-63 -64l-41 41q-27 27 -68 27h-285q-41 0 -67 -27l-62 -63q-29 -29 -28 -64v-548q0 -35 28 -64l62 -63q27 -27 67 -27h285q41 0 68 27l41 41l63 -64l-45 -47q-27 -25 -46 -33t-52 -8h-342q-33 0 -52 8t-44 33l-91 90 q-39 39 -39 98v566q0 59 39 98l91 90q25 25 44 33t52 8z" glyph-name="c" horiz-adv-x="909" unicode="c"/><glyph d="M778 938h-407q-41 0 -68 -27l-76 -73q-27 -27 -26 -64v-536q0 -37 26 -64l64 -63q27 -27 67 -27h146q31 0 55 12l219 103v739zM778 1468h70l26 -26v-1442h-86l-18 100l-162 -75q-49 -25 -104 -25h-174q-36 0 -54 8t-45 33l-88 88q-41 41 -41 100v553q0 59 41 101l101 98 q25 27 44 35t54 8h436v444z" glyph-name="d" horiz-adv-x="1005" unicode="d"/><glyph d="M614 940h-256q-41 0 -67 -27l-64 -63q-27 -29 -26 -64v-219h571v219q0 35 -27 64l-63 63q-27 27 -68 27zM330 1024h313q33 0 52 -8t46 -33l88 -90q39 -39 39 -98v-285l-26 -27h-641v-245q0 -35 26 -64l64 -63q27 -27 67 -27h256q41 0 68 27l41 43l65 -66l-47 -47 q-27 -25 -46 -33t-52 -8h-313q-36 0 -54 8t-45 33l-88 90q-39 39 -39 98v566q0 59 39 98l88 90q27 25 45 33t54 8z" glyph-name="e" horiz-adv-x="958" unicode="e"/><glyph d="M455 1434h86l28 -27v-57h-86q-41 0 -67 -27l-62 -63q-29 -27 -28 -64v-172h221v-84h-221v-940h-97v940h-170v57l27 27h143v180q0 59 41 101l88 88q24 25 44 33t53 8z" glyph-name="f" horiz-adv-x="626" unicode="f"/><glyph d="M625 940h-267q-41 0 -67 -27l-64 -63q-27 -27 -26 -64v-548q0 -35 26 -64l64 -63q27 -27 67 -25h84q29 0 54 10l286 135v555q1 37 -26 64l-64 63q-27 27 -67 27zM328 1024h325q35 0 55 -8t44 -33l88 -88q41 -41 39 -100v-924q0 -59 -39 -100l-101 -99q-23 -24 -42 -32 t-54 -9h-446l-27 27v59h444q39 0 68 23l74 76q27 25 26 61v258l-243 -115q-45 -20 -93 -20h-118q-32 0 -52 8t-45 33l-88 90q-41 39 -41 117v559q0 33 9 47q8 14 32 41l88 88q25 25 45 33t52 8z" glyph-name="g" horiz-adv-x="1007" unicode="g"/><glyph d="M238 1468v-579l245 112q45 23 92 23h117q35 0 53 -9t46 -34l88 -88q39 -41 39 -100v-793h-97v786q0 35 -26 64l-64 61q-27 27 -67 27h-82q-31 0 -56 -12l-288 -135v-791h-97v1440l29 28h68z" glyph-name="h" unicode="h"/><glyph d="M176 1024h96v-1024h-96v1024zM162 1395h125v-133h-125v133z" glyph-name="i" horiz-adv-x="434" unicode="i"/><glyph d="M188 1024h97v-1163q0 -59 -39 -101l-90 -90q-25 -24 -44 -32t-53 -9h-67v84h37q35 0 67 27l64 65q29 25 28 64v1155zM172 1395h127v-133h-127v133z" glyph-name="j" horiz-adv-x="444" unicode="j"/><glyph d="M242 1468v-882l561 438h55l41 -39l-496 -385l541 -559l-43 -41h-51l-510 545l-98 -90v-455h-97v1440l27 28h70z" glyph-name="k" horiz-adv-x="1003" unicode="k"/><glyph d="M252 1468v-1230q0 -37 29 -64l63 -63q29 -27 66 -27h79v-84h-108q-33 0 -52 8t-44 33l-86 86q-43 43 -43 104v1209l28 28h68z" glyph-name="l" horiz-adv-x="552" unicode="l"/><glyph d="M510 1024h125q33 0 52 -8t44 -33l94 -94l244 115q45 20 92 20h125q33 0 52 -8t44 -33l91 -90q39 -39 38 -100v-793h-96v786q0 35 -29 64l-61 63q-27 25 -68 25h-90q-29 0 -55 -10l-252 -119v-809h-96v786q0 35 -29 64l-63 63q-25 25 -68 25h-88q-31 0 -55 -10l-254 -119 v-809h-96v1024h84l20 -117l203 97q45 20 92 20z" glyph-name="m" horiz-adv-x="1609" unicode="m"/><glyph d="M567 1024h125q33 0 52 -8t44 -33l89 -90q41 -39 41 -98v-795h-99v786q0 35 -26 64l-64 63q-27 25 -67 25h-89q-31 0 -55 -10l-289 -135v-793h-96v1024h82l23 -131l237 111q45 20 92 20z" glyph-name="n" unicode="n"/><glyph d="M641 940h-283q-41 0 -67 -27l-64 -63q-29 -29 -28 -64v-548q0 -35 28 -64l64 -63q25 -27 67 -27h283q41 0 68 27l63 63q29 29 29 64v548q0 35 -29 64l-63 63q-27 27 -68 27zM328 1024h344q33 0 52 -8t44 -33l88 -90q41 -39 41 -98v-566q0 -59 -41 -98l-88 -90 q-25 -25 -44 -33t-52 -8h-344q-32 0 -52 8t-45 33l-88 90q-41 39 -41 98v566q0 59 41 98l88 90q25 25 45 33t52 8z" glyph-name="o" horiz-adv-x="995" unicode="o"/><glyph d="M666 940h-82q-31 0 -56 -12l-286 -135v-709h424q41 0 67 27l64 63q27 29 26 64v548q1 37 -26 64l-64 63q-27 27 -67 27zM578 1024h116q34 0 54 -8t45 -33l88 -88q41 -41 41 -100v-564q0 -61 -41 -100l-88 -90q-25 -25 -44 -33t-55 -8h-452v-340l-29 -29h-70v1393h82 l23 -131l237 111q46 20 93 20z" glyph-name="p" horiz-adv-x="1021" unicode="p"/><glyph d="M625 940h-267q-41 0 -67 -27l-64 -63q-27 -27 -26 -64v-548q0 -35 26 -64l64 -63q27 -27 67 -25h82q31 0 56 10l286 135v555q1 37 -26 64l-64 63q-27 27 -67 27zM328 1024h325q35 0 55 -8t44 -33l88 -88q41 -41 41 -100v-1135l-29 -29h-70v504l-243 -115q-45 -20 -93 -20 h-118q-32 0 -52 8t-45 33l-88 90q-41 39 -41 100v564q0 59 41 100l88 88q25 25 45 33t52 8z" glyph-name="q" horiz-adv-x="1011" unicode="q"/><glyph d="M575 1024h35v-86h-28q-41 0 -62 -14l-280 -205v-719h-99v1024h72l35 -203l241 185q23 18 86 18z" glyph-name="r" horiz-adv-x="657" unicode="r"/><glyph d="M332 1024h375l28 -27v-57h-375q-43 0 -69 -29l-62 -63q-27 -27 -26 -64v-51q0 -45 45 -67l440 -226q94 -47 94 -137v-67q0 -66 -53 -119l-67 -68q-49 -49 -132 -49h-397l-27 27v57h422q41 0 68 27l63 63q27 29 27 64v61q0 45 -45 70l-483 245q-51 27 -52 91v90 q0 59 39 98l88 90q27 25 47 33t52 8z" glyph-name="s" horiz-adv-x="888" unicode="s"/><glyph d="M231 1268h97v-244h243v-84h-243v-702q0 -37 28 -66l62 -61q27 -27 67 -27h86v-57l-28 -27h-86q-33 0 -53 8t-44 33l-88 88q-41 41 -41 100v711h-170v57l27 27h143v244z" glyph-name="t" horiz-adv-x="677" unicode="t"/><glyph d="M809 1024h98v-1024h-82l-22 131l-238 -111q-45 -20 -92 -20h-125q-33 0 -52 8t-44 33l-88 90q-41 39 -41 98v795h96v-786q0 -35 29 -64l63 -63q25 -25 68 -25h88q31 0 55 10l287 135v793z" glyph-name="u" horiz-adv-x="1026" unicode="u"/><glyph d="M872 1024h58l39 -18l-346 -1006h-222l-346 1006l37 18h58l315 -940h92z" glyph-name="v" horiz-adv-x="1021" unicode="v"/><glyph d="M1518 1024h45l49 -25l-275 -999h-221l-264 940h-64l-264 -940h-219l-276 999l49 25h47l242 -940h96l256 940h203l258 -940h96z" glyph-name="w" horiz-adv-x="1638" unicode="w"/><glyph d="M840 1024l43 -20l-348 -492l360 -492l-45 -20h-57l-318 436l-319 -436h-58l-43 20l361 492l-363 492l43 20h58l321 -434l307 434h58z" glyph-name="x" horiz-adv-x="946" unicode="x"/><glyph d="M858 1024h55l39 -18l-354 -1033q-2 -3 -12 -33t-16 -42t-21 -46t-29 -54t-36 -51q-22 -32 -46 -52t-65 -50q-40 -30 -137 -57l-15 80q174 43 254 246l29 86h-103l-346 1006l37 18h58l317 -940h72z" glyph-name="y" horiz-adv-x="1005" unicode="y"/><glyph d="M201 84h676v-57l-29 -27h-717l-29 27v186l658 645v82h-621v57l27 27h661l29 -27v-170l-655 -647v-96z" glyph-name="z" horiz-adv-x="976" unicode="z"/><glyph d="M406 45q0 -35 28 -65l135 -134l-75 -77l-156 157q-39 35 -39 94v476l-188 131v88l188 133v475q0 59 39 98l156 154l75 -78l-135 -135q-29 -27 -28 -64v-489l-191 -137l191 -137v-490z" glyph-name="braceleft" horiz-adv-x="692" unicode="{"/><glyph d="M117 1542h110v-1837h-110v1837z" glyph-name="bar" horiz-adv-x="344" unicode="|"/><glyph d="M395 1323v-475l189 -133v-88l-189 -131v-476q0 -35 -8 -54t-31 -42l-155 -155l-76 77l135 134q29 31 29 65v490l190 137l-190 137v489q0 37 -29 64l-135 135l76 78l155 -154q39 -39 39 -98z" glyph-name="braceright" horiz-adv-x="692" unicode="}"/><glyph d="M807 594q94 0 207 151l51 -32q-109 -238 -268 -238q-76 0 -160 57q-48 36 -75 54l-51 34q-77 48 -116 48t-65 -6q-80 -19 -170 -150l-51 39q72 109 132 170t130 67q23 2 53 2q61 1 185 -97q124 -99 198 -99z" glyph-name="asciitilde" horiz-adv-x="1167" unicode="~"/><glyph d="M244 -334h-111v397l19 646h73l19 -646v-397zM117 1100h143v-148h-143v148z" glyph-name="exclamdown" horiz-adv-x="374" unicode="¡"/><glyph d="M354 94h99v836h-99q-41 0 -65 -25l-62 -61q-27 -27 -26 -62v-540q0 -35 26 -62l62 -61q24 -25 65 -25zM662 8h-125v-108h-84v108h-127q-32 0 -52 8t-45 33l-88 86q-39 41 -39 101v552q0 59 39 101l88 86q25 25 44 33t53 8h127v108h84v-108h125q33 0 52 -8t44 -33l47 -47 l-64 -66l-43 43q-25 25 -65 25h-96v-836h96q41 0 65 25l43 43l64 -66l-47 -47q-25 -25 -44 -33t-52 -8z" glyph-name="cent" horiz-adv-x="919" unicode="¢"/><glyph d="M559 1376h160q31 0 49 -8t43 -33l139 -139l-73 -74l-132 131q-27 27 -69 27h-74q-43 0 -70 -27l-153 -153q-29 -29 -29 -64v-270h406v-55l-39 -39h-367v-344q0 -53 -31 -86l-47 -47q-2 -3 -2 -7t4 -8l66 -55q35 -25 86 -25h588v-96h-666q-33 0 -51 8t-43 33l-139 139 l104 103q29 29 29 65v320h-144v94h144v293q0 59 39 98l180 178q25 25 43 33t49 8z" glyph-name="sterling" horiz-adv-x="1112" unicode="£"/><glyph glyph-name="currency" horiz-adv-x="1415" unicode="¤"/><glyph d="M1028 778v-94h-188l-64 -149h-94v-177h346v-96h-346v-262h-102v262h-347v96h347v177h-93l-65 149h-189v94h148l-272 625l61 29h39l340 -807h166l338 807h41l61 -29l-272 -625h145z" glyph-name="yen" horiz-adv-x="1259" unicode="¥"/><glyph d="M117 381h110v-676h-110v676zM117 1542h110v-676h-110v676z" glyph-name="brokenbar" horiz-adv-x="344" unicode="¦"/><glyph d="M346 700q-43 0 -70 -28l-59 -62q-29 -29 -29 -65v-51q0 -20 14 -42t34 -32l274 -137q43 2 68 26l61 62q29 29 29 65v62q0 20 -14 40t-33 31l-259 131h-16zM315 1223h375l27 -27v-57h-373q-43 0 -70 -27l-61 -63q-27 -29 -27 -64v-51q0 -47 45 -70l441 -223 q94 -47 94 -139v-68q0 -63 -53 -119l-58 -55q-18 -18 -43 -31l70 -34q84 -49 84 -134v-67q0 -63 -53 -119l-68 -65q-49 -49 -131 -50h-397l-27 25v59h422q37 0 68 25l61 63q29 29 29 64v61q0 47 -45 70l-484 246q-51 27 -51 90v90q0 59 39 100l78 78q25 23 41 29l-107 53 q-51 27 -51 90v90q0 59 39 101l88 88q27 25 45 33t53 8z" glyph-name="section" horiz-adv-x="868" unicode="§"/><glyph d="M481 1450h107v-104h-107v104zM100 1450h107v-104h-107v104z" glyph-name="dieresis" horiz-adv-x="686" unicode="¨"/><glyph d="M672 1114h207q33 0 59 -27l84 -86l-53 -53l-82 80q-8 8 -13 8h-196q-6 0 -14 -8l-89 -86q-6 -6 -6 -9v-431q0 -6 6 -10l89 -89q8 -8 14 -8h196q4 0 13 8l82 82l55 -55l-86 -86q-27 -27 -59 -27h-207q-33 0 -60 27l-96 96q-25 25 -24 64v424q0 39 24 63l96 96q27 27 60 27 zM782 1319q-246 0 -422 -176t-176 -426t176 -427t422 -177t422 177t176 427t-176 426t-422 176zM782 1397q182 0 338 -90t247 -248t91 -343t-91 -342t-247 -248t-338 -91t-338 91t-246 248q-91 157 -92 342q0 185 92 343q91 158 246 248q156 90 338 90z" glyph-name="copyright" horiz-adv-x="1562" unicode="©"/><glyph d="M496 1137h-230q-23 0 -37 -13l-41 -43q-16 -14 -16 -32v-60q0 -18 16 -33l35 -34q12 -14 37 -15h82q18 0 31 6l123 60v164zM424 1462q35 0 63 -28l58 -58q27 -27 26 -65v-473h-67l-10 55l-84 -41q-33 -14 -66 -14h-104q-35 0 -64 26l-51 54q-27 25 -27 65v72q0 41 27 67 l59 58q27 29 64 28h248v97q0 16 -15 32l-41 41q-12 12 -37 13h-268v49l21 22h268z" glyph-name="ordfeminine" horiz-adv-x="667" unicode="ª"/><glyph d="M561 637l359 332l51 -51l-312 -379l312 -381l-51 -52l-359 332v199zM98 637l359 332l51 -51l-313 -379l313 -381l-51 -52l-359 332v199z" glyph-name="guillemotleft" horiz-adv-x="1069" unicode="«"/><glyph glyph-name="logicalnot" horiz-adv-x="1415" unicode="¬"/><glyph d="M899 1030h-283v-274h283q6 0 14 8l39 39q6 6 6 20v138q0 16 -6 22l-39 39q-8 8 -14 8zM903 1112q33 0 60 -25l47 -47q25 -25 24 -63v-168q0 -39 -24 -64l-47 -47q-18 -18 -27 -18h-25l150 -313l-39 -37h-35l-160 344h-211v-344h-79v753l28 29h338zM782 1319 q-246 0 -422 -176t-176 -426t176 -427t422 -177t422 177t176 427t-176 426t-422 176zM782 1397q182 0 338 -90t247 -248t91 -343t-91 -342t-247 -248t-338 -91t-338 91t-246 248q-91 157 -92 342q0 185 92 343q91 158 246 248q156 90 338 90z" glyph-name="registered" horiz-adv-x="1562" unicode="®"/><glyph d="M100 1501h510v-88h-510v88z" glyph-name="macron" horiz-adv-x="708" unicode="¯"/><glyph d="M374 1559q-85 0 -150 -65q-64 -66 -64 -150t64 -149t150 -65t150 65t64 150t-64 149t-150 65zM374 1640q122 0 209 -87t87 -209t-87 -208q-87 -87 -209 -87t-209 87t-87 209q0 123 87 209t209 86z" glyph-name="degree" horiz-adv-x="745" unicode="°"/><glyph d="M96 109h891v-103h-891v103zM489 1141h105v-334h393v-102h-393v-336h-105v336h-393v102h393v334z" glyph-name="plusminus" horiz-adv-x="1083" unicode="±"/><glyph d="M250 1372h174q45 0 80 -35l65 -65q35 -35 35 -88v-92q0 -68 -47 -93l-350 -176q-35 -18 -35 -47v-178h467v-47l-25 -25h-516v242q0 80 78 119l320 164q20 10 26 19t6 28v84q0 25 -20 45l-45 45q-31 31 -51 31h-140q-33 0 -51 -21l-53 -53l-53 53l55 55q35 35 80 35z" glyph-name="uni00B2" horiz-adv-x="735" unicode="²"/><glyph d="M209 1374h240q35 0 63 -28l51 -52q27 -27 27 -67v-94q0 -39 -27 -66l-65 -68l71 -71q27 -25 27 -66v-188q0 -41 -27 -68l-51 -51q-29 -29 -63 -29h-252q-37 0 -64 29l-35 35l52 51l28 -31q14 -12 37 -12h215q23 0 35 12l35 35q16 16 16 33v178q0 18 -16 33l-68 67 q-12 14 -35 15h-198v71h209q25 0 37 13l49 51q16 16 16 33v82q0 18 -16 32l-35 35q-12 14 -35 15h-203q-23 0 -37 -15l-28 -28l-51 51l34 35q29 28 64 28z" glyph-name="uni00B3" horiz-adv-x="694" unicode="³"/><glyph d="M109 1286l213 254l71 -65l-235 -234z" glyph-name="acute" horiz-adv-x="501" unicode="´"/><glyph d="M322 1434h548l41 -39v-1626h-106v1566h-238v-1566h-106v903h-139q-34 0 -52 7t-43 32l-88 88q-39 39 -39 98v311q0 59 39 99l88 86q25 25 43 33t52 8z" glyph-name="paragraph" horiz-adv-x="1009" unicode="¶"/><glyph d="M117 672h143v-148h-143v148z" glyph-name="periodcentered" horiz-adv-x="374" unicode="·"/><glyph d="M280 -51h25q70 -8 108 -48t38 -102q0 -61 -43 -105t-121 -44h-109v65h107q33 0 59 26q26 25 25 65q0 40 -26 60q-27 20 -61 23q-34 2 -102 -28l-53 53l51 109h101l-41 -78q25 4 42 4z" glyph-name="cedilla" horiz-adv-x="538" unicode="¸"/><glyph d="M393 526h-76v764l-198 -73l-17 45l19 41l188 69h53l31 -29v-817z" glyph-name="uni00B9" horiz-adv-x="491" unicode="¹"/><glyph d="M258 1391q-23 0 -35 -13l-35 -35q-16 -16 -16 -32v-322q0 -18 16 -33l35 -34q12 -14 35 -15h166q23 0 35 15l35 34q16 14 16 33v322q0 16 -16 32l-35 35q-12 12 -35 13h-166zM240 1462h202q35 0 64 -28l51 -52q27 -27 27 -67v-332q0 -41 -27 -65l-51 -54q-29 -27 -64 -26 h-202q-35 0 -64 26l-51 54q-27 25 -27 65v332q0 41 27 67l51 52q29 28 64 28z" glyph-name="ordmasculine" horiz-adv-x="679" unicode="º"/><glyph d="M565 918l51 51l359 -332v-199l-359 -332l-51 52l312 379zM102 918l52 51l358 -332v-199l-358 -332l-52 52l312 379z" glyph-name="guillemotright" horiz-adv-x="1069" unicode="»"/><glyph d="M1266 272v467h-43l-240 -467h283zM1341 272h115v-41l-31 -30h-84v-201h-75v201h-338l-31 30v45l295 572h119l30 -31v-545zM379 532h-76v764l-199 -73l-16 45l18 41l191 71h51l31 -30v-818zM231 -35l977 1469h101l-975 -1469h-103z" glyph-name="onequarter" horiz-adv-x="1542" unicode="¼"/><glyph d="M1219 846h174q45 0 80 -35l65 -68q35 -33 35 -86v-92q0 -68 -47 -92l-350 -176q-35 -18 -35 -51v-176h467v-45l-25 -25h-518v242q0 80 80 118l317 162q35 18 35 51v82q0 25 -20 45l-47 48q-29 29 -54 28h-135q-35 0 -53 -20l-51 -54l-54 54l56 55q35 35 80 35zM377 532 h-74v764l-201 -73l-16 45l18 41l191 71h51l31 -30v-818zM229 -35l977 1469h101l-975 -1469h-103z" glyph-name="onehalf" horiz-adv-x="1689" unicode="½"/><glyph d="M1372 272v467h-43l-239 -467h282zM1446 272h117v-41l-31 -30h-86v-201h-74v201h-338l-30 30v45l292 572h121l29 -31v-545zM197 1380h239q35 0 64 -28l51 -52q27 -27 27 -67v-94q0 -39 -27 -66l-66 -67l72 -72q27 -25 27 -66v-188q0 -41 -27 -68l-51 -51q-29 -29 -64 -29 h-252q-37 0 -63 29l-35 35l51 51l29 -31q14 -12 37 -12h215q23 0 35 12l35 35q16 16 16 33v178q0 18 -16 33l-68 68q-12 14 -37 14h-196v72h208q25 0 37 12l49 51q16 16 17 33v82q0 18 -17 33l-34 34q-12 14 -35 15h-203q-23 0 -37 -15l-28 -28l-52 51l35 35q29 28 64 28z M340 -35l977 1469h100l-975 -1469h-102z" glyph-name="threequarters" horiz-adv-x="1646" unicode="¾"/><glyph d="M469 707h98v-228q0 -121 -123 -184l-180 -94q-31 -14 -47 -41t-16 -54v-139q0 -49 37 -84l90 -92q41 -37 96 -37h188q55 0 95 37l77 78l68 -68l-80 -82q-34 -33 -58 -43t-67 -10h-258q-45 0 -69 10t-58 43l-108 113q-31 28 -42 56t-12 75v168q0 102 56 129l250 127 q29 14 46 41t17 53v226zM446 1100h144v-148h-144v148z" glyph-name="questiondown" horiz-adv-x="964" unicode="¿"/><glyph d="M936 580l-238 759h-108l-238 -759h584zM520 1434h248l453 -1403l-64 -31h-37l-153 485h-645l-154 -485h-37l-63 31zM504 1933l69 64l215 -252l-51 -47z" glyph-name="Agrave" horiz-adv-x="1288" unicode="À"/><glyph d="M936 580l-238 759h-108l-238 -759h584zM520 1434h248l453 -1405l-64 -29h-37l-153 485h-645l-154 -485h-37l-63 29zM502 1745l215 252l69 -64l-233 -235z" glyph-name="Aacute" horiz-adv-x="1288" unicode="Á"/><glyph d="M936 580l-238 759h-108l-238 -759h584zM520 1434h248l453 -1405l-64 -29h-37l-153 485h-645l-154 -485h-37l-63 29zM584 2011h123l225 -266l-51 -47l-236 235l-235 -235l-52 47z" glyph-name="Acircumflex" horiz-adv-x="1288" unicode="Â"/><glyph d="M936 580l-238 759h-108l-238 -759h584zM520 1434h248l453 -1403l-64 -31h-37l-153 485h-645l-154 -485h-37l-63 31zM516 1925q-87 0 -166 -117l-45 33q25 35 39 55q75 108 148 113q16 2 38 2q42 0 130 -70t139 -69q66 0 145 113l43 -29q-78 -170 -188 -170q-55 0 -115 43 q-23 16 -66 49q-62 47 -102 47z" glyph-name="Atilde" horiz-adv-x="1288" unicode="Ã"/><glyph d="M936 580l-238 759h-108l-238 -759h584zM520 1434h248l453 -1405l-64 -29h-37l-153 485h-645l-154 -485h-37l-63 29zM782 1909h107v-105h-107v105zM401 1909h107v-105h-107v105z" glyph-name="Adieresis" horiz-adv-x="1288" unicode="Ä"/><glyph d="M936 580l-238 759h-108l-238 -759h584zM520 1434h248l453 -1403l-64 -31h-37l-153 485h-645l-154 -485h-37l-63 31zM645 2009q-45 0 -77 -34t-32 -79q0 -44 32 -78t77 -34t77 34t32 78t-32 79q-32 34 -77 34zM645 2085q76 0 129 -54q53 -53 53 -133t-53 -135t-129 -55 t-129 55t-53 134t53 133t129 55z" glyph-name="Aring" horiz-adv-x="1288" unicode="Å"/><glyph d="M662 580v751h-68l-238 -751h306zM1483 1331h-713v-563h594v-102h-594v-414q0 -35 29 -64l61 -61q25 -25 66 -25h557v-61l-41 -41h-559q-33 0 -51 8t-44 33l-88 86q-39 41 -38 100v252h-338l-150 -479h-41l-67 31l452 1403h924l41 -41v-62z" glyph-name="AE" horiz-adv-x="1585" unicode="Æ"/><glyph d="M463 1434h385q33 0 51 -8t43 -33l139 -138l-73 -73l-134 131q-27 27 -67 26h-303q-41 0 -68 -26l-153 -154q-29 -29 -29 -65v-754q0 -37 29 -66l153 -153q27 -27 68 -27h303q41 0 67 27l134 131l73 -74l-139 -137q-25 -25 -43 -33t-51 -8h-242l-33 -63q20 6 68 6 q70 -8 108 -48q37 -40 37 -103q0 -64 -43 -106t-120 -42h-109v63h107q33 0 59 27q26 28 25 66q0 38 -26 60t-45 22t-40 -1q-21 0 -78 -28l-53 53l45 94h-45q-33 0 -51 8t-43 33l-179 178q-39 39 -38 96v803q0 57 38 96l179 179q25 25 43 33t51 8z" glyph-name="Ccedilla" horiz-adv-x="1200" unicode="Ç"/><glyph d="M373 1434h557l39 -39v-56h-555q-43 0 -70 -26l-61 -62q-27 -29 -27 -65v-422h592v-94h-592v-422q0 -37 27 -64l61 -61q29 -29 70 -29h555v-55l-39 -39h-557q-33 0 -51 8t-43 33l-89 86q-37 39 -36 96v987q0 57 36 97l89 86q25 25 43 33t51 8zM453 1933l69 64l213 -252 l-49 -47z" glyph-name="Egrave" horiz-adv-x="1075" unicode="È"/><glyph d="M373 1434h557l39 -39v-56h-555q-43 0 -70 -26l-61 -64q-27 -27 -27 -63v-422h592v-94h-592v-422q0 -37 27 -64l61 -61q29 -29 70 -29h555v-55l-39 -39h-557q-33 0 -51 8t-43 33l-89 86q-37 39 -36 96v987q0 57 36 97l89 86q25 25 43 33t51 8zM451 1745l215 252l69 -64 l-235 -235z" glyph-name="Eacute" horiz-adv-x="1075" unicode="É"/><glyph d="M373 1434h557l39 -39v-56h-555q-43 0 -70 -26l-61 -64q-27 -27 -27 -63v-422h592v-94h-592v-422q0 -37 27 -64l61 -61q29 -29 70 -29h555v-55l-39 -39h-557q-33 0 -51 8t-43 33l-89 86q-39 39 -38 96v987q0 57 38 97l89 86q25 25 43 33t51 8zM532 2011h123l224 -266 l-50 -47l-235 235l-236 -235l-51 47z" glyph-name="Ecircumflex" horiz-adv-x="1075" unicode="Ê"/><glyph d="M373 1434h557l39 -39v-56h-555q-43 0 -70 -26l-61 -64q-27 -27 -27 -63v-422h592v-94h-592v-422q0 -37 27 -64l61 -61q29 -29 70 -29h555v-55l-39 -39h-557q-33 0 -51 8t-43 33l-89 86q-37 39 -36 96v987q0 57 36 97l89 86q25 25 43 33t51 8zM731 1909h107v-105h-107v105 zM350 1909h107v-105h-107v105z" glyph-name="Edieresis" horiz-adv-x="1075" unicode="Ë"/><glyph d="M309 1434v-1434h-104v1395l39 39h65zM117 1933l69 64l215 -252l-51 -47z" glyph-name="Igrave" horiz-adv-x="512" unicode="Ì"/><glyph d="M309 1434v-1434h-104v1395l39 39h65zM115 1745l215 252l69 -64l-233 -235z" glyph-name="Iacute" horiz-adv-x="512" unicode="Í"/><glyph d="M309 1434v-1434h-104v1395l39 39h65zM197 2011h122l226 -266l-51 -47l-236 235l-235 -235l-50 47z" glyph-name="Icircumflex" horiz-adv-x="512" unicode="Î"/><glyph d="M309 1434v-1434h-104v1395l39 39h65zM395 1909h107v-105h-107v105zM14 1909h107v-105h-107v105z" glyph-name="Idieresis" horiz-adv-x="512" unicode="Ï"/><glyph d="M362 1331v-563h324v-102h-324v-564h498q41 0 68 25l153 154q27 27 27 61v750q0 34 -27 61l-153 154q-27 25 -68 24h-498zM903 1434q33 0 51 -8t45 -33l179 -179q41 -41 41 -100v-795q0 -59 -41 -100l-179 -178q-27 -25 -45 -33t-51 -8h-649v666h-186v102h186v625l41 41 h608z" glyph-name="Eth" horiz-adv-x="1361" unicode="Ð"/><glyph d="M1085 1434h103v-1395l-39 -39h-221l-555 1339h-90v-1339h-103v1395l39 39h217l561 -1340h88v1340zM555 1925q-87 0 -166 -117l-45 33q25 35 39 55q75 107 147 113q16 2 48 2t120 -70q88 -69 147 -69t138 113l43 -29q-78 -170 -188 -170q-55 0 -115 43q-23 16 -66 49 q-62 47 -102 47z" glyph-name="Ntilde" horiz-adv-x="1363" unicode="Ñ"/><glyph d="M502 1339q-41 0 -68 -26l-155 -154q-29 -29 -29 -65v-754q0 -37 29 -66l155 -153q27 -27 68 -27h356q41 0 68 27l155 153q29 29 29 66v754q0 36 -29 65l-155 154q-27 27 -68 26h-356zM461 1434h438q33 0 51 -8t43 -33l181 -179q39 -39 38 -96v-803q0 -57 -38 -96 l-181 -178q-25 -25 -43 -33t-51 -8h-438q-33 0 -51 8t-43 33l-181 178q-39 39 -39 96v803q0 57 39 96l181 179q25 25 43 33t51 8zM539 1933l69 64l215 -252l-51 -47z" glyph-name="Ograve" horiz-adv-x="1357" unicode="Ò"/><glyph d="M502 1339q-41 0 -68 -26l-155 -154q-29 -29 -29 -65v-754q0 -37 29 -66l155 -153q27 -27 68 -27h356q41 0 68 27l155 153q29 29 29 66v754q0 36 -29 65l-155 154q-27 27 -68 26h-356zM461 1434h438q33 0 51 -8t43 -33l181 -179q39 -39 38 -96v-803q0 -57 -38 -96 l-181 -178q-25 -25 -43 -33t-51 -8h-438q-33 0 -51 8t-43 33l-181 178q-39 39 -39 96v803q0 57 39 96l181 179q25 25 43 33t51 8zM537 1745l215 252l69 -64l-233 -235z" glyph-name="Oacute" horiz-adv-x="1357" unicode="Ó"/><glyph d="M502 1339q-41 0 -68 -26l-155 -154q-29 -29 -29 -65v-754q0 -37 29 -66l155 -153q27 -27 68 -27h356q41 0 68 27l155 153q29 29 29 66v754q0 36 -29 65l-155 154q-27 27 -68 26h-356zM461 1434h438q33 0 51 -8t43 -33l181 -179q39 -39 38 -96v-803q0 -57 -38 -96 l-181 -178q-25 -25 -43 -33t-51 -8h-438q-33 0 -51 8t-43 33l-181 178q-39 39 -39 96v803q0 57 39 96l181 179q25 25 43 33t51 8zM618 2011h123l226 -266l-52 -47l-235 235l-236 -235l-51 47z" glyph-name="Ocircumflex" horiz-adv-x="1357" unicode="Ô"/><glyph d="M502 1339q-41 0 -68 -26l-155 -154q-29 -29 -29 -65v-754q0 -37 29 -66l155 -153q27 -27 68 -27h356q41 0 68 27l155 153q29 29 29 66v754q0 36 -29 65l-155 154q-27 27 -68 26h-356zM461 1434h438q33 0 51 -8t43 -33l181 -179q39 -39 38 -96v-803q0 -57 -38 -96 l-181 -178q-25 -25 -43 -33t-51 -8h-438q-33 0 -51 8t-43 33l-181 178q-39 39 -39 96v803q0 57 39 96l181 179q25 25 43 33t51 8zM551 1925q-87 0 -166 -117l-45 33q25 35 39 55q75 107 147 113q16 2 48 2t120 -70q88 -69 147 -69t138 113l43 -29q-78 -170 -188 -170 q-55 0 -115 43q-23 16 -66 49q-62 47 -102 47z" glyph-name="Otilde" horiz-adv-x="1357" unicode="Õ"/><glyph d="M502 1339q-41 0 -68 -26l-155 -154q-29 -29 -29 -65v-754q0 -37 29 -66l155 -153q27 -27 68 -27h356q41 0 68 27l155 153q29 29 29 66v754q0 36 -29 65l-155 154q-27 27 -68 26h-356zM461 1434h438q33 0 51 -8t43 -33l181 -179q39 -39 38 -96v-803q0 -57 -38 -96 l-181 -178q-25 -25 -43 -33t-51 -8h-438q-33 0 -51 8t-43 33l-181 178q-39 39 -39 96v803q0 57 39 96l181 179q25 25 43 33t51 8zM817 1909h107v-105h-107v105zM436 1909h107v-105h-107v105z" glyph-name="Odieresis" horiz-adv-x="1357" unicode="Ö"/><glyph d="M467 670l283 280l69 -69l-282 -281l282 -283l-69 -69l-283 282l-281 -282l-69 69l280 283l-280 281l69 69z" glyph-name="multiply" horiz-adv-x="933" unicode="×"/><glyph d="M858 102q41 0 66 25l155 154q27 27 27 61v750q0 34 -27 61l-133 131q-10 10 -24 19l-394 -1201h330zM502 1331q-41 0 -66 -24l-155 -154q-27 -27 -27 -61v-750q0 -35 27 -61l135 -134q6 -6 14 -12l393 1196h-321zM1214 319q0 -59 -38 -100l-181 -178q-25 -25 -44 -33 t-52 -8h-405l-33 -102h-109l41 120q-18 12 -37 31l-172 170q-39 41 -39 100v795q0 59 39 100l181 179q25 25 44 33t52 8h395l35 102h106l-39 -119q20 -8 50 -35l168 -168q39 -41 38 -100v-795z" glyph-name="Oslash" horiz-adv-x="1357" unicode="Ø"/><glyph d="M1163 1434v-1211q0 -57 -39 -96l-86 -86q-25 -25 -43 -33t-51 -8h-534q-34 0 -52 8t-43 33l-86 86q-39 39 -39 96v1172l39 39h64v-1186q0 -37 29 -64l61 -61q27 -29 68 -29h452q41 0 68 29l61 61q29 27 29 64v1147l39 39h63zM530 1933l70 64l215 -252l-51 -47z" glyph-name="Ugrave" horiz-adv-x="1341" unicode="Ù"/><glyph d="M1163 1434v-1211q0 -57 -39 -96l-86 -86q-25 -25 -43 -33t-51 -8h-534q-34 0 -52 8t-43 33l-86 86q-39 39 -39 96v1172l39 39h64v-1186q0 -37 29 -64l61 -63q27 -27 68 -27h452q41 0 68 27l61 63q29 27 29 64v1147l39 39h63zM528 1745l215 252l70 -64l-233 -235z" glyph-name="Uacute" horiz-adv-x="1341" unicode="Ú"/><glyph d="M1163 1434v-1211q0 -57 -39 -96l-86 -86q-25 -25 -43 -33t-51 -8h-534q-34 0 -52 8t-43 33l-86 86q-39 39 -39 96v1172l39 39h64v-1186q0 -37 29 -64l61 -63q27 -27 68 -27h452q41 0 68 27l61 63q29 27 29 64v1147l39 39h63zM610 2011h123l223 -266l-49 -47l-235 235 l-236 -235l-51 47z" glyph-name="Ucircumflex" horiz-adv-x="1341" unicode="Û"/><glyph d="M1163 1434v-1211q0 -57 -39 -96l-86 -86q-25 -25 -43 -33t-51 -8h-534q-34 0 -52 8t-43 33l-86 86q-39 39 -39 96v1172l39 39h64v-1186q0 -37 29 -64l61 -63q27 -27 68 -27h452q41 0 68 27l61 63q29 27 29 64v1147l39 39h63zM809 1909h106v-105h-106v105zM428 1909h107 v-105h-107v105z" glyph-name="Udieresis" horiz-adv-x="1341" unicode="Ü"/><glyph d="M649 526v-526h-102v526h-90l-383 879l61 29h41l340 -811h164l340 811h41l61 -29l-383 -879h-90zM455 1745l215 252l69 -64l-233 -235z" glyph-name="Yacute" horiz-adv-x="1193" unicode="Ý"/><glyph d="M299 1079v-602h514q39 0 66 27l61 61q27 27 27 62v303q0 34 -27 61l-61 62q-27 27 -66 26h-514zM188 1434h111v-252h555q33 0 52 -8t44 -33l86 -88q41 -39 41 -99v-352q0 -59 -41 -100l-86 -86q-25 -25 -44 -33t-52 -8h-555v-375h-111v1434z" glyph-name="Thorn" horiz-adv-x="1228" unicode="Þ"/><glyph d="M416 1434h338q33 0 52 -8t44 -33l88 -88q39 -39 39 -99v-239q0 -59 -39 -99l-80 -80l90 -90q39 -41 39 -100v-371q0 -59 -39 -98l-88 -88q-25 -25 -44 -33t-52 -8h-281v86h252q41 0 66 27l61 59q27 29 27 64v354q0 35 -27 63l-61 62q-27 27 -66 24h-252v86h248 q35 2 60 27l61 61q27 27 27 62v223q0 35 -27 64l-61 59q-25 27 -66 27h-281q-41 0 -65 -27l-62 -59q-27 -29 -26 -64v-1198h-98v1206q0 59 38 99l88 88q25 25 45 33t52 8z" glyph-name="germandbls" horiz-adv-x="1228" unicode="ß"/><glyph d="M778 508h-407q-41 0 -68 -25l-76 -75q-27 -27 -26 -64v-106q0 -35 26 -64l64 -63q27 -27 67 -27h146q31 0 55 12l219 105v307zM639 1024q33 0 52 -8t44 -33l99 -98q41 -41 40 -101v-784h-86l-18 100l-162 -75q-51 -25 -104 -25h-174q-34 0 -54 8t-45 33l-88 90 q-39 39 -39 100v121q0 59 39 101l101 98q25 27 44 35t54 8h436v182q0 37 -28 64l-72 73q-27 27 -68 27h-446v57l29 27h446zM362 1524l72 65l213 -254l-49 -45z" glyph-name="agrave" horiz-adv-x="987" unicode="à"/><glyph d="M778 508h-407q-41 0 -68 -25l-76 -75q-27 -27 -26 -64v-106q0 -35 26 -64l64 -63q27 -27 67 -27h146q31 0 55 12l219 105v307zM639 1024q33 0 52 -8t44 -33l99 -98q41 -41 40 -101v-784h-86l-18 100l-162 -75q-51 -25 -104 -25h-174q-34 0 -54 8t-45 33l-88 90 q-39 39 -39 98v123q0 59 39 101l101 98q25 27 44 35t54 8h436v182q0 37 -28 64l-72 73q-27 27 -68 27h-446v57l29 27h446zM362 1335l213 254l72 -65l-235 -234z" glyph-name="aacute" horiz-adv-x="987" unicode="á"/><glyph d="M778 508h-407q-41 0 -68 -25l-76 -75q-27 -27 -26 -64v-106q0 -35 26 -64l64 -63q27 -27 67 -27h146q31 0 55 12l219 105v307zM639 1024q33 0 52 -8t44 -33l99 -98q41 -41 40 -101v-784h-86l-18 100l-162 -75q-51 -25 -104 -25h-174q-34 0 -54 8t-45 33l-88 90 q-41 39 -41 98v123q0 59 41 101l101 98q25 27 44 35t54 8h436v182q0 37 -28 64l-72 73q-27 27 -68 27h-446v57l29 27h446zM442 1602h123l226 -267l-50 -45l-237 236l-236 -236l-49 45z" glyph-name="acircumflex" horiz-adv-x="987" unicode="â"/><glyph d="M778 508h-407q-41 0 -68 -25l-76 -75q-27 -27 -26 -64v-106q0 -35 26 -64l64 -63q27 -27 67 -27h146q31 0 55 12l219 105v307zM639 1024q33 0 52 -8t44 -33l99 -98q41 -41 40 -101v-784h-86l-18 100l-160 -75q-53 -25 -106 -25h-174q-36 0 -54 8t-45 33l-88 90 q-39 39 -39 98v123q0 59 39 101l101 98q25 27 44 35t54 8h436v182q0 37 -28 64l-72 73q-27 27 -68 27h-446v57l29 27h446zM388 1602q46 0 132 -69t144 -69t141 111l41 -29q-78 -168 -189 -168q-53 0 -95 28t-73 53q-31 24 -55 41t-57 18q-86 0 -166 -117l-47 31 q88 123 124 145q36 21 57 23t43 2z" glyph-name="atilde" horiz-adv-x="987" unicode="ã"/><glyph d="M778 508h-407q-41 0 -68 -25l-76 -75q-27 -27 -26 -64v-106q0 -35 26 -64l64 -63q27 -27 67 -27h146q31 0 55 12l219 105v307zM639 1024q33 0 52 -8t44 -33l99 -98q41 -41 40 -101v-784h-86l-18 100l-162 -75q-51 -25 -104 -25h-174q-34 0 -54 8t-45 33l-88 90 q-39 39 -39 98v123q0 59 39 101l101 98q25 27 44 35t54 8h436v182q0 37 -28 64l-72 73q-27 27 -68 27h-446v57l29 27h446zM641 1499h109v-104h-109v104zM260 1499h107v-104h-107v104z" glyph-name="adieresis" horiz-adv-x="987" unicode="ä"/><glyph d="M778 508h-407q-41 0 -68 -25l-76 -75q-27 -27 -26 -64v-106q0 -35 26 -64l64 -63q27 -27 67 -27h146q31 0 55 12l219 105v307zM639 1024q33 0 52 -8t44 -33l99 -98q41 -41 40 -101v-784h-86l-18 100l-160 -75q-53 -25 -106 -25h-174q-36 0 -54 8t-45 33l-88 90 q-39 39 -39 98v123q0 59 39 101l101 98q25 27 44 35t54 8h436v182q0 37 -28 64l-72 73q-27 27 -68 27h-446v57l29 27h446zM505 1602q-46 0 -77 -35t-31 -79t31 -79t77 -35t77 35t30 79q0 44 -30 79q-31 35 -77 35zM504 1675q76 0 130 -54t54 -133t-54 -133q-54 -55 -130 -55 t-129 54t-53 134q0 79 53 133t129 54z" glyph-name="aring" horiz-adv-x="987" unicode="å"/><glyph d="M778 508h-407q-41 0 -68 -27l-76 -73q-27 -27 -26 -64v-106q0 -35 26 -64l64 -63q27 -27 67 -27h146q31 0 55 12l219 105v307zM1294 940h-256q-43 0 -69 -27l-62 -63q-29 -29 -28 -64v-219h573v219q0 35 -29 64l-61 63q-27 27 -68 27zM1008 1024h315q33 0 52 -8t44 -33 l88 -90q41 -39 41 -100v-283l-28 -27h-641v-245q0 -35 28 -64l62 -63q27 -27 67 -27h258q41 0 68 27l41 43l63 -66l-47 -47q-25 -25 -44 -33t-52 -8h-313q-43 0 -78 33l-58 57v-90h-86l-18 100l-162 -75q-51 -25 -104 -25h-174q-34 0 -54 8t-45 33l-88 90q-39 39 -39 98v123 q0 59 39 101l101 98q25 27 44 35t54 8h436v182q0 37 -28 64l-72 73q-27 27 -68 27h-446v57l29 27h446q33 0 52 -8t44 -33l82 -82q5 -5 14 0l80 82q25 25 45 33t52 8z" glyph-name="ae" horiz-adv-x="1658" unicode="æ"/><glyph d="M332 1024h342q33 0 52 -8t44 -33l47 -47l-63 -64l-41 41q-27 27 -68 27h-285q-41 0 -67 -27l-62 -63q-29 -27 -28 -64v-548q0 -35 28 -64l62 -63q27 -27 67 -27h285q41 0 68 27l41 43l63 -66l-45 -47q-27 -25 -46 -33t-52 -8h-225l-27 -51q25 4 42 4h25q70 -8 108 -47 t38 -102q0 -62 -43 -106t-119 -44h-111v65h107q33 0 59 26q26 25 25 65q0 40 -27 62t-61 22q-35 0 -98 -29l-56 53l39 82h-26q-52 4 -88 41l-91 90q-39 39 -39 98v566q0 59 39 98l91 90q25 25 44 33t52 8z" glyph-name="ccedilla" horiz-adv-x="909" unicode="ç"/><glyph d="M614 940h-256q-41 0 -67 -27l-64 -63q-27 -29 -26 -64v-219h571v219q0 35 -27 64l-63 63q-27 27 -68 27zM330 1024h313q33 0 52 -8t46 -33l88 -90q39 -39 39 -98v-285l-26 -27h-641v-245q0 -35 26 -64l64 -63q27 -27 67 -27h256q41 0 68 27l41 43l65 -66l-47 -47 q-27 -25 -46 -33t-52 -8h-313q-36 0 -54 8t-45 33l-88 90q-39 39 -39 98v566q0 59 39 98l88 90q27 25 45 33t54 8zM340 1524l70 65l215 -254l-52 -45z" glyph-name="egrave" horiz-adv-x="958" unicode="è"/><glyph d="M614 940h-256q-41 0 -67 -27l-64 -63q-27 -29 -26 -64v-219h571v219q0 35 -27 64l-63 63q-27 27 -68 27zM330 1024h313q33 0 52 -8t46 -33l88 -90q39 -39 39 -98v-285l-26 -27h-641v-245q0 -35 26 -64l64 -63q27 -27 67 -27h256q41 0 68 27l41 43l65 -66l-47 -47 q-27 -25 -46 -33t-52 -8h-313q-36 0 -54 8t-45 33l-88 90q-39 39 -39 98v566q0 59 39 98l88 90q27 25 45 33t54 8zM338 1335l215 254l70 -65l-234 -234z" glyph-name="eacute" horiz-adv-x="958" unicode="é"/><glyph d="M614 940h-256q-41 0 -67 -27l-64 -63q-27 -29 -26 -64v-219h571v219q0 35 -27 64l-63 63q-27 27 -68 27zM330 1024h313q33 0 52 -8t46 -33l88 -90q39 -39 39 -98v-285l-26 -27h-641v-245q0 -35 26 -64l64 -63q27 -27 67 -27h256q41 0 68 27l41 43l65 -66l-47 -47 q-27 -25 -46 -33t-52 -8h-313q-36 0 -54 8t-45 33l-88 90q-39 39 -39 98v566q0 59 39 98l88 90q27 25 45 33t54 8zM420 1602h123l223 -267l-49 -45l-236 236l-235 -236l-51 45z" glyph-name="ecircumflex" horiz-adv-x="958" unicode="ê"/><glyph d="M614 940h-256q-41 0 -67 -27l-64 -63q-27 -29 -26 -64v-219h571v219q0 35 -27 64l-63 63q-27 27 -68 27zM330 1024h313q33 0 52 -8t46 -33l88 -90q39 -39 39 -98v-285l-26 -27h-641v-245q0 -35 26 -64l64 -63q27 -27 67 -27h256q41 0 68 27l41 43l65 -66l-47 -47 q-27 -25 -46 -33t-52 -8h-313q-36 0 -54 8t-45 33l-88 90q-39 39 -39 98v566q0 59 39 98l88 90q27 25 45 33t54 8zM618 1499h107v-104h-107v104zM238 1499h106v-104h-106v104z" glyph-name="edieresis" horiz-adv-x="958" unicode="ë"/><glyph d="M160 1024h96v-1024h-96v1024zM51 1485l72 65l213 -254l-49 -45z" glyph-name="igrave" horiz-adv-x="403" unicode="ì"/><glyph d="M160 1024h96v-1024h-96v1024zM51 1296l213 254l72 -65l-236 -234z" glyph-name="iacute" horiz-adv-x="403" unicode="í"/><glyph d="M160 1024h96v-1024h-96v1024zM131 1563h123l225 -267l-49 -45l-237 236l-236 -236l-49 45z" glyph-name="icircumflex" horiz-adv-x="403" unicode="î"/><glyph d="M160 1024h96v-1024h-96v1024zM330 1460h108v-104h-108v104zM-51 1460h106v-104h-106v104z" glyph-name="idieresis" horiz-adv-x="403" unicode="ï"/><glyph d="M430 770h-82q-41 0 -65 -22l-62 -62q-27 -27 -26 -57v-400q0 -31 26 -57l62 -61q23 -23 65 -23h262q43 0 66 23l61 61q27 27 27 57v398l-281 133q-23 10 -53 10zM279 1434h360q33 0 52 -8t44 -33l76 -76q18 -18 27 -31l125 96l36 -47l-139 -106q2 -10 2 -23v-970 q0 -66 -39 -105l-88 -88q-27 -27 -45 -35t-51 -8h-320q-33 0 -51 8t-45 35l-88 88q-39 39 -39 105v385q0 66 39 104l88 88q27 27 45 35t51 8h115q47 0 92 -20l238 -111v430l-148 -113l-36 45l178 138q-8 25 -25 41l-57 55q-25 27 -66 27h-301q-41 0 -67 -27l-41 -41l-66 66 l47 47q24 25 44 33t53 8z" glyph-name="eth" horiz-adv-x="1085" unicode="ð"/><glyph d="M567 1024h125q33 0 52 -8t44 -33l89 -90q41 -39 41 -98v-795h-99v786q0 35 -26 64l-64 63q-27 25 -67 25h-89q-31 0 -55 -10l-289 -135v-793h-96v1024h82l23 -131l237 111q45 20 92 20zM330 1454q-87 0 -166 -115l-45 31q25 35 39 55q75 107 142 113q21 2 53 2t120 -69 q89 -69 147 -69t138 111l43 -28q-78 -168 -189 -168q-55 1 -96 29t-73 52l-44 33q-31 23 -69 23z" glyph-name="ntilde" unicode="ñ"/><glyph d="M641 940h-283q-41 0 -67 -27l-64 -63q-29 -29 -28 -64v-548q0 -35 28 -64l64 -63q25 -27 67 -27h283q41 0 68 27l63 63q29 29 29 64v548q0 35 -29 64l-63 63q-27 27 -68 27zM328 1024h344q33 0 52 -8t44 -33l88 -90q41 -39 41 -98v-566q0 -59 -41 -98l-88 -90 q-25 -25 -44 -33t-52 -8h-344q-32 0 -52 8t-45 33l-88 90q-41 39 -41 98v566q0 59 41 98l88 90q25 25 45 33t52 8zM358 1524l70 65l215 -254l-51 -45z" glyph-name="ograve" horiz-adv-x="995" unicode="ò"/><glyph d="M641 940h-283q-41 0 -67 -27l-64 -63q-29 -29 -28 -64v-548q0 -35 28 -64l64 -63q25 -27 67 -27h283q41 0 68 27l63 63q29 29 29 64v548q0 35 -29 64l-63 63q-27 27 -68 27zM328 1024h344q33 0 52 -8t44 -33l88 -90q41 -39 41 -98v-566q0 -59 -41 -98l-88 -90 q-25 -25 -44 -33t-52 -8h-344q-32 0 -52 8t-45 33l-88 90q-41 39 -41 98v566q0 59 41 98l88 90q25 25 45 33t52 8zM356 1335l215 254l70 -65l-233 -234z" glyph-name="oacute" horiz-adv-x="995" unicode="ó"/><glyph d="M641 940h-283q-43 0 -67 -27l-64 -63q-29 -29 -28 -64v-548q0 -35 28 -64l64 -63q25 -27 67 -27h283q41 0 68 27l63 63q29 29 29 64v548q0 35 -29 64l-63 63q-27 27 -68 27zM328 1024h344q33 0 52 -8t44 -33l88 -90q41 -39 41 -98v-566q0 -59 -41 -98l-88 -90 q-25 -25 -44 -33t-52 -8h-344q-32 0 -52 8t-45 33l-88 90q-41 39 -41 98v566q0 59 41 98l88 90q25 25 45 33t52 8zM438 1602h123l225 -267l-51 -45l-235 236l-236 -236l-51 45z" glyph-name="ocircumflex" horiz-adv-x="995" unicode="ô"/><glyph d="M641 940h-283q-41 0 -67 -27l-64 -63q-29 -29 -28 -64v-548q0 -35 28 -64l64 -63q25 -27 67 -27h283q41 0 68 27l63 63q29 29 29 64v548q0 35 -29 64l-63 63q-25 27 -68 27zM328 1024h344q33 0 52 -8t44 -33l88 -90q41 -39 41 -98v-564q0 -61 -41 -100l-88 -90 q-25 -25 -44 -33t-52 -8h-344q-32 0 -52 8t-45 33l-88 90q-41 39 -41 100v564q0 59 41 98l88 90q25 25 45 33t52 8zM373 1602q33 0 61 -14t98 -68q70 -56 128 -56t139 111l43 -29q-78 -168 -189 -168q-55 0 -96 28t-73 53l-44 33q-32 24 -69 26q-86 0 -166 -117l-45 31 q106 161 186 170h27z" glyph-name="otilde" horiz-adv-x="995" unicode="õ"/><glyph d="M641 940h-283q-41 0 -67 -27l-64 -63q-29 -29 -28 -64v-548q0 -35 28 -64l64 -63q25 -27 67 -27h283q41 0 68 27l63 63q29 29 29 64v548q0 35 -29 64l-63 63q-27 27 -68 27zM328 1024h344q33 0 52 -8t44 -33l88 -90q41 -39 41 -98v-566q0 -59 -41 -98l-88 -90 q-25 -25 -44 -33t-52 -8h-344q-32 0 -52 8t-45 33l-88 90q-41 39 -41 98v566q0 59 41 98l88 90q25 25 45 33t52 8zM637 1499h106v-104h-106v104zM256 1499h106v-104h-106v104z" glyph-name="odieresis" horiz-adv-x="995" unicode="ö"/><glyph d="M471 295h143v-148h-143v148zM98 651h891v-104h-891v104zM471 1051h143v-148h-143v148z" glyph-name="divide" horiz-adv-x="1083" unicode="÷"/><glyph d="M641 84q41 0 68 27l63 63q29 29 29 64v548q0 35 -29 64l-63 63q-10 10 -27 17l-279 -846h238zM358 940q-43 0 -67 -27l-64 -63q-29 -29 -28 -64v-548q0 -35 28 -64l64 -63q10 -11 26 -17l277 846h-236zM897 795v-566q0 -59 -41 -98l-88 -90q-25 -25 -44 -33t-52 -8h-295 l-35 -104h-90l35 108q-25 8 -56 37l-88 90q-41 39 -41 98v566q0 59 41 98l88 90q25 25 44 33t53 8h295l34 104h91l-37 -108q27 -6 57 -37l88 -90q41 -39 41 -98z" glyph-name="oslash" horiz-adv-x="995" unicode="ø"/><glyph d="M809 1024h98v-1024h-82l-22 131l-238 -111q-45 -20 -92 -20h-125q-33 0 -52 8t-44 33l-88 90q-41 39 -41 98v795h96v-786q0 -35 29 -64l63 -63q25 -25 68 -25h88q31 0 55 10l287 135v793zM373 1524l69 65l215 -254l-51 -45z" glyph-name="ugrave" horiz-adv-x="1026" unicode="ù"/><glyph d="M809 1024h98v-1024h-82l-22 131l-238 -111q-45 -20 -92 -20h-125q-33 0 -52 8t-44 33l-88 90q-41 39 -41 98v795h96v-786q0 -35 29 -64l63 -63q25 -25 68 -25h88q31 0 55 10l287 135v793zM371 1335l215 254l69 -65l-233 -234z" glyph-name="uacute" horiz-adv-x="1026" unicode="ú"/><glyph d="M809 1024h98v-1024h-82l-22 131l-238 -111q-45 -20 -92 -20h-125q-33 0 -52 8t-44 33l-88 90q-41 39 -41 98v795h96v-786q0 -35 29 -64l63 -63q25 -25 68 -25h88q31 0 55 10l287 135v793zM453 1602h122l226 -267l-51 -45l-236 236l-235 -236l-52 45z" glyph-name="ucircumflex" horiz-adv-x="1026" unicode="û"/><glyph d="M809 1024h98v-1024h-82l-22 131l-238 -111q-45 -20 -92 -20h-125q-33 0 -52 8t-44 33l-88 90q-41 39 -41 98v795h96v-786q0 -35 29 -64l63 -63q25 -25 68 -25h88q31 0 55 10l287 135v793zM651 1499h107v-104h-107v104zM270 1499h107v-104h-107v104z" glyph-name="udieresis" horiz-adv-x="1026" unicode="ü"/><glyph d="M858 1024h55l39 -18l-354 -1033q-2 -3 -12 -33t-16 -42t-22 -46q-14 -34 -28 -54t-36 -51q-22 -32 -46 -52t-65 -50q-40 -30 -137 -57l-15 80q174 43 254 246l29 86h-103l-346 1006l37 18h58l317 -940h72zM360 1352l215 252l70 -64l-233 -235z" glyph-name="yacute" horiz-adv-x="1005" unicode="ý"/><glyph d="M666 940h-82q-31 0 -56 -12l-286 -135v-709h424q41 0 67 27l64 63q27 27 26 64v548q1 37 -26 66l-64 61q-27 27 -67 27zM143 1434h99v-543l243 113q45 20 93 20h116q34 0 54 -8t45 -33l88 -88q41 -41 41 -100v-566q0 -59 -41 -100l-88 -88q-25 -25 -44 -33t-55 -8h-452 v-340l-29 -29h-70v1803z" glyph-name="thorn" horiz-adv-x="1185" unicode="þ"/><glyph d="M858 1024h55l39 -18l-354 -1033q-2 -3 -12 -33t-16 -42t-21 -46t-29 -54t-36 -51q-22 -32 -46 -52t-65 -50q-40 -30 -137 -57l-15 80q174 43 254 246l29 86h-103l-346 1006l37 18h58l317 -940h72zM641 1513h107v-102h-107v102zM260 1513h107v-102h-107v102z" glyph-name="ydieresis" horiz-adv-x="1005" unicode="ÿ"/><glyph d="M936 580l-238 759h-108l-238 -759h584zM520 1434h248l453 -1405l-64 -29h-37l-153 485h-645l-154 -485h-37l-63 29zM389 1962h512v-88h-512v88z" glyph-name="Amacron" horiz-adv-x="1288" unicode="Ā"/><glyph d="M778 508h-407q-41 0 -68 -25l-76 -75q-27 -27 -26 -64v-106q0 -35 26 -64l64 -63q27 -27 67 -27h146q31 0 55 12l219 105v307zM639 1024q33 0 52 -8t44 -33l99 -98q41 -41 40 -101v-784h-86l-18 100l-160 -75q-53 -25 -106 -25h-174q-34 0 -54 8t-45 33l-88 90 q-39 39 -39 98v123q0 59 39 101l101 98q25 27 44 35t54 8h436v182q0 37 -28 64l-72 73q-27 27 -68 27h-446v57l29 27h446zM248 1552h512v-88h-512v88z" glyph-name="amacron" horiz-adv-x="987" unicode="ā"/><glyph d="M936 580l-238 759h-108l-238 -759h584zM520 1434h248l453 -1403l-64 -31h-37l-153 485h-645l-154 -485h-37l-63 31zM645 1853q74 0 134 35t93 92l62 -28q-39 -84 -117 -134t-172 -50t-172 50q-78 52 -117 134l62 28q33 -57 93 -92t134 -35z" glyph-name="Abreve" horiz-adv-x="1288" unicode="Ă"/><glyph d="M778 508h-407q-41 0 -68 -25l-76 -75q-27 -27 -26 -64v-106q0 -35 26 -64l64 -63q27 -27 67 -27h146q31 0 55 12l219 105v307zM639 1024q33 0 52 -8t44 -33l99 -98q41 -41 40 -101v-784h-86l-18 100l-162 -75q-51 -25 -104 -25h-174q-34 0 -54 8t-45 33l-88 90 q-39 39 -39 100v121q0 59 39 101l101 98q25 27 44 35t54 8h436v182q0 37 -28 64l-72 73q-27 27 -68 27h-446v57l29 27h446zM505 1446q73 0 134 34t92 93l64 -31q-41 -82 -119 -132t-171 -50t-172 50t-118 134l64 29q31 -57 92 -92t134 -35z" glyph-name="abreve" horiz-adv-x="987" unicode="ă"/><glyph d="M936 580l-238 759h-108l-238 -759h584zM1090 -158q0 -102 110 -102h98v-86h-120q-82 0 -129 48t-48 118q0 104 119 180l-153 485h-645l-154 -485h-37l-63 31l452 1403h248l453 -1403l-47 -31q-84 -76 -84 -158z" glyph-name="Aogonek" horiz-adv-x="1288" unicode="Ą"/><glyph d="M778 508h-407q-41 0 -68 -27l-76 -73q-27 -27 -26 -64v-106q0 -35 26 -64l64 -63q27 -27 67 -27h146q31 0 55 12l219 105v307zM639 1024q33 0 52 -8t44 -33l99 -98q41 -41 40 -101v-784h-22q-86 -78 -86 -146t36 -89t72 -21h101v-86h-121q-82 0 -129 48t-47 116 q0 121 110 178l-18 100l-162 -75q-51 -25 -104 -25h-174q-34 0 -54 8t-45 33l-88 90q-39 39 -39 98v123q0 59 39 101l101 98q25 27 44 35t54 8h436v182q0 37 -28 64l-72 73q-27 27 -68 27h-446v57l29 27h446z" glyph-name="aogonek" horiz-adv-x="987" unicode="ą"/><glyph d="M463 1434h385q33 0 51 -8t43 -33l139 -138l-73 -73l-134 131q-27 27 -67 26h-303q-41 0 -68 -26l-153 -154q-29 -29 -29 -65v-754q0 -37 29 -66l153 -153q27 -27 68 -27h303q41 0 67 27l134 131l73 -74l-139 -137q-25 -25 -43 -33t-51 -8h-385q-33 0 -51 8t-43 33 l-179 178q-39 39 -38 96v803q0 57 38 96l179 179q25 25 43 33t51 8zM457 1733l215 252l69 -64l-233 -235z" glyph-name="Cacute" horiz-adv-x="1200" unicode="Ć"/><glyph d="M332 1024h342q33 0 52 -8t44 -33l47 -47l-63 -64l-41 41q-27 27 -68 27h-285q-41 0 -67 -27l-62 -63q-29 -29 -28 -64v-548q0 -35 28 -64l62 -63q27 -27 67 -27h285q41 0 68 27l41 41l63 -64l-45 -47q-27 -25 -46 -33t-52 -8h-342q-33 0 -52 8t-44 33l-91 90 q-39 39 -39 98v564q0 61 39 100l91 90q25 25 44 33t52 8zM313 1325l213 252l72 -64l-236 -235z" glyph-name="cacute" horiz-adv-x="909" unicode="ć"/><glyph d="M463 1434h385q33 0 51 -8t43 -33l139 -138l-73 -73l-134 131q-27 27 -67 26h-303q-41 0 -68 -26l-153 -154q-29 -29 -29 -65v-754q0 -37 29 -66l153 -153q27 -27 68 -27h303q41 0 67 27l134 131l73 -74l-139 -137q-25 -25 -43 -33t-51 -8h-385q-33 0 -51 8t-43 33 l-179 178q-39 39 -38 96v803q0 57 38 96l179 179q25 25 43 33t51 8zM547 1894h106v-102h-106v102z" glyph-name="Cdotaccent" horiz-adv-x="1200" unicode="Ċ"/><glyph d="M332 1024h342q33 0 52 -8t44 -33l47 -47l-63 -64l-41 41q-27 27 -68 27h-285q-41 0 -67 -27l-62 -63q-29 -29 -28 -64v-548q0 -35 28 -64l62 -63q27 -27 67 -27h285q41 0 68 27l41 43l63 -66l-45 -47q-27 -25 -46 -33t-52 -8h-342q-33 0 -52 8t-44 33l-91 90 q-39 39 -39 98v566q0 59 39 98l91 90q25 25 44 33t52 8zM401 1487h107v-103h-107v103z" glyph-name="cdotaccent" horiz-adv-x="909" unicode="ċ"/><glyph d="M463 1434h385q33 0 51 -8t43 -33l139 -138l-73 -73l-134 131q-27 27 -67 26h-303q-41 0 -68 -26l-153 -154q-29 -29 -29 -65v-754q0 -37 29 -66l153 -153q27 -27 68 -27h303q41 0 67 27l134 131l73 -74l-139 -137q-25 -25 -43 -33t-51 -8h-385q-33 0 -51 8t-43 33 l-179 178q-39 39 -38 96v803q0 57 38 96l179 179q25 25 43 33t51 8zM600 1751l236 236l51 -45l-225 -267h-123l-224 267l50 45z" glyph-name="Ccaron" horiz-adv-x="1200" unicode="Č"/><glyph d="M332 1024h342q33 0 52 -8t46 -33l45 -47l-63 -64l-41 41q-27 27 -68 27h-285q-41 0 -67 -27l-62 -63q-29 -29 -28 -64v-548q0 -35 28 -64l62 -63q27 -27 67 -27h285q41 0 68 27l41 41l63 -64l-45 -47q-27 -25 -46 -33t-52 -8h-342q-33 0 -52 8t-44 33l-91 90 q-39 39 -39 98v566q0 59 39 98l91 90q25 25 44 33t52 8zM455 1343l237 236l49 -45l-225 -266h-123l-223 266l49 45z" glyph-name="ccaron" horiz-adv-x="909" unicode="č"/><glyph d="M293 1339v-1245h502q41 0 67 27l156 153q29 29 29 66v754q0 36 -29 65l-156 154q-27 27 -67 26h-502zM836 1434q33 0 51 -8t43 -33l180 -179q39 -39 39 -96v-803q0 -57 -39 -96l-180 -178q-25 -25 -43 -33t-51 -8h-646v1395l39 39h607zM649 1724l236 236l51 -45 l-225 -266h-123l-226 266l52 45z" glyph-name="Dcaron" horiz-adv-x="1296" unicode="Ď"/><glyph d="M778 938h-407q-41 0 -68 -27l-76 -73q-27 -27 -26 -64v-536q0 -37 26 -64l64 -63q27 -27 67 -27h146q31 0 55 12l219 103v739zM778 1468h70l26 -26v-1442h-86l-18 100l-162 -75q-49 -25 -104 -25h-174q-36 0 -54 8t-45 33l-88 88q-41 41 -41 100v553q0 59 41 101l101 98 q25 27 44 35t54 8h436v444zM1008 1468h143v-110q0 -57 -25 -107l-47 -100h-84l78 166h-65v151z" glyph-name="dcaron" horiz-adv-x="1196" unicode="ď"/><glyph d="M1114 340v754q0 37 -29 65l-153 154q-27 27 -68 26h-502v-579h216v-86h-216v-580h502q41 0 68 27l153 153q29 29 29 66zM1217 1118v-803q0 -57 -39 -96l-179 -178q-25 -25 -43 -33t-51 -8h-645v674h-194v86h194v635l39 39h606q33 0 51 -8t43 -33l179 -179q39 -39 39 -96z " glyph-name="Dcroat" horiz-adv-x="1363" unicode="Đ"/><glyph d="M778 938h-407q-41 0 -68 -27l-76 -73q-27 -27 -26 -64v-536q0 -37 26 -64l64 -63q27 -27 67 -27h146q31 0 55 12l219 103v739zM1040 1262v-78h-166v-1184h-86l-18 100l-162 -75q-49 -25 -104 -25h-174q-36 0 -54 8t-45 33l-88 88q-41 41 -41 100v553q0 59 41 101l101 98 q25 27 44 35t54 8h436v160h-250v78h250v206h70l26 -26v-180h166z" glyph-name="dcroat" horiz-adv-x="1077" unicode="đ"/><glyph d="M373 1434h557l39 -39v-56h-555q-43 0 -70 -26l-61 -64q-27 -27 -27 -63v-422h592v-94h-592v-422q0 -37 27 -64l61 -61q29 -29 70 -29h555v-55l-39 -39h-557q-33 0 -51 8t-43 33l-89 86q-37 39 -36 96v987q0 57 36 97l89 86q25 25 43 33t51 8zM338 1962h512v-88h-512v88z " glyph-name="Emacron" horiz-adv-x="1075" unicode="Ē"/><glyph d="M614 940h-256q-41 0 -67 -27l-64 -63q-27 -29 -26 -64v-219h571v219q0 35 -27 64l-63 63q-27 27 -68 27zM330 1024h313q33 0 52 -8t46 -33l88 -90q39 -39 39 -98v-285l-26 -27h-641v-245q0 -35 26 -64l64 -63q27 -27 67 -27h256q41 0 68 27l41 43l65 -66l-47 -47 q-27 -25 -46 -33t-52 -8h-313q-36 0 -54 8t-45 33l-88 90q-39 39 -39 98v566q0 59 39 98l88 90q27 25 45 33t54 8zM225 1552h512v-88h-512v88z" glyph-name="emacron" horiz-adv-x="958" unicode="ē"/><glyph d="M373 1434h557l39 -39v-56h-555q-43 0 -70 -26l-61 -64q-27 -27 -27 -63v-422h592v-94h-592v-422q0 -37 27 -64l61 -61q29 -29 70 -29h555v-55l-39 -39h-557q-33 0 -51 8t-43 33l-89 86q-37 39 -36 96v987q0 57 36 97l89 86q25 25 43 33t51 8zM541 1909h106v-105h-106v105 z" glyph-name="Edotaccent" horiz-adv-x="1075" unicode="Ė"/><glyph d="M614 940h-256q-41 0 -67 -27l-64 -63q-27 -29 -26 -64v-219h571v219q0 35 -27 64l-63 63q-27 27 -68 27zM330 1024h313q33 0 52 -8t46 -33l88 -90q39 -39 39 -98v-285l-26 -27h-641v-245q0 -35 26 -64l64 -63q27 -27 67 -27h256q41 0 68 27l41 43l65 -66l-47 -47 q-27 -25 -46 -33t-52 -8h-313q-36 0 -54 8t-45 33l-88 90q-39 39 -39 98v566q0 59 39 98l88 90q27 25 45 33t54 8zM428 1499h107v-104h-107v104z" glyph-name="edotaccent" horiz-adv-x="958" unicode="ė"/><glyph d="M373 1434h557l39 -39v-56h-555q-43 0 -70 -26l-61 -64q-27 -27 -27 -63v-422h592v-94h-592v-422q0 -37 27 -64l61 -61q27 -29 70 -29h555v-55l-39 -39h-148q-70 -72 -70 -133t37 -83q36 -21 74 -22h99v-86h-121q-82 0 -129 48t-47 118q0 102 77 158h-329q-33 0 -51 8 t-43 33l-89 86q-39 39 -38 96v987q0 57 38 97l89 86q25 25 43 33t51 8z" glyph-name="Eogonek" horiz-adv-x="1075" unicode="Ę"/><glyph d="M614 940h-256q-41 0 -67 -27l-64 -63q-27 -29 -26 -64v-219h571v219q0 35 -27 64l-63 63q-27 27 -68 27zM330 1024h313q33 0 52 -8t46 -33l88 -90q39 -39 39 -100v-283l-26 -27h-641v-245q0 -35 26 -64l64 -63q27 -27 67 -27h256q41 0 68 27l41 43l65 -66l-47 -47 q-27 -25 -46 -33t-52 -8h-25q-76 -72 -76 -136q1 -104 111 -106h101v-86h-121q-84 0 -131 48t-47 118q0 104 88 162h-213q-36 0 -54 8t-45 33l-88 90q-39 39 -39 98v566q0 59 39 98l88 90q27 25 45 33t54 8z" glyph-name="eogonek" horiz-adv-x="958" unicode="ę"/><glyph d="M373 1434h557l39 -39v-56h-555q-41 0 -70 -26l-61 -62q-27 -29 -27 -65v-422h592v-94h-592v-422q0 -37 27 -64l61 -61q29 -29 70 -29h555v-55l-39 -39h-557q-33 0 -51 8t-43 33l-89 86q-37 39 -36 96v987q0 57 36 97l89 86q25 25 43 33t51 8zM594 1763l235 236l50 -45 l-224 -266h-123l-225 266l51 45z" glyph-name="Ecaron" horiz-adv-x="1075" unicode="Ě"/><glyph d="M614 940h-256q-41 0 -67 -27l-64 -63q-27 -29 -26 -64v-219h571v219q0 35 -27 64l-63 63q-27 27 -68 27zM330 1024h313q35 0 53 -8t45 -33l88 -90q39 -39 39 -98v-285l-26 -27h-641v-245q0 -35 26 -64l64 -63q27 -27 67 -27h256q41 0 68 27l41 43l65 -66l-47 -47 q-27 -25 -46 -33t-52 -8h-313q-36 0 -54 8t-45 33l-88 90q-39 39 -39 98v566q0 59 39 98l88 90q27 25 45 33t54 8zM481 1356l236 235l49 -47l-223 -264h-123l-225 264l51 47z" glyph-name="ecaron" horiz-adv-x="958" unicode="ě"/><glyph d="M844 1434q33 0 51 -8t43 -33l137 -138l-74 -73l-131 131q-29 29 -73 28h-295q-41 0 -68 -26l-153 -154q-29 -29 -29 -65v-756q0 -37 29 -66l153 -153q31 -29 74 -29h293q43 0 69 27l154 153q29 29 29 66v319h-344v58l39 39h407v-441q0 -57 -39 -96l-178 -178 q-39 -37 -74 -39h-403q-33 0 -51 8t-43 33l-179 178q-39 39 -38 96v805q0 57 38 97l179 178q38 37 71 39h406zM652 1729q-93 0 -171 51t-119 133l64 31q31 -58 92 -94t135 -36t134 36q60 34 94 92l61 -29q-39 -82 -118 -133t-172 -51z" glyph-name="Gbreve" horiz-adv-x="1304" unicode="Ğ"/><glyph d="M625 940h-267q-41 0 -67 -27l-64 -63q-27 -27 -26 -64v-548q0 -35 26 -64l64 -63q27 -27 67 -25h84q29 0 54 10l286 135v555q1 37 -26 64l-64 63q-27 27 -67 27zM328 1024h325q35 0 55 -8t44 -33l88 -88q41 -41 39 -100v-924q0 -59 -39 -100l-101 -99q-23 -24 -42 -32 t-54 -9h-446l-27 27v59h444q39 0 68 23l74 76q27 25 26 61v258l-243 -115q-45 -20 -93 -20h-118q-32 0 -52 8t-45 33l-88 90q-41 39 -41 117v559q0 33 9 47q8 14 32 41l88 88q25 25 45 33t52 8zM504 1405q74 0 135 35t92 92l64 -29q-41 -82 -119 -133t-171 -51t-172 51 t-118 133l61 31q34 -59 94 -94t134 -35z" glyph-name="gbreve" horiz-adv-x="1007" unicode="ğ"/><glyph d="M844 1434q33 0 51 -8t43 -33l137 -138l-74 -73l-131 131q-29 29 -73 28h-295q-41 0 -68 -26l-153 -154q-29 -29 -29 -65v-756q0 -37 29 -66l153 -153q31 -29 74 -29h293q43 0 69 27l154 153q29 29 29 66v319h-344v58l39 39h407v-441q0 -57 -39 -96l-178 -178 q-39 -37 -74 -39h-403q-33 0 -51 8t-43 33l-179 178q-39 39 -38 96v805q0 57 38 97l179 178q38 37 71 39h406zM600 1870h107v-105h-107v105z" glyph-name="Gdotaccent" horiz-adv-x="1304" unicode="Ġ"/><glyph d="M625 940h-267q-41 0 -67 -27l-64 -63q-27 -27 -26 -64v-548q0 -35 26 -64l64 -63q27 -27 67 -25h84q29 0 54 10l286 135v555q1 37 -26 64l-64 63q-27 27 -67 27zM328 1024h325q35 0 55 -8t44 -33l88 -88q41 -41 39 -100v-924q0 -59 -39 -100l-101 -99q-23 -24 -42 -32 t-54 -9h-446l-27 27v59h444q39 0 68 23l74 76q27 25 26 61v258l-243 -115q-45 -20 -93 -20h-118q-32 0 -52 8t-45 33l-88 90q-41 39 -41 117v559q0 33 9 47q8 14 32 41l88 88q25 25 45 33t52 8zM451 1460h106v-104h-106v104z" glyph-name="gdotaccent" horiz-adv-x="1007" unicode="ġ"/><glyph d="M594 -113h129v-104q0 -51 -23 -98l-45 -95h-71l73 158h-63v139zM844 1434q33 0 51 -8t43 -33l137 -138l-74 -73l-131 131q-29 29 -73 28h-295q-41 0 -68 -26l-153 -154q-29 -29 -29 -65v-756q0 -37 29 -66l153 -153q31 -29 74 -29h293q43 0 69 27l154 153q29 29 29 66 v319h-344v58l39 39h407v-441q0 -57 -39 -96l-178 -178q-39 -37 -74 -39h-403q-33 0 -51 8t-43 33l-179 178q-39 39 -38 96v805q0 57 38 97l179 178q38 37 71 39h406z" glyph-name="Gcommaaccent" horiz-adv-x="1304" unicode="Ģ"/><glyph d="M625 940h-267q-41 0 -67 -27l-64 -63q-27 -27 -26 -64v-548q0 -35 26 -64l64 -63q27 -27 67 -25h84q29 0 54 10l286 135v555q1 37 -26 64l-64 63q-27 27 -67 27zM328 1024h325q35 0 55 -8t44 -33l88 -88q41 -41 39 -100v-924q0 -59 -39 -100l-101 -99q-23 -24 -42 -32 t-54 -9h-446l-27 27v59h444q39 0 68 23l74 76q27 25 26 61v258l-243 -115q-45 -20 -93 -20h-118q-32 0 -52 8t-45 33l-88 90q-41 39 -41 117v559q0 33 9 47q8 14 32 41l88 88q25 25 45 33t52 8zM551 1378v-139h-129v102q0 53 22 101l45 94h72l-74 -158h64z" glyph-name="gcommaaccent" horiz-adv-x="1007" unicode="ģ"/><glyph d="M1155 791v262h-805v-262h805zM1444 1147v-94h-187v-1053h-102v694h-805v-694h-102v1053h-191v94h191v248l39 39h63v-287h805v248l39 39h63v-287h187z" glyph-name="Hbar" horiz-adv-x="1501" unicode="Ħ"/><glyph d="M1004 793v-793h-97v786q0 35 -26 64l-64 61q-27 27 -67 27h-82q-31 0 -56 -12l-286 -135v-791h-99v1204h-188v84h188v152l29 28h70v-180h383v-84h-383v-315l243 112q45 23 93 23h116q34 0 54 -9t45 -34l88 -88q39 -41 39 -100z" glyph-name="hbar" horiz-adv-x="1120" unicode="ħ"/><glyph d="M309 1434v-1434h-104v1395l39 39h65zM129 1925q-87 0 -166 -117l-45 33q79 120 123 145t84 25q39 0 67 -14t98 -70q70 -55 129 -55t138 113l43 -29q-78 -170 -188 -170q-55 0 -115 43q-23 16 -66 49q-62 47 -102 47z" glyph-name="Itilde" horiz-adv-x="512" unicode="Ĩ"/><glyph d="M160 1024h96v-1024h-96v1024zM30 1561q26 2 57 2q32 0 120 -70q89 -70 147 -70t140 113l41 -29q-78 -170 -189 -170q-54 -1 -96 29t-92 69t-79 41q-29 1 -50 -3q-63 -15 -129 -111l-47 31q113 163 177 168z" glyph-name="itilde" horiz-adv-x="403" unicode="ĩ"/><glyph d="M309 1434v-1434h-104v1395l39 39h65zM2 1962h512v-88h-512v88z" glyph-name="Imacron" horiz-adv-x="512" unicode="Ī"/><glyph d="M160 1024h96v-1024h-96v1024zM-61 1513h510v-88h-510v88z" glyph-name="imacron" horiz-adv-x="403" unicode="ī"/><glyph d="M309 1434v-1434h-41q-92 -84 -92 -164q0 -54 36 -75t73 -21h100v-86h-121q-82 0 -129 48t-47 118q0 121 117 180v1395l39 39h65z" glyph-name="Iogonek" horiz-adv-x="512" unicode="Į"/><glyph d="M160 1024h96v-1024h-35q-90 -82 -90 -162q0 -56 36 -77t73 -21h100v-86h-121q-82 0 -129 48t-47 118q0 121 117 180v1024zM139 1460h109v-104h-109v104z" glyph-name="iogonek" horiz-adv-x="403" unicode="į"/><glyph d="M309 1434v-1434h-104v1395l39 39h65zM205 1909h106v-105h-106v105z" glyph-name="Idotaccent" horiz-adv-x="512" unicode="İ"/><glyph d="M160 1024h96v-1024h-96v1024z" glyph-name="dotlessi" horiz-adv-x="403" unicode="ı"/><glyph d="M934 1430v-1467q0 -35 -8 -53t-31 -43l-88 -86q-25 -25 -43 -33t-49 -8h-164v94h121q47 0 71 29l62 59q25 29 24 66v1347h-278v56l39 39h344zM309 1434v-1434h-104v1395l39 39h65z" glyph-name="IJ" horiz-adv-x="1130" unicode="Ĳ"/><glyph d="M176 1024h96v-1024h-96v1024zM625 1024h96v-1163q0 -59 -39 -101l-90 -90q-25 -24 -44 -32t-52 -9h-68v84h37q35 0 67 27l64 65q29 25 29 64v1155zM162 1395h125v-133h-125v133zM608 1395h127v-133h-127v133z" glyph-name="ij" horiz-adv-x="880" unicode="ĳ"/><glyph d="M543 -113h127v-104q0 -51 -21 -98l-45 -95h-72l74 158h-63v139zM295 1434v-770l680 770h37l45 -45l-551 -635l616 -709l-45 -45h-37l-600 678l-145 -168v-510h-102v1395l38 39h64z" glyph-name="Kcommaaccent" horiz-adv-x="1200" unicode="Ķ"/><glyph d="M442 -113h129v-104q0 -51 -22 -98l-45 -95h-72l74 158h-64v139zM242 1468v-882l561 438h55l41 -39l-496 -385l541 -559l-43 -41h-51l-510 545l-98 -90v-455h-97v1440l27 28h70z" glyph-name="kcommaaccent" horiz-adv-x="1003" unicode="ķ"/><glyph d="M297 1434v-1340h670v-94h-734l-38 39v1356l38 39h64zM377 1706l215 254l70 -66l-234 -233z" glyph-name="Lacute" unicode="Ĺ"/><glyph d="M252 1468v-1230q0 -37 29 -64l63 -63q29 -27 66 -27h79v-84h-108q-33 0 -52 8t-44 33l-86 86q-43 43 -43 104v1209l28 28h68zM135 1581l213 252l72 -64l-236 -235z" glyph-name="lacute" horiz-adv-x="552" unicode="ĺ"/><glyph d="M461 -113h129v-104q0 -51 -23 -98l-45 -95h-71l73 158h-63v139zM297 1434v-1340h670v-94h-734l-38 39v1356l38 39h64z" glyph-name="Lcommaaccent" unicode="Ļ"/><glyph d="M217 -113h129v-104q0 -51 -22 -98l-43 -95h-72l72 158h-64v139zM252 1468v-1230q0 -37 29 -64l63 -63q29 -27 66 -27h79v-84h-108q-33 0 -52 8t-44 33l-86 86q-43 43 -43 104v1209l28 28h68z" glyph-name="lcommaaccent" horiz-adv-x="552" unicode="ļ"/><glyph d="M608 1434h144v-113q0 -55 -25 -104l-47 -103h-82l76 168h-66v152zM297 1434v-1340h670v-94h-734l-38 39v1356l38 39h64z" glyph-name="Lcaron" unicode="Ľ"/><glyph d="M391 1468h144v-112q0 -57 -25 -105l-47 -102h-82l76 166h-66v153zM252 1468v-1230q0 -37 29 -64l63 -63q29 -27 66 -27h79v-84h-108q-33 0 -52 8t-44 33l-86 86q-43 43 -43 104v1209l28 28h68z" glyph-name="lcaron" horiz-adv-x="600" unicode="ľ"/><glyph d="M598 705h143v-148h-143v148zM297 1434v-1340h670v-94h-734l-38 39v1356l38 39h64z" glyph-name="Ldot" unicode="Ŀ"/><glyph d="M381 705h143v-148h-143v148zM252 1468v-1230q0 -37 29 -64l63 -63q29 -27 66 -27h79v-84h-108q-33 0 -52 8t-44 33l-86 86q-43 43 -43 104v1209l28 28h68z" glyph-name="ldot" horiz-adv-x="589" unicode="ŀ"/><glyph d="M338 102h672v-102h-742l-41 41v610l-204 -116v116l204 117v625l41 41h70v-603l303 170v-114l-303 -172v-613z" glyph-name="Lslash" horiz-adv-x="1071" unicode="Ł"/><glyph d="M367 233q0 -37 26 -61l64 -63q27 -25 63 -25h78v-84h-106q-34 0 -52 8t-43 33l-84 84q-41 43 -41 102v420l-211 -119v113l211 119v680l27 28h68v-655l305 174v-113l-305 -174v-467z" glyph-name="lslash" horiz-adv-x="731" unicode="ł"/><glyph d="M1085 1434h103v-1395l-39 -39h-221l-555 1339h-90v-1339h-103v1395l39 39h217l561 -1340h88v1340zM541 1745l215 252l69 -64l-233 -235z" glyph-name="Nacute" horiz-adv-x="1363" unicode="Ń"/><glyph d="M567 1024h125q33 0 52 -8t44 -33l89 -90q41 -39 41 -98v-795h-99v786q0 35 -26 64l-64 63q-27 25 -67 25h-89q-31 0 -55 -10l-289 -135v-793h-96v1024h82l23 -131l237 111q45 20 92 20zM377 1296l215 254l70 -65l-234 -234z" glyph-name="nacute" unicode="ń"/><glyph d="M625 -111h129v-102q0 -53 -23 -98l-45 -97h-72l74 158h-63v139zM1085 1434h103v-1395l-39 -39h-221l-555 1339h-90v-1339h-103v1395l39 39h217l561 -1340h88v1340z" glyph-name="Ncommaaccent" horiz-adv-x="1363" unicode="Ņ"/><glyph d="M461 -113h129v-104q0 -51 -23 -98l-45 -95h-71l73 158h-63v139zM567 1024h125q33 0 52 -8t44 -33l89 -90q41 -39 41 -98v-795h-99v786q0 35 -26 64l-64 63q-27 25 -67 25h-89q-31 0 -55 -10l-289 -135v-793h-96v1024h82l23 -131l237 111q45 20 92 20z" glyph-name="ncommaaccent" unicode="ņ"/><glyph d="M1085 1434h103v-1395l-39 -39h-221l-555 1339h-90v-1339h-103v1395l39 39h217l561 -1340h88v1340zM684 1763l236 236l51 -45l-226 -266h-122l-226 266l52 45z" glyph-name="Ncaron" horiz-adv-x="1363" unicode="Ň"/><glyph d="M567 1024h125q33 0 52 -8t44 -33l89 -90q41 -39 41 -98v-795h-99v786q0 35 -26 64l-64 63q-27 25 -67 25h-89q-31 0 -55 -10l-289 -135v-793h-96v1024h82l23 -131l237 111q45 20 92 20zM520 1315l236 235l51 -45l-225 -266h-123l-226 266l52 45z" glyph-name="ncaron" unicode="ň"/><glyph d="M1085 1434h103v-1514q0 -35 -8 -53t-31 -43l-86 -86q-25 -25 -43 -33t-51 -8h-164v94h123q45 0 69 29l62 59q27 29 26 66v55h-157l-555 1339h-90v-1339h-103v1395l39 39h217l561 -1340h88v1340z" glyph-name="Eng" horiz-adv-x="1361" unicode="Ŋ"/><glyph d="M567 1024h125q33 0 52 -8t44 -33l89 -90q41 -39 41 -98v-934q0 -59 -39 -101l-91 -90q-25 -24 -44 -32t-52 -9h-67v84h37q35 0 67 27l64 65q29 25 26 64v917q0 35 -26 64l-64 63q-27 25 -67 25h-89q-31 0 -55 -10l-289 -135v-793h-96v1024h82l23 -131l237 111 q45 20 92 20z" glyph-name="eng" horiz-adv-x="1034" unicode="ŋ"/><glyph d="M502 1339q-41 0 -68 -26l-155 -154q-29 -29 -29 -65v-754q0 -37 29 -66l155 -153q27 -27 68 -27h356q41 0 68 27l155 153q29 29 29 66v754q0 36 -29 65l-155 154q-27 27 -68 26h-356zM461 1434h438q33 0 51 -8t43 -33l181 -179q39 -39 38 -96v-803q0 -57 -38 -96 l-181 -178q-25 -25 -43 -33t-51 -8h-438q-33 0 -51 8t-43 33l-181 178q-39 39 -39 96v803q0 57 39 96l181 179q25 25 43 33t51 8zM424 1962h512v-88h-512v88z" glyph-name="Omacron" horiz-adv-x="1357" unicode="Ō"/><glyph d="M641 940h-283q-41 0 -67 -27l-64 -63q-29 -29 -28 -64v-548q0 -35 28 -64l64 -63q25 -27 67 -27h283q41 0 68 27l63 63q29 29 29 64v548q0 35 -29 64l-63 63q-27 27 -68 27zM328 1024h344q33 0 52 -8t44 -33l88 -90q41 -39 41 -98v-566q0 -59 -41 -98l-88 -90 q-25 -25 -44 -33t-52 -8h-344q-32 0 -52 8t-45 33l-88 90q-41 39 -41 98v566q0 59 41 98l88 90q25 25 45 33t52 8zM244 1552h512v-88h-512v88z" glyph-name="omacron" horiz-adv-x="995" unicode="ō"/><glyph d="M502 1339q-41 0 -68 -26l-155 -154q-29 -29 -29 -65v-754q0 -37 29 -66l155 -153q27 -27 68 -27h356q41 0 68 27l155 153q29 29 29 66v754q0 36 -29 65l-155 154q-27 27 -68 26h-356zM461 1434h438q33 0 51 -8t43 -33l181 -179q39 -39 38 -96v-803q0 -57 -38 -96 l-181 -178q-25 -25 -43 -33t-51 -8h-438q-33 0 -51 8t-43 33l-181 178q-39 39 -39 96v803q0 57 39 96l181 179q25 25 43 33t51 8zM711 1745l213 252l69 -64l-233 -235zM365 1745l215 252l69 -64l-235 -235z" glyph-name="Ohungarumlaut" horiz-adv-x="1357" unicode="Ő"/><glyph d="M641 940h-283q-41 0 -67 -27l-64 -63q-29 -29 -28 -64v-548q0 -35 28 -64l64 -63q25 -27 67 -27h283q41 0 68 27l63 63q29 29 29 64v548q0 35 -29 64l-63 63q-27 27 -68 27zM328 1024h344q33 0 52 -8t44 -33l88 -90q41 -39 41 -100v-564q0 -59 -41 -98l-88 -90 q-25 -25 -44 -33t-52 -8h-344q-32 0 -52 8t-45 33l-88 90q-41 39 -41 98v564q0 61 41 100l88 90q25 25 45 33t52 8zM530 1335l213 254l70 -65l-233 -234zM184 1335l215 254l70 -65l-236 -234z" glyph-name="ohungarumlaut" horiz-adv-x="995" unicode="ő"/><glyph d="M502 1331q-41 0 -66 -24l-155 -154q-27 -27 -27 -61v-750q0 -35 27 -61l155 -154q25 -25 66 -25h356q41 0 66 25l155 154q27 27 27 61v750q0 34 -27 61l-155 154q-25 25 -66 24h-356zM1329 1434h559l41 -41v-62h-559q-41 0 -65 -24l-62 -62q-29 -29 -29 -63v-414h594 v-102h-594v-414q0 -35 29 -64l62 -61q25 -25 65 -25h559v-61l-41 -41h-559q-33 0 -52 8t-44 33l-78 78q-27 25 -31 51l-129 -129q-25 -25 -44 -33t-52 -8h-438q-33 0 -52 8t-44 33l-181 178q-39 41 -39 100v795q0 59 39 100l181 179q25 25 44 33t52 8h438q33 0 52 -8t44 -33 l129 -129q4 25 31 51l78 78q25 25 44 33t52 8z" glyph-name="OE" horiz-adv-x="2029" unicode="Œ"/><glyph d="M1311 940h-256q-41 0 -68 -27l-61 -63q-29 -27 -29 -64v-219h571v219q1 35 -26 64l-64 63q-27 27 -67 27zM641 940h-283q-41 0 -67 -27l-64 -63q-29 -29 -28 -64v-548q0 -35 28 -64l64 -63q25 -27 67 -27h283q41 0 68 27l63 63q27 27 29 64v548q-2 37 -29 64l-63 63 q-27 27 -68 27zM1026 1024h315q33 0 53 -8t44 -33l88 -90q41 -39 41 -98v-285l-29 -27h-641v-245q0 -35 29 -64l61 -63q27 -27 68 -27h256q41 0 67 27l41 43l66 -66l-47 -47q-25 -25 -44 -33t-55 -8h-313q-33 0 -52 8t-46 33l-80 82l-80 -82q-25 -25 -44 -33t-52 -8h-344 q-32 0 -52 8t-45 33l-88 90q-41 39 -41 98v566q0 59 41 98l88 90q25 25 44 33t53 8h344q33 0 52 -8t44 -33l80 -82l80 82q27 25 46 33t52 8z" glyph-name="oe" horiz-adv-x="1652" unicode="œ"/><glyph d="M295 1339v-575h516q43 0 70 27l61 61q29 27 29 63v271q0 36 -29 63l-61 62q-27 29 -70 28h-516zM854 1434q31 0 49 -8t43 -33l88 -86q39 -39 39 -97v-319q0 -57 -39 -96l-88 -86q-27 -27 -51 -33h-68l299 -627l-49 -49h-41l-317 670h-424v-670h-105v1395l39 39h625z M477 1706l215 254l70 -66l-234 -233z" glyph-name="Racute" horiz-adv-x="1239" unicode="Ŕ"/><glyph d="M575 1024h35v-86h-28q-41 0 -62 -14l-280 -205v-719h-99v1024h72l35 -203l241 185q23 18 86 18zM186 1296l215 254l70 -65l-233 -234z" glyph-name="racute" horiz-adv-x="657" unicode="ŕ"/><glyph d="M561 -113h129v-104q0 -51 -22 -98l-45 -95h-72l74 158h-64v139zM295 1339v-575h516q43 0 70 27l61 61q29 27 29 63v271q0 36 -29 63l-61 62q-27 29 -70 28h-516zM854 1434q31 0 49 -8t43 -33l88 -86q39 -39 39 -97v-319q0 -57 -39 -96l-88 -86q-27 -27 -51 -33h-68 l299 -627l-49 -49h-41l-317 670h-424v-670h-105v1395l39 39h625z" glyph-name="Rcommaaccent" horiz-adv-x="1239" unicode="Ŗ"/><glyph d="M111 -113h129v-104q0 -51 -23 -98l-45 -95h-72l74 158h-63v139zM575 1024h35v-86h-28q-41 0 -62 -14l-280 -205v-719h-99v1024h72l35 -203l241 185q23 18 86 18z" glyph-name="rcommaaccent" horiz-adv-x="657" unicode="ŗ"/><glyph d="M295 1339v-575h516q43 0 70 27l61 61q29 27 29 63v271q0 36 -29 63l-61 62q-27 29 -70 28h-516zM854 1434q31 0 49 -8t43 -33l88 -86q39 -39 39 -97v-319q0 -57 -39 -96l-88 -86q-27 -27 -51 -33h-68l299 -627l-49 -49h-41l-317 670h-424v-670h-102v1395l36 39h625z M621 1724l235 236l51 -45l-225 -266h-123l-225 266l51 45z" glyph-name="Rcaron" horiz-adv-x="1239" unicode="Ř"/><glyph d="M575 1024h35v-86h-28q-41 0 -62 -14l-280 -205v-719h-99v1024h72l35 -203l241 185q23 18 86 18zM330 1315l235 235l51 -45l-225 -266h-123l-225 266l51 45z" glyph-name="rcaron" horiz-adv-x="657" unicode="ř"/><glyph d="M406 1434h509l31 -29v-66h-506q-61 0 -98 -39l-90 -92q-39 -41 -39 -90v-82q0 -67 66 -96l612 -311q121 -61 121 -183v-133q0 -86 -70 -157l-92 -90q-63 -66 -170 -66h-541l-28 29v67h569q61 0 98 37l90 90q41 41 41 90v133q0 27 -17 55t-48 42l-670 342q-35 18 -49 44 t-14 70v127q0 47 10 75t39 56l123 123q33 34 57 44t66 10zM418 1745l215 252l69 -64l-233 -235z" glyph-name="Sacute" horiz-adv-x="1120" unicode="Ś"/><glyph d="M332 1024h375l28 -27v-57h-375q-43 0 -69 -29l-62 -63q-27 -27 -26 -64v-51q0 -45 45 -67l440 -226q94 -47 94 -137v-67q0 -66 -53 -119l-67 -68q-49 -49 -132 -49h-397l-27 27v57h422q41 0 68 27l63 63q27 29 27 64v61q0 45 -45 70l-483 245q-51 27 -52 91v90 q0 59 39 98l88 90q27 25 47 33t52 8zM301 1335l215 254l70 -65l-234 -234z" glyph-name="sacute" horiz-adv-x="888" unicode="ś"/><glyph d="M406 1434h509l31 -29v-68h-506q-61 0 -98 -37l-90 -92q-39 -41 -39 -90v-82q0 -67 66 -96l612 -311q121 -61 121 -183v-133q0 -86 -70 -157l-92 -90q-63 -66 -170 -66h-125l-27 -51q24 4 42 4h26q70 -8 108 -47t37 -102q0 -62 -44 -106t-119 -44h-109v65h106q33 0 59 26 q26 25 26 65t-28 62q-27 22 -63 22q-35 0 -98 -29l-53 53l39 82h-318l-28 29v67h569q61 0 98 37l90 90q41 41 41 90v133q0 27 -17 55t-48 42l-670 342q-35 18 -49 44t-14 70v127q0 47 10 75t39 56l123 123q33 34 57 44t66 10z" glyph-name="Scedilla" horiz-adv-x="1120" unicode="Ş"/><glyph d="M332 1024h375l28 -27v-57h-375q-43 0 -69 -29l-62 -63q-27 -27 -26 -64v-51q0 -45 45 -67l440 -226q94 -47 94 -137v-67q0 -66 -53 -119l-67 -68q-49 -49 -132 -49h-102l-25 -47q31 6 68 6q70 -8 108 -48q37 -41 37 -103t-43 -105t-118 -43h-111v64h107q33 0 59 26t27 66 q0 38 -27 60t-46 22h-26q-33 0 -90 -29l-55 53l37 78h-197l-27 27v57h422q41 0 68 27l63 63q27 29 27 64v61q0 45 -45 70l-483 245q-51 27 -52 91v90q0 59 39 98l88 90q27 25 47 33t52 8z" glyph-name="scedilla" horiz-adv-x="888" unicode="ş"/><glyph d="M406 1434h509l31 -29v-66h-506q-61 0 -98 -39l-90 -92q-39 -41 -39 -90v-82q0 -67 66 -96l612 -311q121 -61 121 -183v-133q0 -86 -70 -157l-92 -90q-63 -66 -170 -66h-541l-28 29v67h569q61 0 98 37l90 90q41 41 41 90v133q0 27 -17 55t-48 42l-670 342q-35 18 -49 44 t-14 70v127q0 47 10 75t39 56l123 123q33 34 57 44t66 10zM561 1763l236 236l51 -45l-225 -266h-123l-226 266l52 45z" glyph-name="Scaron" horiz-adv-x="1120" unicode="Š"/><glyph d="M332 1024h375l28 -27v-57h-375q-43 0 -69 -29l-62 -63q-27 -27 -26 -64v-51q0 -45 45 -67l440 -226q94 -47 94 -137v-67q0 -66 -53 -119l-67 -68q-49 -49 -132 -49h-397l-27 27v57h422q41 0 68 27l63 63q27 29 27 64v61q0 45 -45 70l-483 245q-51 27 -52 91v90 q0 59 39 98l88 90q27 25 47 33t52 8zM444 1356l236 235l51 -47l-225 -264h-123l-225 264l51 47z" glyph-name="scaron" horiz-adv-x="888" unicode="š"/><glyph d="M1065 1339h-449v-1339h-20l-33 -66q27 7 68 7q69 -9 107 -49t38 -102t-43 -106q-43 -42 -121 -42h-108v63h106q33 0 59 27q25 28 25 66t-24 59q-57 46 -154 0l-53 51l51 92v1339h-446v56l38 39h920l39 -39v-56z" glyph-name="Tcommaaccent" horiz-adv-x="1130" unicode="Ţ"/><glyph d="M231 1268h97v-244h243v-84h-243v-702q0 -37 28 -66l62 -61q27 -27 67 -27h86v-57l-28 -27h-86q-41 0 -72 29l-25 24l-41 -86q31 6 68 6q70 -8 108 -49q37 -40 37 -102t-43 -105t-118 -43h-111v64h107q33 0 59 26t27 66q0 38 -27 60t-46 22h-26q-33 0 -90 -29l-55 54 l80 176l-17 16q-41 41 -41 100v711h-170v57l27 27h143v244z" glyph-name="tcommaaccent" horiz-adv-x="677" unicode="ţ"/><glyph d="M1065 1339h-449v-1339h-102v1339h-446v56l38 39h920l39 -39v-56zM565 1724l236 236l51 -45l-225 -266h-123l-225 266l51 45z" glyph-name="Tcaron" horiz-adv-x="1130" unicode="Ť"/><glyph d="M231 1268h97v-244h243v-84h-243v-702q0 -37 28 -66l62 -61q27 -27 67 -27h86v-57l-28 -27h-86q-33 0 -53 8t-44 33l-88 88q-41 41 -41 100v711h-170v57l27 27h143v244zM473 1454h143v-113q0 -55 -22 -104l-49 -102h-82l76 168h-66v151z" glyph-name="tcaron" horiz-adv-x="716" unicode="ť"/><glyph d="M1065 1339h-449v-1339h-102v1339h-446v56l38 39h920l39 -39v-56zM309 1923h512v-88h-512v88z" glyph-name="Tbar" horiz-adv-x="1130" unicode="Ŧ"/><glyph d="M231 1268h97v-244h243v-84h-243v-702q0 -37 28 -66l62 -61q27 -27 67 -27h86v-57l-28 -27h-86q-33 0 -53 8t-44 33l-88 88q-41 41 -41 100v711h-170v57l27 27h143v244zM100 1501h510v-88h-510v88z" glyph-name="tbar" horiz-adv-x="677" unicode="ŧ"/><glyph d="M1163 1434v-1211q0 -57 -39 -96l-86 -86q-25 -25 -43 -33t-51 -8h-534q-34 0 -52 8t-43 33l-86 86q-39 39 -39 96v1172l39 39h64v-1186q0 -37 29 -64l61 -61q27 -29 68 -29h452q41 0 68 29l61 61q29 27 29 64v1147l39 39h63zM543 1925q-87 0 -166 -117l-45 33 q78 119 121 144q44 26 84 26q41 0 69 -14t98 -70t119 -55q68 0 148 113l43 -29q-78 -170 -189 -170q-55 0 -114 43q-23 16 -55 40l-44 33q-31 23 -69 23z" glyph-name="Utilde" horiz-adv-x="1341" unicode="Ũ"/><glyph d="M811 1024h96v-1024h-82l-22 131l-238 -111q-45 -20 -92 -20h-125q-33 0 -52 8t-44 33l-88 90q-41 39 -41 98v795h96v-786q0 -35 29 -64l63 -63q27 -25 68 -25h88q31 0 55 10l289 135v793zM387 1602q33 0 61 -14t98 -68q70 -56 120 -56q68 0 147 111l43 -29 q-78 -168 -188 -168q-54 0 -96 28t-85 62q-63 48 -102 50q-86 0 -166 -117l-45 31q106 161 186 170h27z" glyph-name="utilde" horiz-adv-x="1026" unicode="ũ"/><glyph d="M1163 1434v-1211q0 -57 -39 -96l-86 -86q-25 -25 -43 -33t-51 -8h-534q-34 0 -52 8t-43 33l-86 86q-39 39 -39 96v1172l39 39h64v-1186q0 -37 29 -64l61 -63q27 -27 68 -27h452q41 0 68 27l61 63q29 27 29 64v1147l39 39h63zM416 1962h512v-88h-512v88z" glyph-name="Umacron" horiz-adv-x="1341" unicode="Ū"/><glyph d="M809 1024h98v-1024h-82l-22 131l-238 -111q-45 -20 -92 -20h-125q-33 0 -52 8t-44 33l-88 90q-41 39 -41 98v795h96v-786q0 -35 29 -64l63 -63q25 -25 68 -25h88q31 0 55 10l287 135v793zM258 1552h512v-88h-512v88z" glyph-name="umacron" horiz-adv-x="1026" unicode="ū"/><glyph d="M1163 1434v-1211q0 -57 -39 -96l-86 -86q-25 -25 -43 -33t-51 -8h-534q-34 0 -52 8t-43 33l-86 86q-39 39 -39 96v1172l39 39h64v-1186q0 -37 29 -64l61 -63q27 -27 68 -27h452q41 0 68 27l61 63q29 27 29 64v1147l39 39h63zM672 2009q-45 0 -77 -34t-32 -79 q0 -44 32 -78t77 -34t77 34q31 34 31 78t-31 79q-32 34 -77 34zM672 2085q76 0 129 -54q53 -53 53 -133t-53 -135t-129 -55t-129 55t-54 134t53 133t130 55z" glyph-name="Uring" horiz-adv-x="1341" unicode="Ů"/><glyph d="M811 1024h96v-1024h-82l-22 131l-238 -111q-45 -20 -92 -20h-125q-33 0 -52 8t-44 33l-88 90q-41 39 -41 98v795h98v-786q0 -35 27 -64l63 -63q27 -25 68 -25h88q31 0 55 10l289 135v793zM514 1602q-45 0 -77 -35q-31 -35 -31 -79t32 -79t76 -35q45 0 77 35t32 79t-32 79 t-77 35zM514 1675q76 0 129 -54t53 -133t-53 -133q-53 -55 -129 -55t-129 54t-53 134q0 79 53 133t129 54z" glyph-name="uring" horiz-adv-x="1026" unicode="ů"/><glyph d="M1163 1434v-1211q0 -57 -39 -96l-86 -86q-25 -25 -43 -33t-51 -8h-534q-34 0 -52 8t-43 33l-86 86q-39 39 -39 96v1172l39 39h64v-1186q0 -37 29 -66l61 -61q27 -27 68 -27h452q41 0 68 27l61 61q29 29 29 66v1147l39 39h63zM700 1745l215 252l70 -64l-233 -235z M356 1745l213 252l72 -64l-235 -235z" glyph-name="Uhungarumlaut" horiz-adv-x="1341" unicode="Ű"/><glyph d="M809 1024h98v-1024h-82l-22 131l-238 -111q-45 -20 -92 -20h-125q-33 0 -52 8t-44 33l-88 90q-41 39 -41 98v795h96v-786q0 -35 29 -64l63 -63q25 -27 68 -27h88q31 0 55 12l287 135v793zM543 1335l215 254l69 -65l-233 -234zM199 1335l215 254l69 -65l-235 -234z" glyph-name="uhungarumlaut" horiz-adv-x="1026" unicode="ű"/><glyph d="M1163 1434v-1211q0 -57 -39 -96l-86 -86q-25 -25 -43 -33t-51 -8h-22q-78 -76 -78 -138t36 -85q36 -22 74 -23h101v-86h-121q-84 0 -131 48t-47 118q0 109 90 166h-436q-34 0 -52 8t-43 33l-86 86q-39 39 -39 96v1172l39 39h64v-1186q0 -37 29 -64l61 -63q27 -27 68 -27 h452q41 0 68 27l61 63q29 27 29 64v1147l39 39h63z" glyph-name="Uogonek" horiz-adv-x="1341" unicode="Ų"/><glyph d="M1014 -254v-86h-119q-84 0 -131 48t-47 118q0 117 108 174l-22 131l-238 -111q-45 -20 -92 -20h-125q-33 0 -52 8t-44 33l-88 90q-41 39 -41 98v795h96v-786q0 -35 29 -64l63 -63q25 -25 68 -25h88q31 0 55 10l287 135v793h98v-1024h-24q-78 -74 -78 -142t36 -90t74 -22 h99z" glyph-name="uogonek" horiz-adv-x="1026" unicode="ų"/><glyph d="M1858 1434h34l66 -31l-354 -1403h-240l-320 1339h-79l-322 -1339h-240l-354 1403l66 31h35l327 -1340h94l310 1340h245l310 -1340h94zM942 1972h123l223 -266l-49 -45l-235 235l-236 -235l-51 45z" glyph-name="Wcircumflex" horiz-adv-x="2004" unicode="Ŵ"/><glyph d="M1518 1024h45l49 -25l-275 -999h-221l-264 940h-64l-264 -940h-219l-276 999l49 25h47l242 -940h96l256 940h203l258 -940h96zM758 1563h123l225 -267l-51 -45l-236 236l-235 -236l-49 45z" glyph-name="wcircumflex" horiz-adv-x="1638" unicode="ŵ"/><glyph d="M649 526v-526h-102v526h-90l-383 879l61 29h41l340 -811h164l340 811h41l61 -29l-383 -879h-90zM537 2011h122l226 -266l-51 -47l-236 235l-236 -235l-51 47z" glyph-name="Ycircumflex" horiz-adv-x="1193" unicode="Ŷ"/><glyph d="M858 1024h55l39 -18l-354 -1033q-2 -3 -12 -33t-16 -42t-22 -46q-14 -34 -28 -54t-36 -51q-22 -32 -46 -52t-65 -50q-40 -30 -137 -57l-15 80q174 43 254 246l29 86h-103l-346 1006l37 18h58l317 -940h72zM442 1616h123l226 -264l-52 -47l-235 235l-236 -235l-51 47z" glyph-name="ycircumflex" horiz-adv-x="1005" unicode="ŷ"/><glyph d="M649 526v-526h-102v526h-90l-383 879l61 29h41l340 -811h164l340 811h41l61 -29l-383 -879h-90zM735 1909h107v-105h-107v105zM354 1909h107v-105h-107v105z" glyph-name="Ydieresis" horiz-adv-x="1193" unicode="Ÿ"/><glyph d="M211 94h854v-55l-39 -39h-879l-38 39v201l821 981v118h-778v56l38 39h805l37 -39v-205l-821 -983v-113zM444 1745l215 252l70 -64l-233 -235z" glyph-name="Zacute" horiz-adv-x="1173" unicode="Ź"/><glyph d="M201 84h676v-57l-29 -27h-717l-29 27v186l658 645v82h-621v57l27 27h661l29 -27v-170l-655 -647v-96zM346 1335l215 254l70 -65l-234 -234z" glyph-name="zacute" horiz-adv-x="976" unicode="ź"/><glyph d="M211 94h854v-55l-39 -39h-879l-38 39v201l821 981v118h-778v56l38 39h805l37 -39v-205l-821 -983v-113zM535 1909h106v-105h-106v105z" glyph-name="Zdotaccent" horiz-adv-x="1173" unicode="Ż"/><glyph d="M201 84h676v-57l-29 -27h-717l-29 27v186l658 645v82h-621v57l27 27h661l29 -27v-170l-655 -647v-96zM436 1499h107v-104h-107v104z" glyph-name="zdotaccent" horiz-adv-x="976" unicode="ż"/><glyph d="M211 94h854v-55l-39 -39h-879l-38 39v201l821 981v118h-778v56l38 39h805l37 -39v-205l-821 -983v-113zM588 1763l235 236l51 -45l-225 -266h-123l-225 266l51 45z" glyph-name="Zcaron" horiz-adv-x="1173" unicode="Ž"/><glyph d="M201 84h676v-57l-29 -27h-717l-29 27v186l658 645v82h-621v57l27 27h661l29 -27v-170l-655 -647v-96zM489 1356l236 235l51 -47l-225 -264h-123l-225 264l51 47z" glyph-name="zcaron" horiz-adv-x="976" unicode="ž"/><glyph d="M520 1462h86l29 -26v-60h-84q-41 0 -66 -24l-61 -62q-29 -27 -27 -61v-379h217v-86h-217v-875q0 -59 -39 -102l-88 -86q-25 -25 -44 -33t-52 -8h-68v84h37q33 0 66 27l61 63q29 25 29 62v868h-168v59l27 27h141v385q0 59 39 100l88 86q25 25 43 33t51 8z" glyph-name="florin" horiz-adv-x="739" unicode="ƒ"/><glyph d="M936 580l-238 759h-108l-238 -759h584zM520 1434h248l453 -1403l-64 -31h-37l-153 485h-645l-154 -485h-37l-63 31zM645 1763l236 236l51 -45l-225 -266h-123l-226 266l52 45z" glyph-name="uni01CD" horiz-adv-x="1288" unicode="Ǎ"/><glyph d="M778 508h-407q-41 0 -68 -25l-76 -75q-27 -27 -26 -64v-106q0 -35 26 -64l64 -63q27 -27 67 -27h146q31 0 55 12l219 105v307zM639 1024q33 0 52 -8t44 -33l99 -98q41 -41 40 -101v-784h-86l-18 100l-160 -75q-53 -25 -106 -25h-174q-34 0 -54 8t-45 33l-88 90 q-39 39 -39 100v121q0 59 39 101l101 98q25 27 44 35t54 8h436v182q0 37 -28 64l-72 73q-27 27 -68 27h-446v57l29 27h446zM504 1356l237 235l50 -47l-226 -264h-123l-223 264l49 47z" glyph-name="uni01CE" horiz-adv-x="987" unicode="ǎ"/><glyph d="M309 1434v-1434h-104v1395l39 39h65zM258 1763l236 236l51 -45l-226 -266h-122l-226 266l52 45z" glyph-name="uni01CF" horiz-adv-x="512" unicode="Ǐ"/><glyph d="M160 1024h96v-1024h-96v1024zM193 1346l237 235l49 -47l-225 -264h-123l-223 264l49 47z" glyph-name="uni01D0" horiz-adv-x="403" unicode="ǐ"/><glyph d="M502 1339q-41 0 -68 -26l-155 -154q-29 -29 -29 -65v-754q0 -37 29 -66l155 -153q27 -27 68 -27h356q41 0 68 27l155 153q29 29 29 66v754q0 36 -29 65l-155 154q-27 27 -68 26h-356zM461 1434h438q33 0 51 -8t43 -33l181 -179q39 -39 38 -96v-803q0 -57 -38 -96 l-181 -178q-25 -25 -43 -33t-51 -8h-438q-33 0 -51 8t-43 33l-181 178q-39 39 -39 96v803q0 57 39 96l181 179q25 25 43 33t51 8zM680 1763l235 236l52 -45l-226 -266h-123l-225 266l51 45z" glyph-name="uni01D1" horiz-adv-x="1357" unicode="Ǒ"/><glyph d="M641 940h-283q-41 0 -67 -27l-64 -63q-29 -29 -28 -64v-548q0 -35 28 -64l64 -63q25 -27 67 -27h283q41 0 68 27l63 63q29 29 29 64v548q0 35 -29 64l-63 63q-25 27 -68 27zM328 1024h344q33 0 52 -8t44 -33l88 -90q41 -39 41 -98v-566q0 -59 -41 -98l-88 -90 q-25 -25 -44 -33t-52 -8h-344q-32 0 -52 8t-45 33l-88 90q-41 39 -41 98v566q0 59 41 98l88 90q25 25 45 33t52 8zM500 1356l235 235l51 -47l-225 -264h-123l-225 264l51 47z" glyph-name="uni01D2" horiz-adv-x="995" unicode="ǒ"/><glyph d="M1163 1434v-1211q0 -57 -39 -96l-86 -86q-25 -25 -43 -33t-51 -8h-534q-34 0 -52 8t-43 33l-86 86q-39 39 -39 96v1172l39 39h64v-1186q0 -37 29 -64l61 -61q27 -29 68 -29h452q41 0 68 29l61 61q29 27 29 64v1147l39 39h63zM672 1763l235 236l49 -45l-223 -266h-123 l-225 266l51 45z" glyph-name="uni01D3" horiz-adv-x="1341" unicode="Ǔ"/><glyph d="M811 1024h96v-1024h-82l-22 131l-238 -111q-45 -20 -92 -20h-125q-33 0 -52 8t-44 33l-88 90q-41 39 -41 98v795h96v-786q0 -35 29 -64l63 -63q27 -25 68 -25h88q31 0 55 10l289 135v793zM514 1356l236 235l51 -47l-226 -264h-122l-226 264l52 47z" glyph-name="uni01D4" horiz-adv-x="1026" unicode="ǔ"/><glyph d="M1163 1434v-1211q0 -57 -39 -96l-86 -86q-25 -25 -43 -33t-51 -8h-534q-34 0 -52 8t-43 33l-86 86q-39 39 -39 96v1172l39 39h64v-1186q0 -37 29 -64l61 -63q27 -27 68 -27h452q41 0 68 27l61 63q29 27 29 64v1147l39 39h63zM809 1640h106v-104h-106v104zM428 1640h107 v-104h-107v104zM416 1974h512v-88h-512v88z" glyph-name="uni01D5" horiz-adv-x="1341" unicode="Ǖ"/><glyph d="M809 1024h98v-1024h-82l-22 131l-238 -111q-45 -20 -92 -20h-125q-33 0 -52 8t-44 33l-88 90q-41 39 -41 98v795h96v-786q0 -35 29 -64l63 -63q25 -25 68 -25h88q31 0 55 10l287 135v793zM651 1434h107v-105h-107v105zM270 1434h107v-105h-107v105zM258 1585h512v-88 h-512v88z" glyph-name="uni01D6" horiz-adv-x="1026" unicode="ǖ"/><glyph d="M1163 1434v-1211q0 -57 -39 -96l-86 -86q-25 -25 -43 -33t-51 -8h-534q-34 0 -52 8t-43 33l-86 86q-39 39 -39 96v1172l39 39h64v-1186q0 -37 29 -66l61 -61q27 -27 68 -27h452q41 0 68 27l61 61q29 29 29 66v1147l39 39h63zM809 1640h106v-104h-106v104zM428 1640h107 v-104h-107v104zM537 1792l213 254l71 -66l-235 -233z" glyph-name="uni01D7" horiz-adv-x="1341" unicode="Ǘ"/><glyph d="M809 1024h98v-1024h-82l-22 131l-238 -111q-45 -20 -92 -20h-125q-33 0 -52 8t-44 33l-88 90q-41 39 -41 98v795h96v-786q0 -35 29 -64l63 -63q25 -25 68 -25h88q31 0 55 10l287 135v793zM651 1434h107v-105h-107v105zM270 1434h107v-105h-107v105zM375 1516l213 253 l71 -65l-235 -234z" glyph-name="uni01D8" horiz-adv-x="1026" unicode="ǘ"/><glyph d="M1163 1434v-1211q0 -57 -39 -96l-86 -86q-25 -25 -43 -33t-51 -8h-534q-34 0 -52 8t-43 33l-86 86q-39 39 -39 96v1172l39 39h64v-1186q0 -37 29 -64l61 -61q27 -29 68 -29h452q41 0 68 29l61 61q29 27 29 64v1147l39 39h63zM809 1640h106v-104h-106v104zM428 1640h107 v-104h-107v104zM672 1808l235 238l51 -47l-225 -266h-123l-223 266l49 47z" glyph-name="uni01D9" horiz-adv-x="1341" unicode="Ǚ"/><glyph d="M809 1024h98v-1024h-82l-22 131l-238 -111q-45 -20 -92 -20h-125q-33 0 -52 8t-44 33l-88 90q-41 39 -41 98v795h96v-786q0 -35 29 -64l63 -63q25 -25 68 -25h88q31 0 55 10l287 135v793zM651 1434h107v-105h-107v105zM270 1434h107v-105h-107v105zM514 1546l236 236 l51 -47l-226 -265h-122l-224 265l50 47z" glyph-name="uni01DA" horiz-adv-x="1026" unicode="ǚ"/><glyph d="M1163 1434v-1211q0 -57 -39 -96l-86 -86q-25 -25 -43 -33t-51 -8h-534q-34 0 -52 8t-43 33l-86 86q-39 39 -39 96v1172l39 39h64v-1186q0 -37 29 -64l61 -61q27 -29 68 -29h452q41 0 68 29l61 61q29 27 29 64v1147l39 39h63zM809 1640h106v-104h-106v104zM428 1640h107 v-104h-107v104zM528 1980l70 66l215 -254l-51 -45z" glyph-name="uni01DB" horiz-adv-x="1341" unicode="Ǜ"/><glyph d="M809 1024h98v-1024h-82l-22 131l-238 -111q-45 -20 -92 -20h-125q-33 0 -52 8t-44 33l-88 90q-41 39 -41 98v795h96v-786q0 -35 29 -64l63 -63q25 -25 68 -25h88q31 0 55 10l287 135v793zM651 1434h107v-105h-107v105zM270 1434h107v-105h-107v105zM369 1710l71 64 l213 -252l-49 -47z" glyph-name="uni01DC" horiz-adv-x="1026" unicode="ǜ"/><glyph d="M936 580l-238 759h-108l-238 -759h584zM520 1434h248l453 -1405l-64 -29h-37l-153 485h-645l-154 -485h-37l-63 29zM782 1640h107v-104h-107v104zM401 1640h107v-104h-107v104zM389 1866h512v-88h-512v88z" glyph-name="uni01DE" horiz-adv-x="1288" unicode="Ǟ"/><glyph d="M778 508h-407q-41 0 -68 -25l-76 -75q-27 -27 -26 -64v-106q0 -35 26 -64l64 -63q27 -27 67 -27h146q31 0 55 12l219 105v307zM639 1024q33 0 52 -8t44 -33l99 -98q41 -41 40 -101v-784h-86l-18 100l-162 -75q-51 -25 -104 -25h-174q-34 0 -54 8t-45 33l-88 90 q-39 39 -39 98v123q0 59 39 101l101 98q25 27 44 35t54 8h436v182q0 37 -28 64l-72 73q-27 27 -68 27h-446v57l29 27h446zM641 1434h109v-103h-109v103zM260 1434h107v-103h-107v103zM248 1618h512v-88h-512v88z" glyph-name="uni01DF" horiz-adv-x="987" unicode="ǟ"/><glyph d="M844 1434q33 0 51 -8t43 -33l139 -138l-76 -73l-131 131q-29 29 -73 28h-295q-41 0 -68 -26l-153 -154q-29 -29 -29 -65v-756q0 -37 29 -66l153 -153q31 -29 74 -29h293q43 0 69 27l154 153q29 29 29 66v319h-344v58l39 39h407v-441q0 -57 -39 -96l-178 -178 q-39 -37 -74 -39h-403q-33 0 -51 8t-43 33l-179 178q-39 39 -38 96v805q0 57 38 97l179 178q38 37 71 39h406zM653 1724l236 236l49 -45l-223 -266h-123l-225 266l51 45z" glyph-name="Gcaron" horiz-adv-x="1304" unicode="Ǧ"/><glyph d="M625 940h-267q-41 0 -67 -27l-64 -63q-27 -27 -26 -64v-548q0 -35 26 -64l64 -63q27 -27 67 -25h84q29 0 54 10l286 135v555q1 37 -26 64l-64 63q-27 27 -67 27zM328 1024h325q35 0 55 -8t44 -33l88 -88q41 -41 39 -100v-924q0 -59 -39 -100l-101 -99q-23 -24 -42 -32 t-54 -9h-446l-27 27v59h444q39 0 68 23l74 76q27 25 26 61v258l-243 -115q-45 -20 -93 -20h-118q-32 0 -52 8t-45 33l-88 90q-41 39 -41 117v559q0 33 9 47q8 14 32 41l88 88q25 25 45 33t52 8zM504 1315l235 235l52 -45l-226 -266h-123l-223 266l49 45z" glyph-name="gcaron" horiz-adv-x="1007" unicode="ǧ"/><glyph d="M858 102q41 0 66 25l155 154q27 27 27 61v750q0 34 -27 61l-133 131q-10 10 -24 19l-394 -1201h330zM502 1331q-41 0 -66 -24l-155 -154q-27 -27 -27 -61v-750q0 -35 27 -61l135 -134q6 -6 14 -12l393 1196h-321zM1214 319q0 -59 -38 -100l-181 -178q-25 -25 -44 -33 t-52 -8h-405l-33 -102h-109l41 120q-18 12 -37 31l-172 170q-39 41 -39 100v795q0 59 39 100l181 179q25 25 44 33t52 8h395l35 102h106l-39 -119q20 -8 50 -35l168 -168q39 -41 38 -100v-795zM537 1706l215 254l69 -66l-233 -233z" glyph-name="Oslashacute" horiz-adv-x="1357" unicode="Ǿ"/><glyph d="M641 84q41 0 68 27l63 63q29 29 29 64v548q0 35 -29 64l-63 63q-10 10 -27 17l-279 -846h238zM358 940q-43 0 -67 -27l-64 -63q-29 -29 -28 -64v-548q0 -35 28 -64l64 -63q10 -11 26 -17l277 846h-236zM897 793v-564q0 -59 -41 -98l-88 -90q-25 -25 -44 -33t-52 -8h-295 l-35 -104h-90l35 108q-25 8 -56 37l-88 90q-41 39 -41 98v564q0 61 41 100l88 90q25 25 44 33t53 8h295l34 104h91l-37 -108q27 -6 57 -37l88 -90q41 -39 41 -100zM356 1296l215 254l70 -65l-233 -234z" glyph-name="oslashacute" horiz-adv-x="995" unicode="ǿ"/><glyph d="M502 -152h129v-102q0 -53 -23 -100l-45 -95h-71l73 158h-63v139zM406 1434h509l31 -29v-66h-506q-61 0 -98 -39l-90 -92q-39 -41 -39 -90v-82q0 -67 66 -96l612 -311q121 -61 121 -183v-133q0 -86 -70 -157l-92 -90q-63 -66 -170 -66h-541l-28 29v67h569q61 0 98 37 l90 90q41 41 41 90v133q0 27 -17 55t-48 42l-670 342q-35 18 -49 44t-14 70v127q0 47 10 75t39 56l123 123q33 34 57 44t66 10z" glyph-name="Scommaaccent" horiz-adv-x="1120" unicode="Ș"/><glyph d="M385 -152h129v-104q0 -51 -22 -98l-46 -95h-71l74 158h-64v139zM332 1024h375l28 -27v-57h-375q-43 0 -69 -29l-62 -63q-27 -27 -26 -64v-51q0 -45 45 -67l440 -226q94 -47 94 -137v-67q0 -66 -53 -119l-67 -68q-49 -49 -132 -49h-397l-27 27v57h422q41 0 68 27l63 63 q27 29 27 64v61q0 45 -45 70l-483 245q-51 27 -52 91v90q0 59 39 98l88 90q27 25 47 33t52 8z" glyph-name="scommaaccent" horiz-adv-x="888" unicode="ș"/><glyph d="M506 -113h129v-104q0 -51 -23 -98l-45 -95h-71l73 158h-63v139zM1065 1339h-449v-1339h-102v1339h-446v56l38 39h920l39 -39v-56z" glyph-name="uni021A" horiz-adv-x="1130" unicode="Ț"/><glyph d="M281 -113h129v-104q0 -51 -23 -98l-43 -95h-72l72 158h-63v139zM231 1268h97v-244h243v-84h-243v-702q0 -37 28 -66l62 -61q27 -27 67 -27h86v-57l-28 -27h-86q-33 0 -53 8t-44 33l-88 88q-41 41 -41 100v711h-170v57l27 27h143v244z" glyph-name="uni021B" horiz-adv-x="677" unicode="ț"/><glyph d="M373 1434h557l39 -39v-56h-555q-43 0 -70 -26l-61 -64q-27 -27 -27 -63v-422h592v-94h-592v-422q0 -37 27 -64l61 -61q27 -29 70 -29h555v-55l-39 -39h-385l-29 -53q31 6 68 6q70 -8 108 -48t37 -103q0 -64 -43 -106t-119 -42h-110v63h106q33 0 59 27q26 28 26 66t-27 60 q-26 22 -61 21q-36 0 -99 -28l-55 53l40 84h-73q-33 0 -51 8t-43 33l-89 86q-39 39 -38 96v987q0 57 38 97l89 86q25 25 43 33t51 8z" glyph-name="uni0228" horiz-adv-x="1075" unicode="Ȩ"/><glyph d="M614 940h-256q-41 0 -67 -27l-64 -63q-27 -29 -26 -64v-219h571v219q0 35 -27 64l-63 63q-27 27 -68 27zM330 1024h313q35 0 53 -8t45 -33l88 -90q39 -39 39 -98v-285l-26 -27h-641v-245q0 -35 26 -64l64 -63q27 -27 67 -27h256q41 0 68 27l41 43l65 -66l-47 -47 q-27 -25 -46 -33t-52 -8h-164l-28 -53q25 4 42 4h25q70 -8 108 -48t38 -102q0 -61 -43 -105t-119 -44h-111v65h107q32 0 58 26q26 25 26 65t-25 60t-61 23q-36 2 -101 -28l-55 53l41 84h-51q-36 0 -54 8t-45 33l-88 90q-39 39 -39 98v566q0 59 39 98l88 90q27 25 45 33t54 8 z" glyph-name="uni0229" horiz-adv-x="958" unicode="ȩ"/><glyph d="M502 1339q-41 0 -68 -26l-155 -154q-29 -29 -29 -65v-754q0 -37 29 -66l155 -153q27 -27 68 -27h356q41 0 68 27l155 153q29 29 29 66v754q0 36 -29 65l-155 154q-27 27 -68 26h-356zM461 1434h438q33 0 51 -8t43 -33l181 -179q39 -39 38 -96v-803q0 -57 -38 -96 l-181 -178q-25 -25 -43 -33t-51 -8h-438q-33 0 -51 8t-43 33l-181 178q-39 39 -39 96v803q0 57 39 96l181 179q25 25 43 33t51 8zM817 1706h107v-104h-107v104zM436 1706h107v-104h-107v104zM424 1976h512v-88h-512v88z" glyph-name="uni022A" horiz-adv-x="1357" unicode="Ȫ"/><glyph d="M641 940h-283q-41 0 -67 -27l-64 -63q-29 -29 -28 -64v-548q0 -35 28 -64l64 -63q25 -27 67 -27h283q41 0 68 27l63 63q29 29 29 64v548q0 35 -29 64l-63 63q-27 27 -68 27zM328 1024h344q33 0 52 -8t44 -33l88 -90q41 -39 41 -98v-566q0 -59 -41 -98l-88 -90 q-25 -25 -44 -33t-52 -8h-344q-32 0 -52 8t-45 33l-88 90q-41 39 -41 98v566q0 59 41 98l88 90q25 25 45 33t52 8zM637 1434h106v-103h-106v103zM256 1434h106v-103h-106v103zM244 1618h512v-86h-512v86z" glyph-name="uni022B" horiz-adv-x="995" unicode="ȫ"/><glyph d="M330 1552h123l223 -266l-49 -45l-236 236l-235 -236l-52 45z" glyph-name="circumflex" horiz-adv-x="780" unicode="ˆ"/><glyph d="M391 1307l236 235l49 -45l-223 -266h-123l-226 266l52 45z" glyph-name="caron" horiz-adv-x="780" unicode="ˇ"/><glyph d="M395 1397q74 0 134 34t94 93l61 -31q-39 -82 -118 -132t-172 -50t-171 50t-119 134l64 29q31 -57 92 -92t135 -35z" glyph-name="breve" horiz-adv-x="786" unicode="˘"/><glyph d="M104 1450h107v-104h-107v104z" glyph-name="dotaccent" horiz-adv-x="315" unicode="˙"/><glyph d="M285 1550q-45 0 -77 -34t-32 -78q0 -45 32 -79t77 -34t75 34t31 79q-1 44 -31 78t-75 34zM285 1626q76 0 129 -55t53 -133t-53 -133t-129 -55t-130 54q-54 56 -55 134q0 78 54 133t131 55z" glyph-name="ring" horiz-adv-x="567" unicode="˚"/><glyph d="M176 -154q0 -56 36 -77q36 -20 73 -21h100v-86h-121q-82 0 -130 47t-48 117q0 123 119 182h63q-92 -82 -92 -162z" glyph-name="ogonek" horiz-adv-x="471" unicode="˛"/><glyph d="M315 1466q-85 0 -165 -116l-46 30q76 122 132 153q34 19 74 19t68 -14t98 -70t128 -55q58 0 139 111l41 -27q-78 -170 -186 -170q-66 -1 -154 69t-129 70z" glyph-name="tilde" horiz-adv-x="886" unicode="˜"/><glyph d="M449 1286l215 254l69 -65l-233 -234zM104 1286l213 254l72 -65l-235 -234z" glyph-name="hungarumlaut" horiz-adv-x="837" unicode="˝"/><glyph d="M133 -219h107v-105h-107v105z" glyph-name="dotbelowcomb" horiz-adv-x="0" unicode="̣"/><glyph d="M121 -113h129v-104q0 -51 -23 -98l-45 -95h-71l73 158h-63v139z" glyph-name="uni0326" horiz-adv-x="0" unicode="̦"/><glyph d="M330 -78h123l225 -266l-51 -47l-236 237l-235 -237l-50 47z" glyph-name="uni032D" horiz-adv-x="0" unicode="̭"/><glyph d="M98 -240h512v-88h-512v88z" glyph-name="uni0331" horiz-adv-x="0" unicode="̱"/><glyph glyph-name="Delta" horiz-adv-x="1228" unicode="Δ"/><glyph glyph-name="Omega" horiz-adv-x="1228" unicode="Ω"/><glyph glyph-name="mu" horiz-adv-x="1228" unicode="μ"/><glyph glyph-name="pi" horiz-adv-x="1228" unicode="π"/><glyph d="M545 -219h106v-105h-106v105zM860 674h-565v-580h565q41 0 70 27l61 61q27 29 27 66v272q0 37 -27 66l-61 61q-29 27 -70 27zM295 1339v-571h496q41 0 67 27l62 61q29 29 28 66v264q1 36 -28 63l-62 62q-27 29 -67 28h-496zM831 1434q33 0 51 -8t44 -33l86 -86 q39 -39 39 -97v-313q0 -55 -33 -90l-43 -43q-4 -4 -4 -8t4 -6l108 -109q37 -39 37 -96v-322q0 -57 -37 -96l-88 -86q-25 -25 -43 -33t-51 -8h-711v1395l39 39h602z" glyph-name="uni1E04" horiz-adv-x="1228" unicode="Ḅ"/><glyph d="M469 -219h106v-105h-106v105zM655 938h-82q-31 0 -55 -12l-287 -135v-553q0 -37 27 -66l64 -61q27 -27 67 -27h266q41 0 68 27l63 61q27 29 27 66v548q0 35 -27 64l-63 61q-27 27 -68 27zM231 1468v-579l244 112q45 20 92 21h117q35 0 54 -8t44 -33l88 -88 q39 -41 39 -100v-564q0 -59 -39 -100l-88 -88q-27 -25 -45 -33t-53 -8h-326q-33 0 -51 8t-45 33l-88 88q-41 41 -41 100v1213l29 26h69z" glyph-name="uni1E05" horiz-adv-x="1011" unicode="ḅ"/><glyph d="M584 -219h106v-105h-106v105zM293 1339v-1245h502q41 0 67 27l156 153q29 29 29 66v754q0 36 -29 65l-156 154q-27 27 -67 26h-502zM836 1434q33 0 51 -8t43 -33l180 -179q39 -39 39 -96v-803q0 -57 -39 -96l-180 -178q-25 -25 -43 -33t-51 -8h-646v1395l39 39h607z" glyph-name="uni1E0C" horiz-adv-x="1296" unicode="Ḍ"/><glyph d="M436 -219h107v-105h-107v105zM778 938h-407q-41 0 -68 -27l-76 -73q-27 -27 -26 -64v-536q0 -37 26 -64l64 -63q27 -27 67 -27h146q31 0 55 12l219 103v739zM778 1468h70l26 -26v-1442h-86l-18 100l-162 -75q-49 -25 -104 -25h-174q-36 0 -54 8t-45 33l-88 88 q-41 41 -41 100v553q0 59 41 101l101 98q25 27 44 35t54 8h436v444z" glyph-name="uni1E0D" horiz-adv-x="1005" unicode="ḍ"/><glyph d="M379 -240h512v-88h-512v88zM293 1339v-1245h502q41 0 67 27l156 153q29 29 29 66v754q0 36 -29 65l-156 154q-27 27 -67 26h-502zM836 1434q33 0 51 -8t43 -33l180 -179q39 -39 39 -96v-803q0 -57 -39 -96l-180 -178q-25 -25 -43 -33t-51 -8h-646v1395l39 39h607z" glyph-name="uni1E0E" horiz-adv-x="1296" unicode="Ḏ"/><glyph d="M240 -240h512v-88h-512v88zM778 938h-407q-41 0 -68 -27l-76 -73q-27 -27 -26 -64v-536q0 -37 26 -64l64 -63q27 -27 67 -27h146q31 0 55 12l219 103v739zM778 1468h70l26 -26v-1442h-86l-18 100l-162 -75q-49 -25 -104 -25h-174q-36 0 -54 8t-45 33l-88 88 q-41 41 -41 100v553q0 59 41 101l101 98q25 27 44 35t54 8h436v444z" glyph-name="uni1E0F" horiz-adv-x="1005" unicode="ḏ"/><glyph d="M573 -78h123l226 -266l-52 -47l-235 237l-236 -237l-51 47zM293 1339v-1245h502q41 0 67 27l156 153q29 29 29 66v754q0 36 -29 65l-156 154q-27 27 -67 26h-502zM836 1434q33 0 51 -8t43 -33l180 -179q39 -39 39 -96v-803q0 -57 -39 -96l-180 -178q-25 -25 -43 -33 t-51 -8h-646v1395l39 39h607z" glyph-name="uni1E12" horiz-adv-x="1296" unicode="Ḓ"/><glyph d="M434 -78h123l225 -266l-51 -45l-235 235l-236 -235l-49 45zM778 938h-407q-41 0 -68 -27l-76 -73q-27 -27 -26 -64v-536q0 -37 26 -64l64 -63q27 -27 67 -27h146q31 0 55 12l219 103v739zM778 1468h70l26 -26v-1442h-86l-18 100l-162 -75q-49 -25 -104 -25h-174 q-36 0 -54 8t-45 33l-88 88q-41 41 -41 100v553q0 59 41 101l101 98q25 27 44 35t54 8h436v444z" glyph-name="uni1E13" horiz-adv-x="1005" unicode="ḓ"/><glyph d="M641 -219h107v-105h-107v105zM1200 1434v-1434h-102v694h-805v-694h-103v1395l39 39h64v-643h805v604l39 39h63z" glyph-name="uni1E24" horiz-adv-x="1388" unicode="Ḥ"/><glyph d="M477 -219h107v-105h-107v105zM238 1468v-579l245 112q45 23 92 23h117q35 0 53 -9t46 -34l88 -88q39 -41 39 -100v-793h-97v786q0 35 -26 64l-64 61q-27 27 -67 27h-82q-31 0 -56 -12l-288 -135v-791h-97v1440l29 28h68z" glyph-name="uni1E25" unicode="ḥ"/><glyph d="M309 1434v-1434h-104v1395l39 39h65zM395 1640h107v-104h-107v104zM14 1640h107v-104h-107v104zM115 1794l215 254l69 -66l-233 -233z" glyph-name="uni1E2E" horiz-adv-x="512" unicode="Ḯ"/><glyph d="M160 1024h96v-1024h-96v1024zM330 1401h108v-103h-108v103zM-51 1401h106v-103h-106v103zM51 1487l213 254l72 -66l-236 -233z" glyph-name="uni1E2F" horiz-adv-x="403" unicode="ḯ"/><glyph d="M526 -219h109v-105h-109v105zM297 1434v-1340h670v-94h-734l-38 39v1356l38 39h64z" glyph-name="uni1E36" unicode="Ḷ"/><glyph d="M270 -219h107v-105h-107v105zM252 1468v-1230q0 -37 29 -64l63 -63q29 -27 66 -27h79v-84h-108q-33 0 -52 8t-44 33l-86 86q-43 43 -43 104v1209l28 28h68z" glyph-name="uni1E37" horiz-adv-x="552" unicode="ḷ"/><glyph d="M457 -78h123l225 -266l-49 -47l-238 237l-235 -237l-50 47zM297 1434v-1340h670v-94h-734l-38 39v1356l38 39h64z" glyph-name="uni1E3C" unicode="Ḽ"/><glyph d="M215 -78h123l223 -266l-49 -47l-236 237l-235 -237l-51 47zM252 1468v-1230q0 -37 29 -64l63 -63q29 -27 66 -27h79v-84h-108q-33 0 -52 8t-44 33l-86 86q-43 43 -43 104v1209l28 28h68z" glyph-name="uni1E3D" horiz-adv-x="552" unicode="ḽ"/><glyph d="M1655 0h-103v1339h-116l-424 -1339h-203l-422 1339h-117v-1339h-104v1395l39 39h254l422 -1340h61l420 1340h254l39 -39v-1395zM764 1739l215 254l70 -66l-236 -233z" glyph-name="uni1E3E" horiz-adv-x="1826" unicode="Ḿ"/><glyph d="M510 1024h125q33 0 52 -8t44 -33l94 -94l244 115q45 20 92 20h125q33 0 52 -8t44 -33l91 -90q39 -39 38 -100v-793h-96v786q0 35 -29 64l-61 63q-27 25 -68 25h-90q-29 0 -55 -10l-252 -119v-809h-96v786q0 35 -29 64l-63 63q-25 25 -68 25h-88q-31 0 -55 -10l-254 -119 v-809h-96v1024h84l20 -117l203 97q45 20 92 20zM682 1329l215 252l70 -63l-236 -236z" glyph-name="uni1E3F" horiz-adv-x="1609" unicode="ḿ"/><glyph d="M1085 1434h103v-1395l-39 -39h-221l-555 1339h-90v-1339h-103v1395l39 39h217l561 -1340h88v1340zM631 1909h106v-105h-106v105z" glyph-name="uni1E44" horiz-adv-x="1363" unicode="Ṅ"/><glyph d="M567 1024h125q33 0 52 -8t44 -33l89 -90q41 -39 41 -98v-795h-99v786q0 35 -26 64l-64 63q-27 27 -67 27h-89q-31 0 -55 -12l-289 -135v-793h-96v1024h82l23 -131l237 111q45 20 92 20zM467 1460h106v-104h-106v104z" glyph-name="uni1E45" unicode="ṅ"/><glyph d="M631 -219h106v-105h-106v105zM1085 1434h103v-1395l-39 -39h-221l-555 1339h-90v-1339h-103v1395l39 39h217l561 -1340h88v1340z" glyph-name="uni1E46" horiz-adv-x="1363" unicode="Ṇ"/><glyph d="M471 -219h109v-105h-109v105zM567 1024h125q33 0 52 -8t44 -33l89 -90q41 -39 41 -98v-795h-99v786q0 35 -26 64l-64 63q-27 25 -67 25h-89q-31 0 -55 -10l-289 -135v-793h-96v1024h82l23 -131l237 111q45 20 92 20z" glyph-name="uni1E47" unicode="ṇ"/><glyph d="M621 -117h122l226 -266l-49 -45l-238 235l-236 -235l-49 45zM1085 1434h103v-1395l-39 -39h-221l-555 1339h-90v-1339h-103v1395l39 39h217l561 -1340h88v1340z" glyph-name="uni1E4A" horiz-adv-x="1363" unicode="Ṋ"/><glyph d="M457 -78h123l225 -266l-49 -47l-238 237l-235 -237l-50 47zM567 1024h125q33 0 52 -8t44 -33l89 -90q41 -39 41 -98v-795h-99v786q0 35 -26 64l-64 63q-27 25 -67 25h-89q-31 0 -55 -10l-289 -135v-793h-96v1024h82l23 -131l237 111q45 20 92 20z" glyph-name="uni1E4B" unicode="ṋ"/><glyph d="M502 1339q-41 0 -68 -26l-155 -154q-29 -29 -29 -65v-754q0 -37 29 -66l155 -153q27 -27 68 -27h356q41 0 68 27l155 153q29 29 29 66v754q0 36 -29 65l-155 154q-27 27 -68 26h-356zM461 1434h438q33 0 51 -8t43 -33l181 -179q39 -39 38 -96v-803q0 -57 -38 -96 l-181 -178q-25 -25 -43 -33t-51 -8h-438q-33 0 -51 8t-43 33l-181 178q-39 39 -39 96v803q0 57 39 96l181 179q25 25 43 33t51 8zM548 1735q38 -1 66 -15t98 -70t129 -55q59 0 138 113l43 -29q-78 -170 -188 -170q-55 0 -115 43q-23 16 -66 49q-60 46 -102 48 q-87 0 -166 -117l-45 31q83 123 126 148q44 24 82 24zM537 1821l215 252l69 -64l-233 -235z" glyph-name="uni1E4C" horiz-adv-x="1357" unicode="Ṍ"/><glyph d="M641 940h-283q-41 0 -67 -27l-64 -63q-29 -29 -28 -64v-548q0 -35 28 -64l64 -63q27 -27 67 -27h283q43 0 68 27l63 63q29 29 29 64v548q0 35 -29 64l-63 63q-25 27 -68 27zM328 1024h344q33 0 52 -8t44 -33l88 -90q41 -39 41 -98v-566q0 -59 -41 -98l-88 -90 q-25 -25 -44 -33t-52 -8h-344q-32 0 -52 8t-45 33l-88 90q-41 39 -41 98v566q0 59 41 98l88 90q25 25 45 33t52 8zM371 1374q-86 0 -166 -117l-45 31q25 35 39 55q77 110 147 115q16 2 38 2q44 0 132 -74q86 -66 137 -65q66 0 146 111l43 -27q-78 -170 -189 -170 q-55 1 -96 29t-73 52l-44 33q-33 25 -69 25zM356 1563l215 252l70 -64l-233 -235z" glyph-name="uni1E4D" horiz-adv-x="995" unicode="ṍ"/><glyph d="M502 1339q-41 0 -68 -26l-155 -154q-29 -29 -29 -65v-754q0 -37 29 -66l155 -153q27 -27 68 -27h356q41 0 68 27l155 153q29 29 29 66v754q0 36 -29 65l-155 154q-27 27 -68 26h-356zM461 1434h438q33 0 51 -8t43 -33l181 -179q39 -39 38 -96v-803q0 -57 -38 -96 l-181 -178q-25 -25 -43 -33t-51 -8h-438q-33 0 -51 8t-43 33l-181 178q-39 39 -39 96v803q0 57 39 96l181 179q25 25 43 33t51 8zM424 1679h512v-88h-512v88zM539 1976l69 66l215 -254l-51 -45z" glyph-name="uni1E50" horiz-adv-x="1357" unicode="Ṑ"/><glyph d="M641 940h-283q-41 0 -67 -27l-64 -63q-29 -29 -28 -64v-548q0 -35 28 -64l64 -63q25 -27 67 -27h283q41 0 68 27l63 63q29 29 29 64v548q0 35 -29 64l-63 63q-27 27 -68 27zM328 1024h344q33 0 52 -8t44 -33l88 -90q41 -39 41 -98v-566q0 -59 -41 -98l-88 -90 q-25 -25 -44 -33t-52 -8h-344q-32 0 -52 8t-45 33l-88 90q-41 39 -41 98v566q0 59 41 98l88 90q25 25 45 33t52 8zM244 1434h512v-88h-512v88zM358 1751l70 66l215 -254l-51 -47z" glyph-name="uni1E51" horiz-adv-x="995" unicode="ṑ"/><glyph d="M502 1339q-41 0 -68 -26l-155 -154q-29 -29 -29 -65v-754q0 -37 29 -66l155 -153q27 -27 68 -27h356q41 0 68 27l155 153q29 29 29 66v754q0 36 -29 65l-155 154q-27 27 -68 26h-356zM461 1434h438q33 0 51 -8t43 -33l181 -179q39 -39 38 -96v-803q0 -57 -38 -96 l-181 -178q-25 -25 -43 -33t-51 -8h-438q-33 0 -51 8t-43 33l-181 178q-39 39 -39 96v803q0 57 39 96l181 179q25 25 43 33t51 8zM424 1679h512v-88h-512v88zM537 1788l215 254l69 -66l-233 -233z" glyph-name="uni1E52" horiz-adv-x="1357" unicode="Ṓ"/><glyph d="M641 940h-283q-41 0 -67 -27l-64 -63q-29 -29 -28 -64v-548q0 -35 28 -64l64 -63q25 -27 67 -27h283q41 0 68 27l63 63q29 29 29 64v548q0 35 -29 64l-63 63q-27 27 -68 27zM328 1024h344q33 0 52 -8t44 -33l88 -90q41 -39 41 -98v-566q0 -59 -41 -98l-88 -90 q-25 -25 -44 -33t-52 -8h-344q-32 0 -52 8t-45 33l-88 90q-41 39 -41 98v566q0 59 41 98l88 90q25 25 45 33t52 8zM244 1434h512v-88h-512v88zM356 1561l215 251l70 -63l-233 -236z" glyph-name="uni1E53" horiz-adv-x="995" unicode="ṓ"/><glyph d="M508 -219h106v-105h-106v105zM406 1434h509l31 -29v-66h-506q-61 0 -98 -39l-90 -92q-39 -41 -39 -90v-82q0 -67 66 -96l612 -311q121 -61 121 -183v-133q0 -86 -70 -157l-92 -90q-63 -66 -170 -66h-541l-28 29v67h569q61 0 98 37l90 90q41 41 41 90v133q0 27 -17 55 t-48 42l-670 342q-35 18 -49 44t-14 70v127q0 47 10 75t39 56l123 123q33 34 57 44t66 10z" glyph-name="uni1E62" horiz-adv-x="1120" unicode="Ṣ"/><glyph d="M391 -219h107v-105h-107v105zM332 1024h375l28 -27v-57h-375q-43 0 -69 -29l-62 -63q-27 -27 -26 -64v-51q0 -45 45 -67l440 -226q94 -47 94 -137v-67q0 -66 -53 -119l-67 -68q-49 -49 -132 -49h-397l-27 27v57h422q41 0 68 27l63 63q27 29 27 64v61q0 45 -45 70 l-483 245q-51 27 -52 91v90q0 59 39 98l88 90q27 25 47 33t52 8z" glyph-name="uni1E63" horiz-adv-x="888" unicode="ṣ"/><glyph d="M512 -219h109v-105h-109v105zM1065 1339h-449v-1339h-102v1339h-446v56l38 39h920l39 -39v-56z" glyph-name="uni1E6C" horiz-adv-x="1130" unicode="Ṭ"/><glyph d="M262 -219h107v-105h-107v105zM231 1268h97v-244h243v-84h-243v-702q0 -37 28 -66l62 -61q27 -27 67 -27h86v-57l-28 -27h-86q-33 0 -53 8t-44 33l-88 88q-41 41 -41 100v711h-170v57l27 27h143v244z" glyph-name="uni1E6D" horiz-adv-x="677" unicode="ṭ"/><glyph d="M307 -240h512v-88h-512v88zM1065 1339h-449v-1339h-102v1339h-446v56l38 39h920l39 -39v-56z" glyph-name="uni1E6E" horiz-adv-x="1130" unicode="Ṯ"/><glyph d="M84 -240h510v-88h-510v88zM231 1268h97v-244h243v-84h-243v-702q0 -37 28 -66l62 -61q27 -27 67 -27h86v-57l-28 -27h-86q-33 0 -53 8t-44 33l-88 88q-41 41 -41 100v711h-170v57l27 27h143v244z" glyph-name="uni1E6F" horiz-adv-x="677" unicode="ṯ"/><glyph d="M502 -78h123l225 -266l-49 -47l-238 237l-235 -237l-49 47zM1065 1339h-449v-1339h-102v1339h-446v56l38 39h920l39 -39v-56z" glyph-name="uni1E70" horiz-adv-x="1130" unicode="Ṱ"/><glyph d="M279 -78h122l224 -266l-50 -47l-235 237l-236 -237l-51 47zM231 1268h97v-244h243v-84h-243v-702q0 -37 28 -66l62 -61q27 -27 67 -27h86v-57l-28 -27h-86q-33 0 -53 8t-44 33l-88 88q-41 41 -41 100v711h-170v57l27 27h143v244z" glyph-name="uni1E71" horiz-adv-x="677" unicode="ṱ"/><glyph d="M1858 1434h34l66 -31l-354 -1403h-240l-320 1339h-79l-322 -1339h-240l-354 1403l66 31h35l327 -1340h94l310 1340h245l310 -1340h94zM862 1894l70 66l215 -254l-51 -45z" glyph-name="Wgrave" horiz-adv-x="2004" unicode="Ẁ"/><glyph d="M1518 1024h45l49 -25l-275 -999h-221l-264 940h-64l-264 -940h-219l-276 999l49 25h47l242 -940h96l256 940h203l258 -940h96zM678 1485l70 65l215 -254l-50 -45z" glyph-name="wgrave" horiz-adv-x="1638" unicode="ẁ"/><glyph d="M1858 1434h34l66 -31l-354 -1403h-240l-320 1339h-79l-322 -1339h-240l-354 1403l66 31h35l327 -1340h94l310 1340h245l310 -1340h94zM860 1706l215 254l70 -66l-236 -233z" glyph-name="Wacute" horiz-adv-x="2004" unicode="Ẃ"/><glyph d="M1518 1024h45l49 -25l-275 -999h-221l-264 940h-64l-264 -940h-219l-276 999l49 25h47l242 -940h96l256 940h203l258 -940h96zM678 1296l213 254l70 -65l-234 -234z" glyph-name="wacute" horiz-adv-x="1638" unicode="ẃ"/><glyph d="M1858 1434h34l66 -31l-354 -1403h-240l-320 1339h-79l-322 -1339h-240l-354 1403l66 31h35l327 -1340h94l310 1340h245l310 -1340h94zM1141 1870h106v-105h-106v105zM760 1870h106v-105h-106v105z" glyph-name="Wdieresis" horiz-adv-x="2004" unicode="Ẅ"/><glyph d="M1518 1024h45l49 -25l-275 -999h-221l-264 940h-64l-264 -940h-219l-276 999l49 25h47l242 -940h96l256 940h203l258 -940h96zM956 1460h107v-104h-107v104zM575 1460h107v-104h-107v104z" glyph-name="wdieresis" horiz-adv-x="1638" unicode="ẅ"/><glyph d="M532 -219h109v-105h-109v105zM211 94h854v-55l-39 -39h-879l-38 39v201l821 981v118h-778v56l38 39h805l37 -39v-205l-821 -983v-113z" glyph-name="uni1E92" horiz-adv-x="1173" unicode="Ẓ"/><glyph d="M436 -219h107v-105h-107v105zM201 84h676v-57l-29 -27h-717l-29 27v186l658 645v82h-621v57l27 27h661l29 -27v-170l-655 -647v-96z" glyph-name="uni1E93" horiz-adv-x="976" unicode="ẓ"/><glyph d="M436 -219h107v-105h-107v105zM778 508h-407q-41 0 -68 -25l-76 -75q-27 -27 -26 -64v-106q0 -35 26 -64l64 -63q27 -27 67 -27h146q31 0 55 12l219 105v307zM639 1024q33 0 52 -8t44 -33l99 -98q41 -41 40 -101v-784h-86l-18 100l-162 -75q-51 -25 -104 -25h-174 q-34 0 -54 8t-45 33l-88 90q-39 39 -39 98v123q0 59 39 101l101 98q25 27 44 35t54 8h436v182q0 37 -28 64l-72 73q-27 27 -68 27h-446v57l29 27h446z" glyph-name="uni1EA1" horiz-adv-x="987" unicode="ạ"/><glyph d="M590 -219h106v-105h-106v105zM936 580l-238 759h-108l-238 -759h584zM520 1434h248l453 -1405l-64 -29h-37l-153 485h-645l-154 -485h-37l-63 29zM584 2011h123l225 -266l-51 -47l-236 235l-235 -235l-52 47z" glyph-name="uni1EAC" horiz-adv-x="1288" unicode="Ậ"/><glyph d="M436 -219h107v-105h-107v105zM778 508h-407q-41 0 -68 -25l-76 -75q-27 -27 -26 -64v-106q0 -35 26 -64l64 -63q27 -27 67 -27h146q31 0 55 12l219 105v307zM639 1024q33 0 52 -8t44 -33l99 -98q41 -41 40 -101v-784h-86l-18 100l-162 -75q-51 -25 -104 -25h-174 q-34 0 -54 8t-45 33l-88 90q-41 39 -41 98v123q0 59 41 101l101 98q25 27 44 35t54 8h436v182q0 37 -28 64l-72 73q-27 27 -68 27h-446v57l29 27h446zM442 1602h123l226 -267l-50 -45l-237 236l-236 -236l-49 45z" glyph-name="uni1EAD" horiz-adv-x="987" unicode="ậ"/><glyph d="M479 -219h107v-105h-107v105zM373 1434h557l39 -39v-56h-555q-43 0 -70 -26l-61 -64q-27 -27 -27 -63v-422h592v-94h-592v-422q0 -37 27 -64l61 -61q29 -29 70 -29h555v-55l-39 -39h-557q-33 0 -51 8t-43 33l-89 86q-39 39 -38 96v987q0 57 38 97l89 86q25 25 43 33t51 8 z" glyph-name="uni1EB8" horiz-adv-x="1075" unicode="Ẹ"/><glyph d="M432 -219h109v-105h-109v105zM614 940h-256q-41 0 -67 -27l-64 -63q-27 -29 -26 -64v-219h571v219q0 35 -27 64l-63 63q-27 27 -68 27zM330 1024h313q33 0 52 -8t46 -33l88 -90q39 -39 39 -98v-285l-26 -27h-641v-245q0 -35 26 -64l64 -63q27 -27 67 -27h256q41 0 68 27 l41 43l65 -66l-47 -47q-27 -25 -46 -33t-52 -8h-313q-36 0 -54 8t-45 33l-88 90q-39 39 -39 98v566q0 59 39 98l88 90q27 25 45 33t54 8z" glyph-name="uni1EB9" horiz-adv-x="958" unicode="ẹ"/><glyph d="M373 1434h557l39 -39v-56h-555q-41 0 -70 -26l-61 -62q-27 -29 -27 -65v-422h592v-94h-592v-422q0 -37 27 -64l61 -61q29 -29 70 -29h555v-55l-39 -39h-557q-33 0 -51 8t-43 33l-89 86q-37 39 -36 96v987q0 57 36 97l89 86q25 25 43 33t51 8zM465 1925q-87 0 -166 -117 l-45 33q80 121 123 146q43 24 83 24t68 -14t98 -70t119 -55q66 0 148 113l43 -29q-78 -170 -188 -170q-66 0 -170 83q-52 40 -73 48t-40 8z" glyph-name="uni1EBC" horiz-adv-x="1075" unicode="Ẽ"/><glyph d="M614 940h-256q-41 0 -67 -27l-64 -63q-27 -29 -26 -64v-219h571v219q0 35 -27 64l-63 63q-27 27 -68 27zM330 1024h313q35 0 53 -8t45 -33l88 -90q39 -39 39 -98v-285l-26 -27h-641v-245q0 -35 26 -64l64 -63q27 -27 67 -27h256q41 0 68 27l41 43l65 -66l-47 -47 q-27 -25 -45 -33t-53 -8h-313q-36 0 -54 8t-45 33l-88 90q-39 39 -39 100v564q0 59 39 98l88 90q27 25 45 33t54 8zM346 1602q41 0 69 -14q29 -14 99 -68q70 -56 119 -56q66 0 147 111l43 -29q-78 -168 -188 -168q-69 0 -170 81q-53 41 -74 50q-20 8 -39 9q-86 0 -166 -117 l-45 31q78 118 120 144q44 26 85 26z" glyph-name="uni1EBD" horiz-adv-x="958" unicode="ẽ"/><glyph d="M477 -219h107v-105h-107v105zM371 1434h559l39 -39v-56h-555q-43 0 -70 -26l-61 -64q-27 -27 -27 -63v-422h592v-94h-592v-422q0 -37 27 -64l61 -61q27 -29 70 -29h555v-55l-39 -39h-559q-31 0 -49 8t-43 33l-89 86q-39 39 -38 96v987q0 57 38 97l89 86q25 25 43 33t49 8 zM532 2011h123l224 -266l-50 -47l-235 235l-236 -235l-51 47z" glyph-name="uni1EC6" horiz-adv-x="1075" unicode="Ệ"/><glyph d="M432 -219h109v-105h-109v105zM614 940h-256q-41 0 -67 -27l-64 -63q-27 -29 -26 -64v-219h571v219q0 35 -27 64l-63 63q-27 27 -68 27zM330 1024h313q33 0 52 -8t46 -33l88 -90q39 -39 39 -98v-285l-26 -27h-641v-245q0 -35 26 -64l64 -63q27 -27 67 -27h256q41 0 68 27 l41 43l65 -66l-47 -47q-27 -25 -46 -33t-52 -8h-313q-36 0 -54 8t-45 33l-88 90q-39 39 -39 98v566q0 59 39 98l88 90q27 25 45 33t54 8zM420 1602h123l223 -267l-49 -45l-236 236l-235 -236l-51 45z" glyph-name="uni1EC7" horiz-adv-x="958" unicode="ệ"/><glyph d="M205 -219h106v-105h-106v105zM309 1434v-1434h-102v1395l39 39h63z" glyph-name="uni1ECA" horiz-adv-x="512" unicode="Ị"/><glyph d="M170 -219h109v-105h-109v105zM176 1024h96v-1024h-96v1024zM162 1395h125v-133h-125v133z" glyph-name="uni1ECB" horiz-adv-x="434" unicode="ị"/><glyph d="M629 -195h143v-147h-143v147zM502 1339q-41 0 -68 -26l-155 -154q-29 -29 -29 -65v-754q0 -37 29 -66l155 -153q27 -27 68 -27h356q41 0 68 27l155 153q29 29 29 66v754q0 36 -29 65l-155 154q-27 27 -68 26h-356zM461 1434h438q33 0 51 -8t43 -33l181 -179 q39 -39 38 -96v-803q0 -57 -38 -96l-181 -178q-25 -25 -43 -33t-51 -8h-438q-33 0 -51 8t-43 33l-181 178q-39 39 -39 96v803q0 57 39 96l181 179q25 25 43 33t51 8z" glyph-name="uni1ECC" horiz-adv-x="1357" unicode="Ọ"/><glyph d="M446 -219h107v-105h-107v105zM641 940h-283q-41 0 -67 -27l-64 -63q-29 -29 -28 -64v-548q0 -35 28 -64l64 -63q25 -27 67 -27h283q41 0 68 27l63 63q29 29 29 64v548q0 35 -29 64l-63 63q-27 27 -68 27zM328 1024h344q33 0 52 -8t44 -33l88 -90q41 -39 41 -98v-566 q0 -59 -41 -98l-88 -90q-25 -25 -44 -33t-52 -8h-344q-32 0 -52 8t-45 33l-88 90q-41 39 -41 98v566q0 59 41 98l88 90q25 25 45 33t52 8z" glyph-name="uni1ECD" horiz-adv-x="995" unicode="ọ"/><glyph d="M627 -219h106v-105h-106v105zM502 1339q-41 0 -68 -26l-155 -154q-29 -29 -29 -65v-754q0 -37 29 -66l155 -153q27 -27 68 -27h356q41 0 68 27l155 153q29 29 29 66v754q0 36 -29 65l-155 154q-27 27 -68 26h-356zM461 1434h438q33 0 51 -8t43 -33l181 -179 q39 -39 38 -96v-803q0 -57 -38 -96l-181 -178q-25 -25 -43 -33t-51 -8h-438q-33 0 -51 8t-43 33l-181 178q-39 39 -39 96v803q0 57 39 96l181 179q25 25 43 33t51 8zM618 2011h123l226 -266l-52 -47l-235 235l-236 -235l-51 47z" glyph-name="uni1ED8" horiz-adv-x="1357" unicode="Ộ"/><glyph d="M446 -219h107v-105h-107v105zM641 940h-283q-43 0 -67 -27l-64 -63q-29 -29 -28 -64v-548q0 -35 28 -64l64 -63q25 -27 67 -27h283q41 0 68 27l63 63q29 29 29 64v548q0 35 -29 64l-63 63q-27 27 -68 27zM328 1024h344q33 0 52 -8t44 -33l88 -90q41 -39 41 -98v-566 q0 -59 -41 -98l-88 -90q-25 -25 -44 -33t-52 -8h-344q-32 0 -52 8t-45 33l-88 90q-41 39 -41 98v566q0 59 41 98l88 90q25 25 45 33t52 8zM438 1602h123l225 -267l-51 -45l-235 236l-236 -236l-51 45z" glyph-name="uni1ED9" horiz-adv-x="995" unicode="ộ"/><glyph d="M623 -219h108v-105h-108v105zM1163 1434v-1211q0 -57 -39 -96l-86 -86q-25 -25 -43 -33t-51 -8h-534q-34 0 -52 8t-43 33l-86 86q-39 39 -39 96v1172l39 39h64v-1186q0 -37 29 -64l61 -63q27 -27 68 -27h452q41 0 68 27l61 63q29 27 29 64v1147l39 39h63z" glyph-name="uni1EE4" horiz-adv-x="1341" unicode="Ụ"/><glyph d="M461 -219h108v-105h-108v105zM809 1024h98v-1024h-82l-22 131l-238 -111q-45 -20 -92 -20h-125q-33 0 -52 8t-44 33l-88 90q-41 39 -41 98v795h96v-786q0 -35 29 -64l63 -63q25 -25 68 -25h88q31 0 55 10l287 135v793z" glyph-name="uni1EE5" horiz-adv-x="1026" unicode="ụ"/><glyph d="M649 526v-526h-102v526h-90l-383 879l61 29h41l340 -811h164l340 811h41l61 -29l-383 -879h-90zM457 1933l69 64l215 -252l-51 -47z" glyph-name="Ygrave" horiz-adv-x="1193" unicode="Ỳ"/><glyph d="M858 1024h55l39 -18l-354 -1033q-2 -3 -12 -33t-16 -42t-22 -46q-14 -34 -28 -54t-36 -51q-22 -32 -46 -52t-65 -50q-40 -30 -137 -57l-15 80q174 43 254 246l29 86h-103l-346 1006l37 18h58l317 -940h72zM362 1540l70 64l215 -252l-51 -47z" glyph-name="ygrave" horiz-adv-x="1005" unicode="ỳ"/><glyph d="M100 653h768v-104h-768v104z" glyph-name="endash" horiz-adv-x="966" unicode="–"/><glyph d="M90 653h1155v-104h-1155v104z" glyph-name="emdash" horiz-adv-x="1335" unicode="—"/><glyph d="M258 1374v-151h-143v110q0 57 24 107l47 100h84l-77 -166h65z" glyph-name="quoteleft" horiz-adv-x="387" unicode="‘"/><glyph d="M125 1540h143v-110q0 -57 -24 -107l-47 -100h-82l75 166h-65v151z" glyph-name="quoteright" horiz-adv-x="387" unicode="’"/><glyph d="M129 139h141v-112q0 -55 -22 -105l-47 -102h-84l78 168h-66v151z" glyph-name="quotesinglbase" horiz-adv-x="387" unicode="‚"/><glyph d="M535 1374v-151h-144v110q0 57 25 107l47 100h84l-78 -166h66zM250 1374v-151h-144v110q0 57 25 107l47 100h84l-78 -166h66z" glyph-name="quotedblleft" horiz-adv-x="657" unicode="“"/><glyph d="M125 1540h143v-110q0 -55 -24 -107l-47 -100h-84l77 166h-65v151zM410 1540h143v-110q0 -55 -25 -107l-47 -100h-84l78 166h-65v151z" glyph-name="quotedblright" horiz-adv-x="636" unicode="”"/><glyph d="M403 139h144v-112q0 -55 -23 -105l-47 -102h-84l76 168h-66v151zM121 139h141v-112q0 -55 -22 -105l-47 -102h-84l77 168h-65v151z" glyph-name="quotedblbase" horiz-adv-x="651" unicode="„"/><glyph d="M424 1475h133l-16 -533l364 21v-117l-364 10l16 -1128h-133l16 1128l-340 -10v117l340 -21z" glyph-name="dagger" horiz-adv-x="991" unicode="†"/><glyph d="M424 1475h133l-16 -533l352 21v-117l-352 10v-510l352 12v-118l-352 22l16 -534h-133l16 532l-340 -20v118l340 -12v510l-340 -10v117l340 -21z" glyph-name="daggerdbl" horiz-adv-x="989" unicode="‡"/><glyph d="M113 737h295v-297h-295v297z" glyph-name="bullet" horiz-adv-x="518" unicode="•"/><glyph d="M813 129h141v-147h-141v147zM455 129h143v-147h-143v147zM98 129h144v-147h-144v147z" glyph-name="ellipsis" horiz-adv-x="1052" unicode="…"/><glyph d="M1178 561h-179q-6 0 -16 -10l-43 -41q-8 -8 -8 -25v-309q0 -18 8 -24l43 -43q10 -10 16 -11h179q8 0 18 11l43 43q6 8 6 24v309q0 17 -6 25l-43 41q-10 10 -18 10zM1821 561h-179q-8 0 -18 -10l-43 -41q-6 -8 -6 -25v-309q0 -18 6 -24l43 -43q10 -10 18 -11h179 q6 0 16 11l43 43q6 8 6 24v309q0 17 -6 23l-43 43q-10 10 -16 10zM993 627h191q35 0 61 -27l49 -49q25 -25 25 -64v-315q0 -37 -25 -61l-49 -50q-27 -27 -61 -26h-191q-35 0 -59 26l-49 50q-27 25 -27 61v315q0 39 27 64l49 49q24 27 59 27zM1634 627h193q33 0 59 -27 l49 -49q25 -25 25 -64v-315q0 -37 -25 -61l-49 -50q-27 -27 -59 -26h-193q-33 0 -59 26l-49 50q-25 25 -25 61v315q0 39 25 64l49 49q26 27 59 27zM426 1331h-178q-6 0 -17 -8l-43 -43q-8 -8 -8 -25v-309q0 -16 8 -24l43 -43q10 -10 17 -11h178q8 0 18 11l43 43q6 8 7 24 v309q-1 17 -7 25l-43 43q-10 8 -18 8zM242 1397h190q35 0 62 -27l49 -49q25 -25 24 -64v-313q0 -39 -24 -63l-49 -50q-27 -27 -62 -26h-190q-35 0 -60 26l-49 50q-27 25 -27 63v313q0 39 27 64l49 49q25 27 60 27zM231 -35l863 1501h92l-860 -1501h-95z" glyph-name="perthousand" horiz-adv-x="2062" unicode="‰"/><glyph d="M111 637l356 332l53 -51l-313 -379l313 -381l-53 -52l-356 332v199z" glyph-name="guilsinglleft" horiz-adv-x="630" unicode="‹"/><glyph d="M113 918l53 51l356 -332v-199l-356 -332l-53 52l313 379z" glyph-name="guilsinglright" horiz-adv-x="630" unicode="›"/><glyph d="M106 -35l975 1469h103l-977 -1469h-101z" glyph-name="fraction" horiz-adv-x="1286" unicode="⁄"/><glyph d="M348 1128v-251h504v-56l-39 -39h-465v-180h447v-57l-39 -37h-408v-256q0 -35 27 -64l61 -61q27 -27 70 -27h555v-57l-39 -39h-559q-31 0 -49 8t-43 33l-88 86q-39 39 -39 98v279h-146v94h146v180h-146v95h146v274q0 59 39 96l88 88q25 25 43 33t49 8h559l39 -39v-57h-555 q-43 0 -70 -27l-61 -61q-27 -29 -27 -64z" glyph-name="Euro" horiz-adv-x="1157" unicode="€"/><glyph d="M1753 547h-82v788h-69l-248 -788h-123l-248 788h-70v-788h-82v858l31 29h162l254 -793h29l254 793h163l29 -29v-858zM707 1354h-271v-807h-82v807h-270v51l29 29h565l29 -29v-51z" glyph-name="trademark" horiz-adv-x="1835" unicode="™"/><glyph glyph-name="partialdiff" horiz-adv-x="1415" unicode="∂"/><glyph glyph-name="emptyset" horiz-adv-x="1415" unicode="∅"/><glyph glyph-name="product" horiz-adv-x="1415" unicode="∏"/><glyph glyph-name="summation" horiz-adv-x="1415" unicode="∑"/><glyph d="M98 651h891v-104h-891v104z" glyph-name="minus" horiz-adv-x="1083" unicode="−"/><glyph glyph-name="radical" horiz-adv-x="1415" unicode="√"/><glyph glyph-name="infinity" horiz-adv-x="1415" unicode="∞"/><glyph glyph-name="integral" horiz-adv-x="1415" unicode="∫"/><glyph d="M424 551q61 0 185 -98t198 -99q94 0 207 152l51 -33q-109 -238 -268 -237q-86 0 -207 90q-31 22 -43 30t-55 36t-68 31q-26 3 -47 3t-47 -6q-80 -17 -170 -148l-51 39q72 109 132 170t130 68q23 2 53 2zM807 807q94 0 207 151l51 -34q-109 -238 -268 -238q-76 0 -160 59 q-36 22 -69 47t-57 39l-36 21q-55 27 -87 27t-58 -7q-80 -18 -170 -147l-51 39q72 109 132 170t130 67q23 3 53 3q59 1 184 -98t199 -99z" glyph-name="approxequal" horiz-adv-x="1167" unicode="≈"/><glyph d="M989 457v-103h-469l-117 -358h-116l119 358h-308v103h340l94 282h-434v103h467l115 348h115l-115 -348h309v-103h-342l-92 -282h434z" glyph-name="notequal" horiz-adv-x="1083" unicode="≠"/><glyph d="M104 106h891v-102h-891v102zM72 887l878 426l37 -88l-803 -385v-84l803 -385l-37 -88l-878 426v178z" glyph-name="lessequal" horiz-adv-x="1091" unicode="≤"/><glyph d="M100 106h891v-102h-891v102zM104 1227l37 88l879 -426v-178l-879 -426l-37 88l803 385v84z" glyph-name="greaterequal" horiz-adv-x="1091" unicode="≥"/><glyph glyph-name="lozenge" horiz-adv-x="1415" unicode="◊"/><glyph d="M772 1024h96v-1024h-96v1024zM758 1395h125v-133h-125v133zM455 1458h86l28 -26v-58h-86q-41 0 -67 -26l-62 -62q-29 -29 -28 -65v-197h221v-84h-221v-956h-97v956h-170v57l27 27h143v205q0 59 41 100l88 88q24 25 44 33t53 8z" glyph-name="uniFB01" horiz-adv-x="1032" unicode="ﬁ"/><glyph d="M455 1458h86l28 -26v-58h-84q-43 0 -69 -26l-62 -62q-29 -29 -28 -65v-197h221v-84h-221v-956h-97v956h-170v57l27 27h143v205q0 59 41 100l88 88q24 25 44 33t53 8zM879 1468v-1230q0 -37 28 -64l64 -63q29 -27 65 -27h80v-84h-108q-32 0 -52 8t-45 33l-86 86 q-43 43 -43 104v1209l29 28h68z" glyph-name="uniFB02" horiz-adv-x="1179" unicode="ﬂ"/></font>
</defs>
</svg>
